<svg xmlns="http://www.w3.org/2000/svg" xmlns:xlink="http://www.w3.org/1999/xlink" xmlns:inkscape="http://www.inkscape.org/namespaces/inkscape" version="1.1" width="100%" height="100%" viewBox="0 0 720 405.01417">
<defs>
<clipPath id="clip_1">
<path transform="matrix(1,0,0,-1,0,405.01417)" d="M0 .028H719.972V405.014H0Z" clip-rule="evenodd"/>
</clipPath>
<mask id="mask_2">
<g transform="matrix(.112012509,0,0,.111905928,11.764,355.57716)">
<image id="image_3" width="640" height="287" xlink:href="../../slide-images/49f7e12e8d4a3038d5ee9f05dc766f7d87e33a6fad21df1dfde5bfeb48ea245e.webp"/>
</g>
</mask>
<mask id="mask_5">
<g transform="matrix(.37497706,0,0,.43795154,360.425,-.028839112)">
<image id="image_6" width="959" height="929" xlink:href="../../slide-images/83094a91505fd814377f109e7d61659274bceac8a027914e7e573de9a8a5c05c.webp"/>
</g>
</mask>
<clipPath id="clip_8">
<path transform="matrix(1,0,0,-1,0,405.01417)" d="M593.291 159.732H720.028V405.01399H593.291Z" clip-rule="evenodd"/>
</clipPath>
<clipPath id="clip_9">
<path transform="matrix(1,0,0,-1,0,405.01417)" d="M480.076 129.458H938.693V435.459H480.076Z" clip-rule="evenodd"/>
</clipPath>
<mask id="mask_10">
<g transform="matrix(.74932846,0,0,.74993136,480.076,-30.47284)">
<image id="image_11" width="612" height="408" xlink:href="../../slide-images/7b52b9ba200e426e78251f9e6ed45a9950d7a504877ce5ba224251dccd13c2b8.webp"/>
</g>
</mask>
<clipPath id="clip_13">
<path transform="matrix(1,0,0,-1,0,405.01417)" d="M0 .028H719.972V405.014H0Z" clip-rule="evenodd"/>
</clipPath>
<mask id="mask_14">
<g transform="matrix(.37496359,0,0,.43493,0,-.027832032)">
<image id="image_15" width="961" height="929" xlink:href="../../slide-images/d6fc07338582505f42616ceb2d4660e87ba6c23d73174c692a12aef4034876f5.webp"/>
</g>
</mask>
<clipPath id="clip_17">
<path transform="matrix(1,0,0,-1,0,405.01417)" d="M0 174.501H118.233V405.97804H0Z" clip-rule="evenodd"/>
</clipPath>
<clipPath id="clip_18">
<path transform="matrix(1,0,0,-1,0,405.01417)" d="M-244.942 139.918H213.675V445.919H-244.942Z" clip-rule="evenodd"/>
</clipPath>
<mask id="mask_19">
<g transform="matrix(.74932846,0,0,.74993136,-244.942,-40.93283)">
<image id="image_20" width="612" height="408" xlink:href="../../slide-images/ef8240d65d2fbe7ef779cadb95a3292d0f0d3cf892119eb743493cc225b81926.webp"/>
</g>
</mask>
<clipPath id="clip_22">
<path transform="matrix(1,0,0,-1,0,405.01417)" d="M0 .028H719.972V405.014H0Z" clip-rule="evenodd"/>
</clipPath>
<clipPath id="clip_23">
<path transform="matrix(1,0,0,-1,0,405.01417)" d="M649.559-40.394H754.583V64.631H649.559Z" clip-rule="evenodd"/>
</clipPath>
<clipPath id="clip_24">
<path transform="matrix(1,0,0,-1,0,405.01417)" d="M13.606 84.897H348.264V132.322H13.606Z" clip-rule="evenodd"/>
</clipPath>
<mask id="mask_25">
<g transform="matrix(.25179083,0,0,.25210107,13.606,272.66517)">
<image id="image_26" width="1329" height="188" xlink:href="../../slide-images/79a7db0b864584221ba9bf19f5aeb910c0f52fd7effec0be4ee4b6798015b4ed.webp"/>
</g>
</mask>
<clipPath id="clip_28">
<path transform="matrix(1,0,0,-1,0,405.01417)" d="M20.863 93.628H339.534V125.065H20.863Z" clip-rule="evenodd"/>
</clipPath>









































<clipPath id="clip_32">
<path transform="matrix(1,0,0,-1,0,405.01417)" d="M25.71 213.477H53.886V243.836H25.71Z" clip-rule="evenodd"/>
</clipPath>
<mask id="mask_33">
<g transform="matrix(.11718465,0,0,.11727696,21.373,153.72316)">
<image id="image_34" width="612" height="408" xlink:href="../../slide-images/d19e6187f4ec1d104a863ea5af3e63c6ba4cd6e4b14d4518daa3901f305b926a.webp"/>
</g>
</mask>
<clipPath id="clip_36">
<path transform="matrix(1,0,0,-1,0,405.01417)" d="M0 .028H719.972V405.014H0Z" clip-rule="evenodd"/>
</clipPath>









<clipPath id="clip_37">
<path transform="matrix(1,0,0,-1,0,405.01417)" d="M383.301 212.995H413.66V242.22H383.301Z" clip-rule="evenodd"/>
</clipPath>
<mask id="mask_38">
<g transform="matrix(.11718465,0,0,.11720589,346.337,153.55316)">
<use xlink:href="#image_34" x="0" y="0" width="612" height="408"/>
</g>
</mask>
<clipPath id="clip_39">
<path transform="matrix(1,0,0,-1,0,405.01417)" d="M0 .028H719.972V405.014H0Z" clip-rule="evenodd"/>
</clipPath>
<clipPath id="clip_40">
<path transform="matrix(1,0,0,-1,0,405.01417)" d="M13.606 157.323H348.236V204.748H13.606Z" clip-rule="evenodd"/>
</clipPath>
<mask id="mask_41">
<g transform="matrix(.25176976,0,0,.25210107,13.606,200.24016)">
<image id="image_42" width="1329" height="188" xlink:href="../../slide-images/de9fd021d57b36896e6b7c76b67071952b26d813c9fd0591430588ed75edd308.webp"/>
</g>
</mask>
<clipPath id="clip_44">
<path transform="matrix(1,0,0,-1,0,405.01417)" d="M20.863 166.053H339.506V197.49H20.863Z" clip-rule="evenodd"/>
</clipPath>




<clipPath id="clip_45">
<path transform="matrix(1,0,0,-1,0,405.01417)" d="M28.431 175.776H41.159V188.505H28.431Z" clip-rule="evenodd"/>
</clipPath>
<mask id="mask_46">
<g transform="matrix(.099992129,0,0,.099992129,28.431,216.48217)">
<image id="image_47" width="127" height="127" xlink:href="../../slide-images/09eaee4a20e91308c82a1e4eb9663fa558cf98ca924b969a80129429e7b31a31.webp"/>
</g>
</mask>
<clipPath id="clip_49">
<path transform="matrix(1,0,0,-1,0,405.01417)" d="M13.606 121.124H348.264V168.549H13.606Z" clip-rule="evenodd"/>
</clipPath>
<mask id="mask_50">
<g transform="matrix(.25179083,0,0,.25210107,13.606,236.43816)">
<use xlink:href="#image_42" x="0" y="0" width="1329" height="188"/>
</g>
</mask>
<clipPath id="clip_51">
<path transform="matrix(1,0,0,-1,0,405.01417)" d="M20.863 129.855H339.534V161.292H20.863Z" clip-rule="evenodd"/>
</clipPath>



<clipPath id="clip_52">
<path transform="matrix(1,0,0,-1,0,405.01417)" d="M28.431 140.343H41.159V153.072H28.431Z" clip-rule="evenodd"/>
</clipPath>
<mask id="mask_53">
<g transform="matrix(.099992129,0,0,.099992129,28.431,251.91516)">
<use xlink:href="#image_47" x="0" y="0" width="127" height="127"/>
</g>
</mask>
<clipPath id="clip_54">
<path transform="matrix(1,0,0,-1,0,405.01417)" d="M28.431 103.379H41.159V116.108H28.431Z" clip-rule="evenodd"/>
</clipPath>
<mask id="mask_55">
<g transform="matrix(.099992129,0,0,.099992129,28.431,288.87916)">
<use xlink:href="#image_47" x="0" y="0" width="127" height="127"/>
</g>
</mask>
<clipPath id="clip_56">
<path transform="matrix(1,0,0,-1,0,405.01417)" d="M373.663 157.691H708.321V205.116H373.663Z" clip-rule="evenodd"/>
</clipPath>
<mask id="mask_57">
<g transform="matrix(.25179083,0,0,.25210107,373.663,199.87116)">
<use xlink:href="#image_42" x="0" y="0" width="1329" height="188"/>
</g>
</mask>
<clipPath id="clip_58">
<path transform="matrix(1,0,0,-1,0,405.01417)" d="M380.92 166.422H699.591V197.859H380.92Z" clip-rule="evenodd"/>
</clipPath>




<clipPath id="clip_59">
<path transform="matrix(1,0,0,-1,0,405.01417)" d="M386.986 176.853H399.714V189.582H386.986Z" clip-rule="evenodd"/>
</clipPath>
<mask id="mask_60">
<g transform="matrix(.099992129,0,0,.099992129,386.986,215.40515)">
<use xlink:href="#image_47" x="0" y="0" width="127" height="127"/>
</g>
</mask>
<clipPath id="clip_61">
<path transform="matrix(1,0,0,-1,0,405.01417)" d="M373.663 121.493H708.321V168.918H373.663Z" clip-rule="evenodd"/>
</clipPath>
<mask id="mask_62">
<g transform="matrix(.25179083,0,0,.25210107,373.663,236.07015)">
<use xlink:href="#image_42" x="0" y="0" width="1329" height="188"/>
</g>
</mask>
<clipPath id="clip_63">
<path transform="matrix(1,0,0,-1,0,405.01417)" d="M380.92 130.223H699.591V161.66H380.92Z" clip-rule="evenodd"/>
</clipPath>

<clipPath id="clip_64">
<path transform="matrix(1,0,0,-1,0,405.01417)" d="M386.986 140.797H399.714V153.526H386.986Z" clip-rule="evenodd"/>
</clipPath>
<mask id="mask_65">
<g transform="matrix(.099992129,0,0,.099992129,386.986,251.46216)">
<use xlink:href="#image_47" x="0" y="0" width="127" height="127"/>
</g>
</mask>

















<mask id="mask_67">
<g transform="matrix(.23780556,0,0,.23780556,298.063,105.05216)">
<image id="image_68" width="36" height="36" xlink:href="../../slide-images/4472c0bae0ebc8b44c221b31dc31a73b6b97a6b5e80a5a7980d88538f5704d4f.webp"/>
</g>
</mask>





</defs>
<g>
<g clip-path="url(#clip_1)">
<path transform="matrix(1,0,0,-1,0,405.01417)" d="M0 405.014H719.972V.028H0V405.014Z" fill="#ffffff" fill-rule="evenodd"/>
<path transform="matrix(1,0,0,-1,0,405.01417)" d="M0 405.014H720V0H0V405.014Z" fill="#ffffff" fill-rule="evenodd"/>
<g mask="url(#mask_2)">
<g transform="matrix(.112012509,0,0,.111905928,11.764,355.57716)">
<image id="image_4" width="640" height="287" xlink:href="../../slide-images/2f8840171ab61b07efd1e80c6e0e88fa358c9e7953d29242280aba71cdda63e6.webp"/>
</g>
</g>
<g mask="url(#mask_5)">
<g transform="matrix(.37497706,0,0,.43795154,360.425,-.028839112)">
<image id="image_7" width="959" height="929" xlink:href="../../slide-images/23567c91e82c2a340adb83b78627bc760bd2ce262e5b114ad1a3b2c53c15e9cd.webp"/>
</g>
</g>
</g>
<g clip-path="url(#clip_8)">
<g opacity=".06">
<g clip-path="url(#clip_9)">
<g mask="url(#mask_10)">
<g transform="matrix(.74932846,0,0,.74993136,480.076,-30.47284)">
<image id="image_12" width="612" height="408" xlink:href="../../slide-images/4d29aa66b3c920356c9c7ea563eeb34c6c0bf5c3ff4e95ea394ec5b725ff2bbe.webp"/>
</g>
</g>
</g>
</g>
</g>
<g clip-path="url(#clip_13)">
<g mask="url(#mask_14)">
<g transform="matrix(.37496359,0,0,.43493,0,-.027832032)">
<image id="image_16" width="961" height="929" xlink:href="../../slide-images/9cd03990f5fa0b1fe0ec9200c4c5c061fcce4bcceee93c56ffefbec0d4eabe3b.webp"/>
</g>
</g>
</g>
<g clip-path="url(#clip_17)">
<g opacity=".06">
<g clip-path="url(#clip_18)">
<g mask="url(#mask_19)">
<g transform="matrix(.74932846,0,0,.74993136,-244.942,-40.93283)">
<image id="image_21" width="612" height="408" xlink:href="../../slide-images/fe53a802496ec683a4fefb5f37f498168917d7811a3bbeab9f35884515db7189.webp"/>
</g>
</g>
</g>
</g>
</g>
<g clip-path="url(#clip_22)">
<g opacity=".05">
<g clip-path="url(#clip_23)">
<path transform="matrix(1,0,0,-1,0,405.01417)" d="M649.559 12.132V12.132C649.559 21.345 651.997 30.387 656.589 38.381 661.209 46.375 667.814 52.979 675.808 57.6 683.802 62.192 692.844 64.63 702.057 64.63 711.269 64.63 720.312 62.192 728.306 57.6 736.299 52.979 742.904 46.375 747.524 38.381 752.117 30.387 754.554 21.345 754.554 12.132 754.554 2.92 752.117-6.123 747.524-14.117 742.904-22.11 736.299-28.715 728.306-33.336 720.312-37.928 711.269-40.366 702.057-40.366 692.844-40.366 683.802-37.928 675.808-33.336 667.814-28.715 661.209-22.11 656.589-14.117 651.997-6.123 649.559 2.92 649.559 12.132Z" fill="#008080" fill-rule="evenodd"/>
</g>
</g>
<g opacity=".06">
<g clip-path="url(#clip_24)">
<g mask="url(#mask_25)">
<g transform="matrix(.25179083,0,0,.25210107,13.606,272.66517)">
<image id="image_27" width="1329" height="188" xlink:href="../../slide-images/766285c5c5f026fa1834e224a385fe1d176bb138a8b88b0855004b43614228d0.webp"/>
</g>
</g>
</g>
</g>
<path transform="matrix(1,0,0,-1,0,405.01417)" d="M21.373 120.529V120.529C21.373 121.238 21.572 121.946 21.912 122.542 22.28 123.165 22.791 123.675 23.386 124.044 24.009 124.384 24.718 124.583 25.427 124.583L334.942 124.554C335.65 124.554 336.359 124.356 336.954 124.016 337.578 123.647 338.088 123.137 338.457 122.542 338.797 121.918 338.995 121.209 338.995 120.501V98.22C338.995 97.512 338.797 96.803 338.457 96.208 338.088 95.584 337.578 95.074 336.983 94.705 336.359 94.365 335.65 94.167 334.942 94.167H25.398C24.69 94.167 23.981 94.365 23.386 94.705 22.762 95.074 22.252 95.584 21.883 96.179 21.543 96.803 21.345 97.512 21.345 98.22L21.373 120.529Z" fill="#ffffff" fill-rule="evenodd"/>
<g opacity=".08">
<g clip-path="url(#clip_28)">
<path transform="matrix(1,0,0,-1,0,405.01417)" stroke-width=".99211" stroke-linecap="butt" stroke-linejoin="round" fill="none" stroke="#000000" d="M21.373 120.529V120.529C21.373 121.238 21.572 121.946 21.912 122.542 22.28 123.165 22.791 123.675 23.386 124.044 24.009 124.384 24.718 124.583 25.427 124.583L334.942 124.554C335.65 124.554 336.359 124.356 336.954 124.016 337.578 123.647 338.088 123.137 338.457 122.542 338.797 121.918 338.995 121.209 338.995 120.501V98.22C338.995 97.512 338.797 96.803 338.457 96.208 338.088 95.584 337.578 95.074 336.983 94.705 336.359 94.365 335.65 94.167 334.942 94.167H25.398C24.69 94.167 23.981 94.365 23.386 94.705 22.762 95.074 22.252 95.584 21.883 96.179 21.543 96.803 21.345 97.512 21.345 98.22L21.373 120.529Z"/>
</g>
</g>
<use data-text="I" xlink:href="../../slide-glyphs.svg#gcb7b8ffc9c51372ec6760bd8" transform="matrix(10.006,0,0,-10.006,42.009,298.34617)" fill="#595959"/>
<use data-text="d" xlink:href="../../slide-glyphs.svg#geea1ebab84d3ac61e70f83fd" transform="matrix(10.006,0,0,-10.006,44.36041,298.34617)" fill="#595959"/>
<use data-text="e" xlink:href="../../slide-glyphs.svg#g5926b49a947223010d0fad04" transform="matrix(10.006,0,0,-10.006,50.544118,298.34617)" fill="#595959"/>
<use data-text="n" xlink:href="../../slide-glyphs.svg#gf1f83f906c51b6b853f7551b" transform="matrix(10.006,0,0,-10.006,56.1875,298.34617)" fill="#595959"/>
<use data-text="t" xlink:href="../../slide-glyphs.svg#g363b4641b9ba8fed40e6fabb" transform="matrix(10.006,0,0,-10.006,61.94095,298.34617)" fill="#595959"/>
<use data-text="i" xlink:href="../../slide-glyphs.svg#gb1f6c6fe8ce2078a49e81f85" transform="matrix(10.006,0,0,-10.006,65.973369,298.34617)" fill="#595959"/>
<use data-text="f" xlink:href="../../slide-glyphs.svg#g96b859f83443a995475de3bf" transform="matrix(10.006,0,0,-10.006,68.35479,298.34617)" fill="#595959"/>
<use data-text="y" xlink:href="../../slide-glyphs.svg#gfecc23d90ca3b9e7a1e6b3c6" transform="matrix(10.006,0,0,-10.006,71.92693,298.34617)" fill="#595959"/>
<use data-text=" " xlink:href="../../slide-glyphs.svg#gcf063d903e53138433505876" transform="matrix(10.006,0,0,-10.006,77.46025,298.34617)" fill="#595959"/>
<use data-text="a" xlink:href="../../slide-glyphs.svg#g9365cae4ddfc5d67599e694a" transform="matrix(10.006,0,0,-10.006,80.14186,298.34617)" fill="#595959"/>
<use data-text="t" xlink:href="../../slide-glyphs.svg#g363b4641b9ba8fed40e6fabb" transform="matrix(10.006,0,0,-10.006,85.47505,298.34617)" fill="#595959"/>
<use data-text=" " xlink:href="../../slide-glyphs.svg#gcf063d903e53138433505876" transform="matrix(10.006,0,0,-10.006,89.47745,298.34617)" fill="#595959"/>
<use data-text="l" xlink:href="../../slide-glyphs.svg#g90b483f50457efc46db1028c" transform="matrix(10.006,0,0,-10.006,92.15906,298.34617)" fill="#595959"/>
<use data-text="e" xlink:href="../../slide-glyphs.svg#g5926b49a947223010d0fad04" transform="matrix(10.006,0,0,-10.006,94.4004,298.34617)" fill="#595959"/>
<use data-text="a" xlink:href="../../slide-glyphs.svg#g9365cae4ddfc5d67599e694a" transform="matrix(10.006,0,0,-10.006,100.043788,298.34617)" fill="#595959"/>
<use data-text="s" xlink:href="../../slide-glyphs.svg#gb3e0700f6684d6750144dce7" transform="matrix(10.006,0,0,-10.006,105.51707,298.34617)" fill="#595959"/>
<use data-text="t" xlink:href="../../slide-glyphs.svg#g363b4641b9ba8fed40e6fabb" transform="matrix(10.006,0,0,-10.006,110.36997,298.34617)" fill="#595959"/>
<use data-text=" " xlink:href="../../slide-glyphs.svg#gcf063d903e53138433505876" transform="matrix(10.006,0,0,-10.006,114.37237,298.34617)" fill="#595959"/>
<use data-text="3" xlink:href="../../slide-glyphs.svg#g3716f80406e2369946712a7c" transform="matrix(10.006,0,0,-10.006,117.033969,298.34617)" fill="#595959"/>
<use data-text=" " xlink:href="../../slide-glyphs.svg#gcf063d903e53138433505876" transform="matrix(10.006,0,0,-10.006,122.98753,298.34617)" fill="#595959"/>
<use data-text="r" xlink:href="../../slide-glyphs.svg#g7f323d6cebf5f495ee07c1bb" transform="matrix(10.006,0,0,-10.006,125.64913,298.34617)" fill="#595959"/>
<use data-text="e" xlink:href="../../slide-glyphs.svg#g5926b49a947223010d0fad04" transform="matrix(10.006,0,0,-10.006,129.31133,298.34617)" fill="#595959"/>
<use data-text="a" xlink:href="../../slide-glyphs.svg#g9365cae4ddfc5d67599e694a" transform="matrix(10.006,0,0,-10.006,134.9547,298.34617)" fill="#595959"/>
<use data-text="l" xlink:href="../../slide-glyphs.svg#g90b483f50457efc46db1028c" transform="matrix(10.006,0,0,-10.006,140.42798,298.34617)" fill="#595959"/>
<use data-text="-" xlink:href="../../slide-glyphs.svg#g8630f603da697bbbb591861d" transform="matrix(10.006,0,0,-10.006,142.66931,298.34617)" fill="#595959"/>
<use data-text="w" xlink:href="../../slide-glyphs.svg#g6c503903256b83d52bb30ef5" transform="matrix(10.006,0,0,-10.006,148.03253,298.34617)" fill="#595959"/>
<use data-text="o" xlink:href="../../slide-glyphs.svg#g614288a5193cc3d43364ae7a" transform="matrix(10.006,0,0,-10.006,155.66712,298.34617)" fill="#595959"/>
<use data-text="r" xlink:href="../../slide-glyphs.svg#g7f323d6cebf5f495ee07c1bb" transform="matrix(10.006,0,0,-10.006,161.59067,298.34617)" fill="#595959"/>
<use data-text="l" xlink:href="../../slide-glyphs.svg#g90b483f50457efc46db1028c" transform="matrix(10.006,0,0,-10.006,165.45299,298.34617)" fill="#595959"/>
<use data-text="d" xlink:href="../../slide-glyphs.svg#geea1ebab84d3ac61e70f83fd" transform="matrix(10.006,0,0,-10.006,167.69432,298.34617)" fill="#595959"/>
<use data-text=" " xlink:href="../../slide-glyphs.svg#gcf063d903e53138433505876" transform="matrix(10.006,0,0,-10.006,173.90805,298.34617)" fill="#595959"/>
<use data-text="e" xlink:href="../../slide-glyphs.svg#g5926b49a947223010d0fad04" transform="matrix(10.006,0,0,-10.006,176.56964,298.34617)" fill="#595959"/>
<use data-text="x" xlink:href="../../slide-glyphs.svg#gfecc87a102f4d86d9faeb380" transform="matrix(10.006,0,0,-10.006,181.96288,298.34617)" fill="#595959"/>
<use data-text="a" xlink:href="../../slide-glyphs.svg#g9365cae4ddfc5d67599e694a" transform="matrix(10.006,0,0,-10.006,186.84581,298.34617)" fill="#595959"/>
<use data-text="m" xlink:href="../../slide-glyphs.svg#ge4ba9be391c330b7696b2512" transform="matrix(10.006,0,0,-10.006,192.3491,298.34617)" fill="#595959"/>
<use data-text="p" xlink:href="../../slide-glyphs.svg#gc75169d0247c0a2eb89781fe" transform="matrix(10.006,0,0,-10.006,201.11437,298.34617)" fill="#595959"/>
<use data-text="l" xlink:href="../../slide-glyphs.svg#g90b483f50457efc46db1028c" transform="matrix(10.006,0,0,-10.006,207.32808,298.34617)" fill="#595959"/>
<use data-text="e" xlink:href="../../slide-glyphs.svg#g5926b49a947223010d0fad04" transform="matrix(10.006,0,0,-10.006,209.56941,298.34617)" fill="#595959"/>
<use data-text="s" xlink:href="../../slide-glyphs.svg#gb3e0700f6684d6750144dce7" transform="matrix(10.006,0,0,-10.006,215.21279,298.34617)" fill="#595959"/>
<use data-text=" " xlink:href="../../slide-glyphs.svg#gcf063d903e53138433505876" transform="matrix(10.006,0,0,-10.006,220.26583,298.34617)" fill="#595959"/>
<use data-text="o" xlink:href="../../slide-glyphs.svg#g614288a5193cc3d43364ae7a" transform="matrix(10.006,0,0,-10.006,222.94744,298.34617)" fill="#595959"/>
<use data-text="f" xlink:href="../../slide-glyphs.svg#g96b859f83443a995475de3bf" transform="matrix(10.006,0,0,-10.006,228.87099,298.34617)" fill="#595959"/>
<use data-text=" " xlink:href="../../slide-glyphs.svg#gcf063d903e53138433505876" transform="matrix(10.006,0,0,-10.006,232.41312,298.34617)" fill="#595959"/>
<use data-text="M" xlink:href="../../slide-glyphs.svg#g2d14f2c29c4b12e97be3bcfb" transform="matrix(10.006,0,0,-10.006,235.09473,298.34617)" fill="#595959"/>
<use data-text="L" xlink:href="../../slide-glyphs.svg#g4031ae8554629a5a41c98ea2" transform="matrix(10.006,0,0,-10.006,243.34969,298.34617)" fill="#595959"/>
<use data-text=" " xlink:href="../../slide-glyphs.svg#gcf063d903e53138433505876" transform="matrix(10.006,0,0,-10.006,248.62285,298.34617)" fill="#595959"/>
<use data-text="i" xlink:href="../../slide-glyphs.svg#gb1f6c6fe8ce2078a49e81f85" transform="matrix(10.006,0,0,-10.006,251.28444,298.34617)" fill="#595959"/>
<use data-text="n" xlink:href="../../slide-glyphs.svg#gf1f83f906c51b6b853f7551b" transform="matrix(10.006,0,0,-10.006,253.69589,298.34617)" fill="#595959"/>
<use data-text=" " xlink:href="../../slide-glyphs.svg#gcf063d903e53138433505876" transform="matrix(10.006,0,0,-10.006,259.42933,298.34617)" fill="#595959"/>
<use data-text="m" xlink:href="../../slide-glyphs.svg#ge4ba9be391c330b7696b2512" transform="matrix(10.006,0,0,-10.006,262.11094,298.34617)" fill="#595959"/>
<use data-text="y" xlink:href="../../slide-glyphs.svg#gfecc23d90ca3b9e7a1e6b3c6" transform="matrix(10.006,0,0,-10.006,270.73609,298.34617)" fill="#595959"/>
<use data-text=" " xlink:href="../../slide-glyphs.svg#gcf063d903e53138433505876" transform="matrix(10.006,0,0,-10.006,276.2994,298.34617)" fill="#595959"/>
<use data-text="d" xlink:href="../../slide-glyphs.svg#geea1ebab84d3ac61e70f83fd" transform="matrix(10.006,0,0,-10.006,278.961,298.34617)" fill="#595959"/>
<use data-text="a" xlink:href="../../slide-glyphs.svg#g9365cae4ddfc5d67599e694a" transform="matrix(10.006,0,0,-10.006,285.14469,298.34617)" fill="#595959"/>
<use data-text="i" xlink:href="../../slide-glyphs.svg#gb1f6c6fe8ce2078a49e81f85" transform="matrix(10.006,0,0,-10.006,290.64799,298.34617)" fill="#595959"/>
<use data-text="l" xlink:href="../../slide-glyphs.svg#g90b483f50457efc46db1028c" transform="matrix(10.006,0,0,-10.006,293.0294,298.34617)" fill="#595959"/>
<use data-text="y" xlink:href="../../slide-glyphs.svg#gfecc23d90ca3b9e7a1e6b3c6" transform="matrix(10.006,0,0,-10.006,295.27073,298.34617)" fill="#595959"/>
<use data-text=" " xlink:href="../../slide-glyphs.svg#gcf063d903e53138433505876" transform="matrix(10.006,0,0,-10.006,300.83406,298.34617)" fill="#595959"/>
<use data-text="l" xlink:href="../../slide-glyphs.svg#g90b483f50457efc46db1028c" transform="matrix(10.006,0,0,-10.006,303.49565,298.34617)" fill="#595959"/>
<use data-text="i" xlink:href="../../slide-glyphs.svg#gb1f6c6fe8ce2078a49e81f85" transform="matrix(10.006,0,0,-10.006,305.73698,298.34617)" fill="#595959"/>
<use data-text="f" xlink:href="../../slide-glyphs.svg#g96b859f83443a995475de3bf" transform="matrix(10.006,0,0,-10.006,308.1484,298.34617)" fill="#595959"/>
<use data-text="e" xlink:href="../../slide-glyphs.svg#g5926b49a947223010d0fad04" transform="matrix(10.006,0,0,-10.006,311.49043,298.34617)" fill="#595959"/>
<use data-text="U" xlink:href="../../slide-glyphs.svg#geba3cc6606f254814d57e97e" transform="matrix(14.003,0,0,-14.003,64.12,180.31217)" fill="#595959"/>
<use data-text="n" xlink:href="../../slide-glyphs.svg#g1fe7535e10f309dadab9703c" transform="matrix(14.003,0,0,-14.003,74.00612,180.31217)" fill="#595959"/>
<use data-text="d" xlink:href="../../slide-glyphs.svg#g23f8bac688508a557b99ff65" transform="matrix(14.003,0,0,-14.003,83.45814,180.31217)" fill="#595959"/>
<use data-text="e" xlink:href="../../slide-glyphs.svg#g7904a22cb9f26766a131de71" transform="matrix(14.003,0,0,-14.003,92.96617,180.31217)" fill="#595959"/>
<use data-text="r" xlink:href="../../slide-glyphs.svg#gc956b5707e4523252658e846" transform="matrix(14.003,0,0,-14.003,101.60602,180.31217)" fill="#595959"/>
<use data-text="s" xlink:href="../../slide-glyphs.svg#ge01381158566bf6a10cb546b" transform="matrix(14.003,0,0,-14.003,107.599308,180.31217)" fill="#595959"/>
<use data-text="t" xlink:href="../../slide-glyphs.svg#gf1c2ae3e105e985848ae4c08" transform="matrix(14.003,0,0,-14.003,115.41298,180.31217)" fill="#595959"/>
<use data-text="a" xlink:href="../../slide-glyphs.svg#g1f8595787daa354f34958516" transform="matrix(14.003,0,0,-14.003,121.0982,180.31217)" fill="#595959"/>
<use data-text="n" xlink:href="../../slide-glyphs.svg#g1fe7535e10f309dadab9703c" transform="matrix(14.003,0,0,-14.003,130.63423,180.31217)" fill="#595959"/>
<use data-text="d" xlink:href="../../slide-glyphs.svg#g23f8bac688508a557b99ff65" transform="matrix(14.003,0,0,-14.003,140.08626,180.31217)" fill="#595959"/>
<use data-text="K" xlink:href="../../slide-glyphs.svg#g02651fe5137affecf933124f" transform="matrix(7.994,0,0,-7.994,64.12,188.07917)" fill="#44546a"/>
<use data-text="n" xlink:href="../../slide-glyphs.svg#gd43d70964668100fad9c45e6" transform="matrix(7.994,0,0,-7.994,68.84446,188.07917)" fill="#44546a"/>
<use data-text="o" xlink:href="../../slide-glyphs.svg#gf36d3b880697c319a8526c67" transform="matrix(7.994,0,0,-7.994,73.48098,188.07917)" fill="#44546a"/>
<use data-text="w" xlink:href="../../slide-glyphs.svg#gb713e4215ae5adca1c8e8d63" transform="matrix(7.994,0,0,-7.994,78.12549,188.07917)" fill="#44546a"/>
<use data-text="l" xlink:href="../../slide-glyphs.svg#g90b483f50457efc46db1028c" transform="matrix(7.994,0,0,-7.994,84.432758,188.07917)" fill="#44546a"/>
<use data-text="e" xlink:href="../../slide-glyphs.svg#g1a4ffdb63d36783b3691d45f" transform="matrix(7.994,0,0,-7.994,86.239398,188.07917)" fill="#44546a"/>
<use data-text="d" xlink:href="../../slide-glyphs.svg#g0b7570e55935504d77fa55b8" transform="matrix(7.994,0,0,-7.994,90.78798,188.07917)" fill="#44546a"/>
<use data-text="g" xlink:href="../../slide-glyphs.svg#g0bdb5c79057468c07dbcef29" transform="matrix(7.994,0,0,-7.994,95.76824,188.07917)" fill="#44546a"/>
<use data-text="e" xlink:href="../../slide-glyphs.svg#g1a4ffdb63d36783b3691d45f" transform="matrix(7.994,0,0,-7.994,100.212909,188.07917)" fill="#44546a"/>
<use data-text=" " xlink:href="../../slide-glyphs.svg#gcf063d903e53138433505876" transform="matrix(7.994,0,0,-7.994,104.76149,188.07917)" fill="#44546a"/>
<use data-text="g" xlink:href="../../slide-glyphs.svg#g0bdb5c79057468c07dbcef29" transform="matrix(7.994,0,0,-7.994,106.91187,188.07917)" fill="#44546a"/>
<use data-text="o" xlink:href="../../slide-glyphs.svg#gf36d3b880697c319a8526c67" transform="matrix(7.994,0,0,-7.994,111.38851,188.07917)" fill="#44546a"/>
<use data-text="a" xlink:href="../../slide-glyphs.svg#gc3baa7bcc15ddd309f38b85d" transform="matrix(7.994,0,0,-7.994,116.16892,188.07917)" fill="#44546a"/>
<use data-text="l" xlink:href="../../slide-glyphs.svg#g90b483f50457efc46db1028c" transform="matrix(7.994,0,0,-7.994,120.58161,188.07917)" fill="#44546a"/>
<use data-text="s" xlink:href="../../slide-glyphs.svg#g598ec19e63efa8da6af76698" transform="matrix(7.994,0,0,-7.994,122.38825,188.07917)" fill="#44546a"/>
</g>
<g clip-path="url(#clip_32)">
<g mask="url(#mask_33)">
<g transform="matrix(.11718465,0,0,.11727696,21.373,153.72316)">
<image id="image_35" width="612" height="408" xlink:href="../../slide-images/7da2a244b8b1744ca289cf51e52d67226acec9ec30b6598214b477c3379329bf.webp"/>
</g>
</g>
</g>
<g clip-path="url(#clip_36)">
<use data-text="B" xlink:href="../../slide-glyphs.svg#g971afeb2daf15417bd6588f2" transform="matrix(14.003,0,0,-14.003,424.176,179.94316)" fill="#595959"/>
<use data-text="u" xlink:href="../../slide-glyphs.svg#g96f8a52e5a84e4796fb6a016" transform="matrix(14.003,0,0,-14.003,433.40397,179.94316)" fill="#595959"/>
<use data-text="i" xlink:href="../../slide-glyphs.svg#g361fa2e5d5cb423388d13334" transform="matrix(14.003,0,0,-14.003,442.856,179.94316)" fill="#595959"/>
<use data-text="l" xlink:href="../../slide-glyphs.svg#g433c1758f1490a8d4e2dd4c5" transform="matrix(14.003,0,0,-14.003,446.98689,179.94316)" fill="#595959"/>
<use data-text="d" xlink:href="../../slide-glyphs.svg#g23f8bac688508a557b99ff65" transform="matrix(14.003,0,0,-14.003,451.11778,179.94316)" fill="#595959"/>
<use data-text="P" xlink:href="../../slide-glyphs.svg#ge237ed0f1054e15a5ac21716" transform="matrix(7.994,0,0,-7.994,424.176,187.71016)" fill="#44546a"/>
<use data-text="r" xlink:href="../../slide-glyphs.svg#gc4312100d2902ef9e7838689" transform="matrix(7.994,0,0,-7.994,428.84449,187.71016)" fill="#44546a"/>
<use data-text="o" xlink:href="../../slide-glyphs.svg#gf36d3b880697c319a8526c67" transform="matrix(7.994,0,0,-7.994,431.81825,187.71016)" fill="#44546a"/>
<use data-text="j" xlink:href="../../slide-glyphs.svg#gb2258d14d267ff90dd34e930" transform="matrix(7.994,0,0,-7.994,436.62266,187.71016)" fill="#44546a"/>
<use data-text="e" xlink:href="../../slide-glyphs.svg#g1a4ffdb63d36783b3691d45f" transform="matrix(7.994,0,0,-7.994,438.57319,187.71016)" fill="#44546a"/>
<use data-text="c" xlink:href="../../slide-glyphs.svg#g439d32cea5f556f05e8d0b3c" transform="matrix(7.994,0,0,-7.994,443.09779,187.71016)" fill="#44546a"/>
<use data-text="t" xlink:href="../../slide-glyphs.svg#g6ca18554b6abf1c05fc58564" transform="matrix(7.994,0,0,-7.994,447.6304,187.71016)" fill="#44546a"/>
<use data-text=" " xlink:href="../../slide-glyphs.svg#gcf063d903e53138433505876" transform="matrix(7.994,0,0,-7.994,450.87599,187.71016)" fill="#44546a"/>
<use data-text="g" xlink:href="../../slide-glyphs.svg#g0bdb5c79057468c07dbcef29" transform="matrix(7.994,0,0,-7.994,453.05036,187.71016)" fill="#44546a"/>
<use data-text="o" xlink:href="../../slide-glyphs.svg#gf36d3b880697c319a8526c67" transform="matrix(7.994,0,0,-7.994,457.49504,187.71016)" fill="#44546a"/>
<use data-text="a" xlink:href="../../slide-glyphs.svg#gc3baa7bcc15ddd309f38b85d" transform="matrix(7.994,0,0,-7.994,462.27546,187.71016)" fill="#44546a"/>
<use data-text="l" xlink:href="../../slide-glyphs.svg#g90b483f50457efc46db1028c" transform="matrix(7.994,0,0,-7.994,466.71214,187.71016)" fill="#44546a"/>
<use data-text="s" xlink:href="../../slide-glyphs.svg#g598ec19e63efa8da6af76698" transform="matrix(7.994,0,0,-7.994,468.51878,187.71016)" fill="#44546a"/>
</g>
<g clip-path="url(#clip_37)">
<g mask="url(#mask_38)">
<g transform="matrix(.11718465,0,0,.11720589,346.337,153.55316)">
<use xlink:href="#image_35" x="0" y="0" width="612" height="408"/>
</g>
</g>
</g>
<g clip-path="url(#clip_39)">
<g opacity=".06">
<g clip-path="url(#clip_40)">
<g mask="url(#mask_41)">
<g transform="matrix(.25176976,0,0,.25210107,13.606,200.24016)">
<image id="image_43" width="1329" height="188" xlink:href="../../slide-images/766285c5c5f026fa1834e224a385fe1d176bb138a8b88b0855004b43614228d0.webp"/>
</g>
</g>
</g>
</g>
<path transform="matrix(1,0,0,-1,0,405.01417)" d="M21.373 194.768V194.768C21.373 195.165 21.487 195.534 21.685 195.874 21.855 196.214 22.139 196.497 22.479 196.696 22.819 196.894 23.216 196.979 23.584 196.979H336.756C337.153 196.979 337.521 196.866 337.861 196.668 338.202 196.497 338.485 196.214 338.683 195.874 338.882 195.534 338.967 195.137 338.967 194.768L338.995 168.831C338.995 168.434 338.882 168.066 338.683 167.726 338.513 167.386 338.23 167.102 337.89 166.904 337.55 166.705 337.153 166.62 336.784 166.62L23.584 166.592C23.187 166.592 22.819 166.705 22.479 166.904 22.139 167.074 21.855 167.357 21.657 167.697 21.458 168.038 21.373 168.434 21.373 168.803V194.768Z" fill="#ffffff" fill-rule="evenodd"/>
<g opacity=".08">
<g clip-path="url(#clip_44)">
<path transform="matrix(1,0,0,-1,0,405.01417)" stroke-width=".99211" stroke-linecap="butt" stroke-linejoin="round" fill="none" stroke="#000000" d="M21.373 194.768V194.768C21.373 195.165 21.487 195.534 21.685 195.874 21.855 196.214 22.139 196.497 22.479 196.696 22.819 196.894 23.216 196.979 23.584 196.979H336.756C337.153 196.979 337.521 196.866 337.861 196.668 338.202 196.497 338.485 196.214 338.683 195.874 338.882 195.534 338.967 195.137 338.967 194.768L338.995 168.831C338.995 168.434 338.882 168.066 338.683 167.726 338.513 167.386 338.23 167.102 337.89 166.904 337.55 166.705 337.153 166.62 336.784 166.62L23.584 166.592C23.187 166.592 22.819 166.705 22.479 166.904 22.139 167.074 21.855 167.357 21.657 167.697 21.458 168.038 21.373 168.434 21.373 168.803V194.768Z"/>
</g>
</g>
<use data-text="E" xlink:href="../../slide-glyphs.svg#ga462f60d0216b5451d70f1c6" transform="matrix(10.006,0,0,-10.006,41.868,225.92116)" fill="#595959"/>
<use data-text="x" xlink:href="../../slide-glyphs.svg#gfecc87a102f4d86d9faeb380" transform="matrix(10.006,0,0,-10.006,47.511384,225.92116)" fill="#595959"/>
<use data-text="p" xlink:href="../../slide-glyphs.svg#gc75169d0247c0a2eb89781fe" transform="matrix(10.006,0,0,-10.006,52.41432,225.92116)" fill="#595959"/>
<use data-text="l" xlink:href="../../slide-glyphs.svg#g90b483f50457efc46db1028c" transform="matrix(10.006,0,0,-10.006,58.628049,225.92116)" fill="#595959"/>
<use data-text="a" xlink:href="../../slide-glyphs.svg#g9365cae4ddfc5d67599e694a" transform="matrix(10.006,0,0,-10.006,60.869394,225.92116)" fill="#595959"/>
<use data-text="i" xlink:href="../../slide-glyphs.svg#gb1f6c6fe8ce2078a49e81f85" transform="matrix(10.006,0,0,-10.006,66.342678,225.92116)" fill="#595959"/>
<use data-text="n" xlink:href="../../slide-glyphs.svg#gf1f83f906c51b6b853f7551b" transform="matrix(10.006,0,0,-10.006,68.75412,225.92116)" fill="#595959"/>
<use data-text=" " xlink:href="../../slide-glyphs.svg#gcf063d903e53138433505876" transform="matrix(10.006,0,0,-10.006,74.50757,225.92116)" fill="#595959"/>
<use data-text="w" xlink:href="../../slide-glyphs.svg#g6c503903256b83d52bb30ef5" transform="matrix(10.006,0,0,-10.006,77.16917,225.92116)" fill="#595959"/>
<use data-text="h" xlink:href="../../slide-glyphs.svg#g7539df190fcf2f2ca92973eb" transform="matrix(10.006,0,0,-10.006,84.97385,225.92116)" fill="#595959"/>
<use data-text="a" xlink:href="../../slide-glyphs.svg#g9365cae4ddfc5d67599e694a" transform="matrix(10.006,0,0,-10.006,90.75732,225.92116)" fill="#595959"/>
<use data-text="t" xlink:href="../../slide-glyphs.svg#g363b4641b9ba8fed40e6fabb" transform="matrix(10.006,0,0,-10.006,96.090518,225.92116)" fill="#595959"/>
<use data-text=" " xlink:href="../../slide-glyphs.svg#gcf063d903e53138433505876" transform="matrix(10.006,0,0,-10.006,100.12293,225.92116)" fill="#595959"/>
<use data-text="m" xlink:href="../../slide-glyphs.svg#ge4ba9be391c330b7696b2512" transform="matrix(10.006,0,0,-10.006,102.78453,225.92116)" fill="#595959"/>
<use data-text="a" xlink:href="../../slide-glyphs.svg#g9365cae4ddfc5d67599e694a" transform="matrix(10.006,0,0,-10.006,111.54978,225.92116)" fill="#595959"/>
<use data-text="c" xlink:href="../../slide-glyphs.svg#g65f64662a7ec38bf1aae3aaf" transform="matrix(10.006,0,0,-10.006,117.053089,225.92116)" fill="#595959"/>
<use data-text="h" xlink:href="../../slide-glyphs.svg#g7539df190fcf2f2ca92973eb" transform="matrix(10.006,0,0,-10.006,122.78652,225.92116)" fill="#595959"/>
<use data-text="i" xlink:href="../../slide-glyphs.svg#gb1f6c6fe8ce2078a49e81f85" transform="matrix(10.006,0,0,-10.006,128.56998,225.92116)" fill="#595959"/>
<use data-text="n" xlink:href="../../slide-glyphs.svg#gf1f83f906c51b6b853f7551b" transform="matrix(10.006,0,0,-10.006,130.95142,225.92116)" fill="#595959"/>
<use data-text="e" xlink:href="../../slide-glyphs.svg#g5926b49a947223010d0fad04" transform="matrix(10.006,0,0,-10.006,136.70487,225.92116)" fill="#595959"/>
<use data-text=" " xlink:href="../../slide-glyphs.svg#gcf063d903e53138433505876" transform="matrix(10.006,0,0,-10.006,142.34824,225.92116)" fill="#595959"/>
<use data-text="l" xlink:href="../../slide-glyphs.svg#g90b483f50457efc46db1028c" transform="matrix(10.006,0,0,-10.006,145.00983,225.92116)" fill="#595959"/>
<use data-text="e" xlink:href="../../slide-glyphs.svg#g5926b49a947223010d0fad04" transform="matrix(10.006,0,0,-10.006,147.25116,225.92116)" fill="#595959"/>
<use data-text="a" xlink:href="../../slide-glyphs.svg#g9365cae4ddfc5d67599e694a" transform="matrix(10.006,0,0,-10.006,152.89453,225.92116)" fill="#595959"/>
<use data-text="r" xlink:href="../../slide-glyphs.svg#g7f323d6cebf5f495ee07c1bb" transform="matrix(10.006,0,0,-10.006,158.36782,225.92116)" fill="#595959"/>
<use data-text="n" xlink:href="../../slide-glyphs.svg#gf1f83f906c51b6b853f7551b" transform="matrix(10.006,0,0,-10.006,162.23014,225.92116)" fill="#595959"/>
<use data-text="i" xlink:href="../../slide-glyphs.svg#gb1f6c6fe8ce2078a49e81f85" transform="matrix(10.006,0,0,-10.006,167.98358,225.92116)" fill="#595959"/>
<use data-text="n" xlink:href="../../slide-glyphs.svg#gf1f83f906c51b6b853f7551b" transform="matrix(10.006,0,0,-10.006,170.36502,225.92116)" fill="#595959"/>
<use data-text="g" xlink:href="../../slide-glyphs.svg#g106603a581dc5c01eae55c6e" transform="matrix(10.006,0,0,-10.006,176.11847,225.92116)" fill="#595959"/>
<use data-text=" " xlink:href="../../slide-glyphs.svg#gcf063d903e53138433505876" transform="matrix(10.006,0,0,-10.006,181.82189,225.92116)" fill="#595959"/>
<use data-text="i" xlink:href="../../slide-glyphs.svg#gb1f6c6fe8ce2078a49e81f85" transform="matrix(10.006,0,0,-10.006,184.48348,225.92116)" fill="#595959"/>
<use data-text="s" xlink:href="../../slide-glyphs.svg#gb3e0700f6684d6750144dce7" transform="matrix(10.006,0,0,-10.006,186.89493,225.92116)" fill="#595959"/>
<use data-text=" " xlink:href="../../slide-glyphs.svg#gcf063d903e53138433505876" transform="matrix(10.006,0,0,-10.006,191.94797,225.92116)" fill="#595959"/>
<use data-text="i" xlink:href="../../slide-glyphs.svg#gb1f6c6fe8ce2078a49e81f85" transform="matrix(10.006,0,0,-10.006,194.62958,225.92116)" fill="#595959"/>
<use data-text="n" xlink:href="../../slide-glyphs.svg#gf1f83f906c51b6b853f7551b" transform="matrix(10.006,0,0,-10.006,197.01102,225.92116)" fill="#595959"/>
<use data-text=" " xlink:href="../../slide-glyphs.svg#gcf063d903e53138433505876" transform="matrix(10.006,0,0,-10.006,202.76447,225.92116)" fill="#595959"/>
<use data-text="m" xlink:href="../../slide-glyphs.svg#ge4ba9be391c330b7696b2512" transform="matrix(10.006,0,0,-10.006,205.42606,225.92116)" fill="#595959"/>
<use data-text="y" xlink:href="../../slide-glyphs.svg#gfecc23d90ca3b9e7a1e6b3c6" transform="matrix(10.006,0,0,-10.006,214.08126,225.92116)" fill="#595959"/>
<use data-text=" " xlink:href="../../slide-glyphs.svg#gcf063d903e53138433505876" transform="matrix(10.006,0,0,-10.006,219.61458,225.92116)" fill="#595959"/>
<use data-text="o" xlink:href="../../slide-glyphs.svg#g614288a5193cc3d43364ae7a" transform="matrix(10.006,0,0,-10.006,222.27617,225.92116)" fill="#595959"/>
<use data-text="w" xlink:href="../../slide-glyphs.svg#g6c503903256b83d52bb30ef5" transform="matrix(10.006,0,0,-10.006,228.02962,225.92116)" fill="#595959"/>
<use data-text="n" xlink:href="../../slide-glyphs.svg#gf1f83f906c51b6b853f7551b" transform="matrix(10.006,0,0,-10.006,235.8343,225.92116)" fill="#595959"/>
<use data-text=" " xlink:href="../../slide-glyphs.svg#gcf063d903e53138433505876" transform="matrix(10.006,0,0,-10.006,241.58776,225.92116)" fill="#595959"/>
<use data-text="w" xlink:href="../../slide-glyphs.svg#g6c503903256b83d52bb30ef5" transform="matrix(10.006,0,0,-10.006,244.24935,225.92116)" fill="#595959"/>
<use data-text="o" xlink:href="../../slide-glyphs.svg#g614288a5193cc3d43364ae7a" transform="matrix(10.006,0,0,-10.006,251.88393,225.92116)" fill="#595959"/>
<use data-text="r" xlink:href="../../slide-glyphs.svg#g7f323d6cebf5f495ee07c1bb" transform="matrix(10.006,0,0,-10.006,257.80747,225.92116)" fill="#595959"/>
<use data-text="d" xlink:href="../../slide-glyphs.svg#geea1ebab84d3ac61e70f83fd" transform="matrix(10.006,0,0,-10.006,261.46965,225.92116)" fill="#595959"/>
<use data-text="s" xlink:href="../../slide-glyphs.svg#gb3e0700f6684d6750144dce7" transform="matrix(10.006,0,0,-10.006,267.68336,225.92116)" fill="#595959"/>
<g opacity=".24">
<g clip-path="url(#clip_45)">
<g mask="url(#mask_46)">
<g transform="matrix(.099992129,0,0,.099992129,28.431,216.48217)">
<image id="image_48" width="127" height="127" xlink:href="../../slide-images/7725cbf0ea41a05d8143ddb26a8cf443816d6687c9bd462a1c923b5ed7607022.webp"/>
</g>
</g>
</g>
</g>
<path transform="matrix(1,0,0,-1,0,405.01417)" d="M30.671 182.154V182.154C30.671 182.863 30.869 183.571 31.209 184.195 31.578 184.847 32.088 185.357 32.74 185.726 33.364 186.066 34.072 186.264 34.781 186.264 35.49 186.264 36.198 186.066 36.85 185.726 37.474 185.357 37.984 184.847 38.353 184.195 38.693 183.571 38.891 182.863 38.891 182.154 38.891 181.445 38.693 180.737 38.353 180.085 37.984 179.461 37.474 178.951 36.85 178.583 36.198 178.242 35.49 178.044 34.781 178.044 34.072 178.044 33.364 178.242 32.74 178.583 32.088 178.951 31.578 179.461 31.209 180.085 30.869 180.737 30.671 181.445 30.671 182.154Z" fill="#ffffff" fill-rule="evenodd"/>
<path transform="matrix(1,0,0,-1,0,405.01417)" d="M32.173 182.126V182.126C32.173 182.579 32.287 183.033 32.513 183.43 32.769 183.827 33.08 184.167 33.477 184.394 33.874 184.62 34.328 184.734 34.781 184.734 35.263 184.734 35.717 184.62 36.113 184.394 36.51 184.167 36.822 183.827 37.077 183.43 37.304 183.033 37.417 182.579 37.417 182.126 37.417 181.672 37.304 181.219 37.077 180.822 36.822 180.425 36.51 180.085 36.113 179.858 35.717 179.631 35.263 179.49 34.781 179.49 34.328 179.49 33.874 179.631 33.477 179.858 33.08 180.085 32.769 180.425 32.513 180.822 32.287 181.219 32.173 181.672 32.173 182.126Z" fill="#008080" fill-rule="evenodd"/>
<g opacity=".06">
<g clip-path="url(#clip_49)">
<g mask="url(#mask_50)">
<g transform="matrix(.25179083,0,0,.25210107,13.606,236.43816)">
<use xlink:href="#image_43" x="0" y="0" width="1329" height="188"/>
</g>
</g>
</g>
</g>
<path transform="matrix(1,0,0,-1,0,405.01417)" d="M21.373 158.57V158.57C21.373 158.967 21.487 159.335 21.685 159.675 21.855 160.016 22.139 160.299 22.479 160.497 22.819 160.696 23.216 160.781 23.584 160.781H336.756C337.153 160.781 337.521 160.668 337.861 160.469 338.202 160.299 338.485 160.016 338.683 159.675 338.882 159.335 338.967 158.938 338.967 158.57L338.995 132.633C338.995 132.236 338.882 131.868 338.683 131.527 338.513 131.187 338.23 130.904 337.89 130.705 337.55 130.507 337.153 130.422 336.784 130.422L23.584 130.394C23.187 130.394 22.819 130.507 22.479 130.705 22.139 130.875 21.855 131.159 21.657 131.499 21.458 131.839 21.373 132.236 21.373 132.605V158.57Z" fill="#ffffff" fill-rule="evenodd"/>
<g opacity=".08">
<g clip-path="url(#clip_51)">
<path transform="matrix(1,0,0,-1,0,405.01417)" stroke-width=".99211" stroke-linecap="butt" stroke-linejoin="round" fill="none" stroke="#000000" d="M21.373 158.57V158.57C21.373 158.967 21.487 159.335 21.685 159.675 21.855 160.016 22.139 160.299 22.479 160.497 22.819 160.696 23.216 160.781 23.584 160.781H336.756C337.153 160.781 337.521 160.668 337.861 160.469 338.202 160.299 338.485 160.016 338.683 159.675 338.882 159.335 338.967 158.938 338.967 158.57L338.995 132.633C338.995 132.236 338.882 131.868 338.683 131.527 338.513 131.187 338.23 130.904 337.89 130.705 337.55 130.507 337.153 130.422 336.784 130.422L23.584 130.394C23.187 130.394 22.819 130.507 22.479 130.705 22.139 130.875 21.855 131.159 21.657 131.499 21.458 131.839 21.373 132.236 21.373 132.605V158.57Z"/>
</g>
</g>
<use data-text="D" xlink:href="../../slide-glyphs.svg#g26ed4e7233019ef2e351627e" transform="matrix(10.006,0,0,-10.006,41.811,262.12019)" fill="#595959"/>
<use data-text="e" xlink:href="../../slide-glyphs.svg#g5926b49a947223010d0fad04" transform="matrix(10.006,0,0,-10.006,48.475,262.12019)" fill="#595959"/>
<use data-text="s" xlink:href="../../slide-glyphs.svg#gb3e0700f6684d6750144dce7" transform="matrix(10.006,0,0,-10.006,54.088365,262.12019)" fill="#595959"/>
<use data-text="c" xlink:href="../../slide-glyphs.svg#g65f64662a7ec38bf1aae3aaf" transform="matrix(10.006,0,0,-10.006,59.161405,262.12019)" fill="#595959"/>
<use data-text="r" xlink:href="../../slide-glyphs.svg#g7f323d6cebf5f495ee07c1bb" transform="matrix(10.006,0,0,-10.006,64.89484,262.12019)" fill="#595959"/>
<use data-text="i" xlink:href="../../slide-glyphs.svg#gb1f6c6fe8ce2078a49e81f85" transform="matrix(10.006,0,0,-10.006,68.75715,262.12019)" fill="#595959"/>
<use data-text="b" xlink:href="../../slide-glyphs.svg#g019bdc5a1130a24acfb809b8" transform="matrix(10.006,0,0,-10.006,71.168598,262.12019)" fill="#595959"/>
<use data-text="e" xlink:href="../../slide-glyphs.svg#g5926b49a947223010d0fad04" transform="matrix(10.006,0,0,-10.006,77.38232,262.12019)" fill="#595959"/>
<use data-text=" " xlink:href="../../slide-glyphs.svg#gcf063d903e53138433505876" transform="matrix(10.006,0,0,-10.006,82.99568,262.12019)" fill="#595959"/>
<use data-text="h" xlink:href="../../slide-glyphs.svg#g7539df190fcf2f2ca92973eb" transform="matrix(10.006,0,0,-10.006,85.67729,262.12019)" fill="#595959"/>
<use data-text="o" xlink:href="../../slide-glyphs.svg#g614288a5193cc3d43364ae7a" transform="matrix(10.006,0,0,-10.006,91.43074,262.12019)" fill="#595959"/>
<use data-text="w" xlink:href="../../slide-glyphs.svg#g6c503903256b83d52bb30ef5" transform="matrix(10.006,0,0,-10.006,97.18419,262.12019)" fill="#595959"/>
<use data-text=" " xlink:href="../../slide-glyphs.svg#gcf063d903e53138433505876" transform="matrix(10.006,0,0,-10.006,104.98887,262.12019)" fill="#595959"/>
<use data-text="m" xlink:href="../../slide-glyphs.svg#ge4ba9be391c330b7696b2512" transform="matrix(10.006,0,0,-10.006,107.65047,262.12019)" fill="#595959"/>
<use data-text="a" xlink:href="../../slide-glyphs.svg#g9365cae4ddfc5d67599e694a" transform="matrix(10.006,0,0,-10.006,116.44574,262.12019)" fill="#595959"/>
<use data-text="c" xlink:href="../../slide-glyphs.svg#g65f64662a7ec38bf1aae3aaf" transform="matrix(10.006,0,0,-10.006,121.919017,262.12019)" fill="#595959"/>
<use data-text="h" xlink:href="../../slide-glyphs.svg#g7539df190fcf2f2ca92973eb" transform="matrix(10.006,0,0,-10.006,127.67246,262.12019)" fill="#595959"/>
<use data-text="i" xlink:href="../../slide-glyphs.svg#gb1f6c6fe8ce2078a49e81f85" transform="matrix(10.006,0,0,-10.006,133.4259,262.12019)" fill="#595959"/>
<use data-text="n" xlink:href="../../slide-glyphs.svg#gf1f83f906c51b6b853f7551b" transform="matrix(10.006,0,0,-10.006,135.83736,262.12019)" fill="#595959"/>
<use data-text="e" xlink:href="../../slide-glyphs.svg#g5926b49a947223010d0fad04" transform="matrix(10.006,0,0,-10.006,141.5908,262.12019)" fill="#595959"/>
<use data-text="s" xlink:href="../../slide-glyphs.svg#gb3e0700f6684d6750144dce7" transform="matrix(10.006,0,0,-10.006,147.23418,262.12019)" fill="#595959"/>
<use data-text=" " xlink:href="../../slide-glyphs.svg#gcf063d903e53138433505876" transform="matrix(10.006,0,0,-10.006,152.28722,262.12019)" fill="#595959"/>
<use data-text="l" xlink:href="../../slide-glyphs.svg#g90b483f50457efc46db1028c" transform="matrix(10.006,0,0,-10.006,154.9488,262.12019)" fill="#595959"/>
<use data-text="e" xlink:href="../../slide-glyphs.svg#g5926b49a947223010d0fad04" transform="matrix(10.006,0,0,-10.006,157.19014,262.12019)" fill="#595959"/>
<use data-text="a" xlink:href="../../slide-glyphs.svg#g9365cae4ddfc5d67599e694a" transform="matrix(10.006,0,0,-10.006,162.83351,262.12019)" fill="#595959"/>
<use data-text="r" xlink:href="../../slide-glyphs.svg#g7f323d6cebf5f495ee07c1bb" transform="matrix(10.006,0,0,-10.006,168.3368,262.12019)" fill="#595959"/>
<use data-text="n" xlink:href="../../slide-glyphs.svg#gf1f83f906c51b6b853f7551b" transform="matrix(10.006,0,0,-10.006,172.16912,262.12019)" fill="#595959"/>
<use data-text=" " xlink:href="../../slide-glyphs.svg#gcf063d903e53138433505876" transform="matrix(10.006,0,0,-10.006,177.92256,262.12019)" fill="#595959"/>
<use data-text="f" xlink:href="../../slide-glyphs.svg#g96b859f83443a995475de3bf" transform="matrix(10.006,0,0,-10.006,180.58415,262.12019)" fill="#595959"/>
<use data-text="r" xlink:href="../../slide-glyphs.svg#g7f323d6cebf5f495ee07c1bb" transform="matrix(10.006,0,0,-10.006,184.12628,262.12019)" fill="#595959"/>
<use data-text="o" xlink:href="../../slide-glyphs.svg#g614288a5193cc3d43364ae7a" transform="matrix(10.006,0,0,-10.006,187.78849,262.12019)" fill="#595959"/>
<use data-text="m" xlink:href="../../slide-glyphs.svg#ge4ba9be391c330b7696b2512" transform="matrix(10.006,0,0,-10.006,193.74205,262.12019)" fill="#595959"/>
<use data-text=" " xlink:href="../../slide-glyphs.svg#gcf063d903e53138433505876" transform="matrix(10.006,0,0,-10.006,202.50731,262.12019)" fill="#595959"/>
<use data-text="d" xlink:href="../../slide-glyphs.svg#geea1ebab84d3ac61e70f83fd" transform="matrix(10.006,0,0,-10.006,205.18892,262.12019)" fill="#595959"/>
<use data-text="a" xlink:href="../../slide-glyphs.svg#g9365cae4ddfc5d67599e694a" transform="matrix(10.006,0,0,-10.006,211.37264,262.12019)" fill="#595959"/>
<use data-text="t" xlink:href="../../slide-glyphs.svg#g363b4641b9ba8fed40e6fabb" transform="matrix(10.006,0,0,-10.006,216.70583,262.12019)" fill="#595959"/>
<use data-text="a" xlink:href="../../slide-glyphs.svg#g9365cae4ddfc5d67599e694a" transform="matrix(10.006,0,0,-10.006,220.73825,262.12019)" fill="#595959"/>
<use data-text=" " xlink:href="../../slide-glyphs.svg#gcf063d903e53138433505876" transform="matrix(10.006,0,0,-10.006,226.21154,262.12019)" fill="#595959"/>
<use data-text="i" xlink:href="../../slide-glyphs.svg#gb1f6c6fe8ce2078a49e81f85" transform="matrix(10.006,0,0,-10.006,228.87313,262.12019)" fill="#595959"/>
<use data-text="n" xlink:href="../../slide-glyphs.svg#gf1f83f906c51b6b853f7551b" transform="matrix(10.006,0,0,-10.006,231.28458,262.12019)" fill="#595959"/>
<use data-text=" " xlink:href="../../slide-glyphs.svg#gcf063d903e53138433505876" transform="matrix(10.006,0,0,-10.006,237.03803,262.12019)" fill="#595959"/>
<use data-text="4" xlink:href="../../slide-glyphs.svg#g4c4cbacd37a7801e20aad334" transform="matrix(10.006,0,0,-10.006,239.69962,262.12019)" fill="#595959"/>
<use data-text=" " xlink:href="../../slide-glyphs.svg#gcf063d903e53138433505876" transform="matrix(10.006,0,0,-10.006,245.79328,262.12019)" fill="#595959"/>
<use data-text="s" xlink:href="../../slide-glyphs.svg#gb3e0700f6684d6750144dce7" transform="matrix(10.006,0,0,-10.006,248.47489,262.12019)" fill="#595959"/>
<use data-text="t" xlink:href="../../slide-glyphs.svg#g363b4641b9ba8fed40e6fabb" transform="matrix(10.006,0,0,-10.006,253.29778,262.12019)" fill="#595959"/>
<use data-text="e" xlink:href="../../slide-glyphs.svg#g5926b49a947223010d0fad04" transform="matrix(10.006,0,0,-10.006,257.1801,262.12019)" fill="#595959"/>
<use data-text="p" xlink:href="../../slide-glyphs.svg#gc75169d0247c0a2eb89781fe" transform="matrix(10.006,0,0,-10.006,262.8235,262.12019)" fill="#595959"/>
<use data-text="s" xlink:href="../../slide-glyphs.svg#gb3e0700f6684d6750144dce7" transform="matrix(10.006,0,0,-10.006,269.0372,262.12019)" fill="#595959"/>
<g opacity=".24">
<g clip-path="url(#clip_52)">
<g mask="url(#mask_53)">
<g transform="matrix(.099992129,0,0,.099992129,28.431,251.91516)">
<use xlink:href="#image_48" x="0" y="0" width="127" height="127"/>
</g>
</g>
</g>
</g>
<path transform="matrix(1,0,0,-1,0,405.01417)" d="M30.671 146.721V146.721C30.671 147.43 30.869 148.138 31.209 148.762 31.578 149.414 32.088 149.924 32.74 150.293 33.364 150.633 34.072 150.831 34.781 150.831 35.49 150.831 36.198 150.633 36.85 150.293 37.474 149.924 37.984 149.414 38.353 148.762 38.693 148.138 38.891 147.43 38.891 146.721 38.891 146.012 38.693 145.304 38.353 144.652 37.984 144.028 37.474 143.518 36.85 143.149 36.198 142.809 35.49 142.611 34.781 142.611 34.072 142.611 33.364 142.809 32.74 143.149 32.088 143.518 31.578 144.028 31.209 144.652 30.869 145.304 30.671 146.012 30.671 146.721Z" fill="#ffffff" fill-rule="evenodd"/>
<path transform="matrix(1,0,0,-1,0,405.01417)" d="M32.173 146.693V146.693C32.173 147.146 32.287 147.6 32.513 147.997 32.769 148.394 33.08 148.734 33.477 148.96 33.874 149.187 34.328 149.301 34.781 149.301 35.263 149.301 35.717 149.187 36.113 148.96 36.51 148.734 36.822 148.394 37.077 147.997 37.304 147.6 37.417 147.146 37.417 146.693 37.417 146.239 37.304 145.786 37.077 145.389 36.822 144.992 36.51 144.652 36.113 144.425 35.717 144.198 35.263 144.057 34.781 144.057 34.328 144.057 33.874 144.198 33.477 144.425 33.08 144.652 32.769 144.992 32.513 145.389 32.287 145.786 32.173 146.239 32.173 146.693Z" fill="#008080" fill-rule="evenodd"/>
<g opacity=".24">
<g clip-path="url(#clip_54)">
<g mask="url(#mask_55)">
<g transform="matrix(.099992129,0,0,.099992129,28.431,288.87916)">
<use xlink:href="#image_48" x="0" y="0" width="127" height="127"/>
</g>
</g>
</g>
</g>
<path transform="matrix(1,0,0,-1,0,405.01417)" d="M30.671 109.757V109.757C30.671 110.466 30.869 111.175 31.209 111.798 31.578 112.45 32.088 112.96 32.74 113.329 33.364 113.669 34.072 113.868 34.781 113.868 35.49 113.868 36.198 113.669 36.85 113.329 37.474 112.96 37.984 112.45 38.353 111.798 38.693 111.175 38.891 110.466 38.891 109.757 38.891 109.049 38.693 108.34 38.353 107.688 37.984 107.064 37.474 106.554 36.85 106.186 36.198 105.845 35.49 105.647 34.781 105.647 34.072 105.647 33.364 105.845 32.74 106.186 32.088 106.554 31.578 107.064 31.209 107.688 30.869 108.34 30.671 109.049 30.671 109.757Z" fill="#ffffff" fill-rule="evenodd"/>
<path transform="matrix(1,0,0,-1,0,405.01417)" d="M32.173 109.757V109.757C32.173 110.211 32.287 110.664 32.513 111.061 32.769 111.458 33.08 111.798 33.477 112.025 33.874 112.252 34.328 112.394 34.781 112.394 35.263 112.394 35.717 112.252 36.113 112.025 36.51 111.798 36.822 111.458 37.077 111.061 37.304 110.664 37.417 110.211 37.417 109.757 37.417 109.304 37.304 108.85 37.077 108.453 36.822 108.057 36.51 107.716 36.113 107.49 35.717 107.263 35.263 107.149 34.781 107.149 34.328 107.149 33.874 107.263 33.477 107.49 33.08 107.716 32.769 108.057 32.513 108.453 32.287 108.85 32.173 109.304 32.173 109.757Z" fill="#008080" fill-rule="evenodd"/>
<g opacity=".06">
<g clip-path="url(#clip_56)">
<g mask="url(#mask_57)">
<g transform="matrix(.25179083,0,0,.25210107,373.663,199.87116)">
<use xlink:href="#image_43" x="0" y="0" width="1329" height="188"/>
</g>
</g>
</g>
</g>
<path transform="matrix(1,0,0,-1,0,405.01417)" d="M381.43 195.137V195.137C381.43 195.534 381.543 195.902 381.742 196.242 381.912 196.583 382.195 196.866 382.535 197.064 382.876 197.263 383.272 197.348 383.641 197.348H696.813C697.209 197.348 697.578 197.234 697.918 197.036 698.258 196.866 698.542 196.583 698.74 196.242 698.939 195.902 699.024 195.505 699.024 195.137L699.052 169.2C699.052 168.803 698.939 168.434 698.74 168.094 698.57 167.754 698.287 167.471 697.946 167.272 697.606 167.074 697.209 166.989 696.841 166.989L383.641 166.96C383.244 166.96 382.876 167.074 382.535 167.272 382.195 167.442 381.912 167.726 381.713 168.066 381.515 168.406 381.43 168.803 381.43 169.171V195.137Z" fill="#ffffff" fill-rule="evenodd"/>
<g opacity=".08">
<g clip-path="url(#clip_58)">
<path transform="matrix(1,0,0,-1,0,405.01417)" stroke-width=".99211" stroke-linecap="butt" stroke-linejoin="round" fill="none" stroke="#000000" d="M381.43 195.137V195.137C381.43 195.534 381.543 195.902 381.742 196.242 381.912 196.583 382.195 196.866 382.535 197.064 382.876 197.263 383.272 197.348 383.641 197.348H696.813C697.209 197.348 697.578 197.234 697.918 197.036 698.258 196.866 698.542 196.583 698.74 196.242 698.939 195.902 699.024 195.505 699.024 195.137L699.052 169.2C699.052 168.803 698.939 168.434 698.74 168.094 698.57 167.754 698.287 167.471 697.946 167.272 697.606 167.074 697.209 166.989 696.841 166.989L383.641 166.96C383.244 166.96 382.876 167.074 382.535 167.272 382.195 167.442 381.912 167.726 381.713 168.066 381.515 168.406 381.43 168.803 381.43 169.171V195.137Z"/>
</g>
</g>
<use data-text="B" xlink:href="../../slide-glyphs.svg#gd0f8f5f126004f9154854cb8" transform="matrix(10.006,0,0,-10.006,401.896,225.55316)" fill="#595959"/>
<use data-text="r" xlink:href="../../slide-glyphs.svg#g7f323d6cebf5f495ee07c1bb" transform="matrix(10.006,0,0,-10.006,407.90959,225.55316)" fill="#595959"/>
<use data-text="a" xlink:href="../../slide-glyphs.svg#g9365cae4ddfc5d67599e694a" transform="matrix(10.006,0,0,-10.006,411.77189,225.55316)" fill="#595959"/>
<use data-text="i" xlink:href="../../slide-glyphs.svg#gb1f6c6fe8ce2078a49e81f85" transform="matrix(10.006,0,0,-10.006,417.24516,225.55316)" fill="#595959"/>
<use data-text="n" xlink:href="../../slide-glyphs.svg#gf1f83f906c51b6b853f7551b" transform="matrix(10.006,0,0,-10.006,419.6566,225.55316)" fill="#595959"/>
<use data-text="s" xlink:href="../../slide-glyphs.svg#gb3e0700f6684d6750144dce7" transform="matrix(10.006,0,0,-10.006,425.39,225.55316)" fill="#595959"/>
<use data-text="t" xlink:href="../../slide-glyphs.svg#g363b4641b9ba8fed40e6fabb" transform="matrix(10.006,0,0,-10.006,430.24293,225.55316)" fill="#595959"/>
<use data-text="o" xlink:href="../../slide-glyphs.svg#g614288a5193cc3d43364ae7a" transform="matrix(10.006,0,0,-10.006,434.12525,225.55316)" fill="#595959"/>
<use data-text="r" xlink:href="../../slide-glyphs.svg#g7f323d6cebf5f495ee07c1bb" transform="matrix(10.006,0,0,-10.006,440.04878,225.55316)" fill="#595959"/>
<use data-text="m" xlink:href="../../slide-glyphs.svg#ge4ba9be391c330b7696b2512" transform="matrix(10.006,0,0,-10.006,443.91108,225.55316)" fill="#595959"/>
<use data-text=" " xlink:href="../../slide-glyphs.svg#gcf063d903e53138433505876" transform="matrix(10.006,0,0,-10.006,452.67634,225.55316)" fill="#595959"/>
<use data-text="a" xlink:href="../../slide-glyphs.svg#g9365cae4ddfc5d67599e694a" transform="matrix(10.006,0,0,-10.006,455.35795,225.55316)" fill="#595959"/>
<use data-text="t" xlink:href="../../slide-glyphs.svg#g363b4641b9ba8fed40e6fabb" transform="matrix(10.006,0,0,-10.006,460.69114,225.55316)" fill="#595959"/>
<use data-text=" " xlink:href="../../slide-glyphs.svg#gcf063d903e53138433505876" transform="matrix(10.006,0,0,-10.006,464.72355,225.55316)" fill="#595959"/>
<use data-text="l" xlink:href="../../slide-glyphs.svg#g90b483f50457efc46db1028c" transform="matrix(10.006,0,0,-10.006,467.38514,225.55316)" fill="#595959"/>
<use data-text="e" xlink:href="../../slide-glyphs.svg#g5926b49a947223010d0fad04" transform="matrix(10.006,0,0,-10.006,469.62648,225.55316)" fill="#595959"/>
<use data-text="a" xlink:href="../../slide-glyphs.svg#g9365cae4ddfc5d67599e694a" transform="matrix(10.006,0,0,-10.006,475.26985,225.55316)" fill="#595959"/>
<use data-text="s" xlink:href="../../slide-glyphs.svg#gb3e0700f6684d6750144dce7" transform="matrix(10.006,0,0,-10.006,480.7431,225.55316)" fill="#595959"/>
<use data-text="t" xlink:href="../../slide-glyphs.svg#g363b4641b9ba8fed40e6fabb" transform="matrix(10.006,0,0,-10.006,485.596,225.55316)" fill="#595959"/>
<use data-text=" " xlink:href="../../slide-glyphs.svg#gcf063d903e53138433505876" transform="matrix(10.006,0,0,-10.006,489.5984,225.55316)" fill="#595959"/>
<use data-text="3" xlink:href="../../slide-glyphs.svg#g3716f80406e2369946712a7c" transform="matrix(10.006,0,0,-10.006,492.25999,225.55316)" fill="#595959"/>
<use data-text=" " xlink:href="../../slide-glyphs.svg#gcf063d903e53138433505876" transform="matrix(10.006,0,0,-10.006,498.21354,225.55316)" fill="#595959"/>
<use data-text="s" xlink:href="../../slide-glyphs.svg#gb3e0700f6684d6750144dce7" transform="matrix(10.006,0,0,-10.006,500.87513,225.55316)" fill="#595959"/>
<use data-text="c" xlink:href="../../slide-glyphs.svg#g65f64662a7ec38bf1aae3aaf" transform="matrix(10.006,0,0,-10.006,505.92814,225.55316)" fill="#595959"/>
<use data-text="h" xlink:href="../../slide-glyphs.svg#g7539df190fcf2f2ca92973eb" transform="matrix(10.006,0,0,-10.006,511.68159,225.55316)" fill="#595959"/>
<use data-text="o" xlink:href="../../slide-glyphs.svg#g614288a5193cc3d43364ae7a" transform="matrix(10.006,0,0,-10.006,517.465,225.55316)" fill="#595959"/>
<use data-text="o" xlink:href="../../slide-glyphs.svg#g614288a5193cc3d43364ae7a" transform="matrix(10.006,0,0,-10.006,523.38858,225.55316)" fill="#595959"/>
<use data-text="l" xlink:href="../../slide-glyphs.svg#g90b483f50457efc46db1028c" transform="matrix(10.006,0,0,-10.006,529.3121,225.55316)" fill="#595959"/>
<use data-text=" " xlink:href="../../slide-glyphs.svg#gcf063d903e53138433505876" transform="matrix(10.006,0,0,-10.006,531.5734,225.55316)" fill="#595959"/>
<use data-text="p" xlink:href="../../slide-glyphs.svg#gc75169d0247c0a2eb89781fe" transform="matrix(10.006,0,0,-10.006,534.235,225.55316)" fill="#595959"/>
<use data-text="r" xlink:href="../../slide-glyphs.svg#g7f323d6cebf5f495ee07c1bb" transform="matrix(10.006,0,0,-10.006,540.4487,225.55316)" fill="#595959"/>
<use data-text="o" xlink:href="../../slide-glyphs.svg#g614288a5193cc3d43364ae7a" transform="matrix(10.006,0,0,-10.006,544.1109,225.55316)" fill="#595959"/>
<use data-text="b" xlink:href="../../slide-glyphs.svg#g019bdc5a1130a24acfb809b8" transform="matrix(10.006,0,0,-10.006,550.0344,225.55316)" fill="#595959"/>
<use data-text="l" xlink:href="../../slide-glyphs.svg#g90b483f50457efc46db1028c" transform="matrix(10.006,0,0,-10.006,556.24819,225.55316)" fill="#595959"/>
<use data-text="e" xlink:href="../../slide-glyphs.svg#g5926b49a947223010d0fad04" transform="matrix(10.006,0,0,-10.006,558.4895,225.55316)" fill="#595959"/>
<use data-text="m" xlink:href="../../slide-glyphs.svg#ge4ba9be391c330b7696b2512" transform="matrix(10.006,0,0,-10.006,564.1329,225.55316)" fill="#595959"/>
<use data-text="s" xlink:href="../../slide-glyphs.svg#gb3e0700f6684d6750144dce7" transform="matrix(10.006,0,0,-10.006,572.89816,225.55316)" fill="#595959"/>
<use data-text=" " xlink:href="../../slide-glyphs.svg#gcf063d903e53138433505876" transform="matrix(10.006,0,0,-10.006,577.9712,225.55316)" fill="#595959"/>
<use data-text="A" xlink:href="../../slide-glyphs.svg#g2047a16c619ad51fb2da1887" transform="matrix(10.006,0,0,-10.006,580.63278,225.55316)" fill="#595959"/>
<use data-text="I" xlink:href="../../slide-glyphs.svg#gcb7b8ffc9c51372ec6760bd8" transform="matrix(10.006,0,0,-10.006,587.2667,225.55316)" fill="#595959"/>
<use data-text=" " xlink:href="../../slide-glyphs.svg#gcf063d903e53138433505876" transform="matrix(10.006,0,0,-10.006,589.6181,225.55316)" fill="#595959"/>
<use data-text="c" xlink:href="../../slide-glyphs.svg#g65f64662a7ec38bf1aae3aaf" transform="matrix(10.006,0,0,-10.006,592.27969,225.55316)" fill="#595959"/>
<use data-text="o" xlink:href="../../slide-glyphs.svg#g614288a5193cc3d43364ae7a" transform="matrix(10.006,0,0,-10.006,598.0331,225.55316)" fill="#595959"/>
<use data-text="u" xlink:href="../../slide-glyphs.svg#g6c7397289661f74b5b7e3b4d" transform="matrix(10.006,0,0,-10.006,603.9566,225.55316)" fill="#595959"/>
<use data-text="l" xlink:href="../../slide-glyphs.svg#g90b483f50457efc46db1028c" transform="matrix(10.006,0,0,-10.006,609.69,225.55316)" fill="#595959"/>
<use data-text="d" xlink:href="../../slide-glyphs.svg#geea1ebab84d3ac61e70f83fd" transform="matrix(10.006,0,0,-10.006,611.93136,225.55316)" fill="#595959"/>
<use data-text=" " xlink:href="../../slide-glyphs.svg#gcf063d903e53138433505876" transform="matrix(10.006,0,0,-10.006,618.1451,225.55316)" fill="#595959"/>
<use data-text="h" xlink:href="../../slide-glyphs.svg#g7539df190fcf2f2ca92973eb" transform="matrix(10.006,0,0,-10.006,620.80667,225.55316)" fill="#595959"/>
<use data-text="e" xlink:href="../../slide-glyphs.svg#g5926b49a947223010d0fad04" transform="matrix(10.006,0,0,-10.006,626.5901,225.55316)" fill="#595959"/>
<use data-text="l" xlink:href="../../slide-glyphs.svg#g90b483f50457efc46db1028c" transform="matrix(10.006,0,0,-10.006,632.23348,225.55316)" fill="#595959"/>
<use data-text="p" xlink:href="../../slide-glyphs.svg#gc75169d0247c0a2eb89781fe" transform="matrix(10.006,0,0,-10.006,634.4748,225.55316)" fill="#595959"/>
<use data-text=" " xlink:href="../../slide-glyphs.svg#gcf063d903e53138433505876" transform="matrix(10.006,0,0,-10.006,640.68856,225.55316)" fill="#595959"/>
<use data-text="s" xlink:href="../../slide-glyphs.svg#gb3e0700f6684d6750144dce7" transform="matrix(10.006,0,0,-10.006,643.3501,225.55316)" fill="#595959"/>
<use data-text="o" xlink:href="../../slide-glyphs.svg#g614288a5193cc3d43364ae7a" transform="matrix(10.006,0,0,-10.006,648.40316,225.55316)" fill="#595959"/>
<use data-text="l" xlink:href="../../slide-glyphs.svg#g90b483f50457efc46db1028c" transform="matrix(10.006,0,0,-10.006,654.3567,225.55316)" fill="#595959"/>
<use data-text="v" xlink:href="../../slide-glyphs.svg#ge28e3e370d75f53cf3c01871" transform="matrix(10.006,0,0,-10.006,656.598,225.55316)" fill="#595959"/>
<use data-text="e" xlink:href="../../slide-glyphs.svg#g5926b49a947223010d0fad04" transform="matrix(10.006,0,0,-10.006,661.73117,225.55316)" fill="#595959"/>
<g opacity=".24">
<g clip-path="url(#clip_59)">
<g mask="url(#mask_60)">
<g transform="matrix(.099992129,0,0,.099992129,386.986,215.40515)">
<use xlink:href="#image_48" x="0" y="0" width="127" height="127"/>
</g>
</g>
</g>
</g>
<path transform="matrix(1,0,0,-1,0,405.01417)" d="M389.225 183.231V183.231C389.225 183.94 389.424 184.649 389.764 185.272 390.132 185.924 390.643 186.434 391.294 186.803 391.918 187.143 392.627 187.342 393.335 187.342 394.044 187.342 394.753 187.143 395.405 186.803 396.028 186.434 396.539 185.924 396.907 185.272 397.247 184.649 397.446 183.94 397.446 183.231 397.446 182.523 397.247 181.814 396.907 181.162 396.539 180.538 396.028 180.028 395.405 179.66 394.753 179.32 394.044 179.121 393.335 179.121 392.627 179.121 391.918 179.32 391.294 179.66 390.643 180.028 390.132 180.538 389.764 181.162 389.424 181.814 389.225 182.523 389.225 183.231Z" fill="#ffffff" fill-rule="evenodd"/>
<path transform="matrix(1,0,0,-1,0,405.01417)" d="M390.756 183.231V183.231C390.756 183.685 390.869 184.138 391.096 184.535 391.351 184.932 391.663 185.272 392.06 185.499 392.457 185.726 392.91 185.868 393.364 185.868 393.846 185.868 394.299 185.726 394.696 185.499 395.093 185.272 395.405 184.932 395.66 184.535 395.887 184.138 396 183.685 396 183.231 396 182.778 395.887 182.324 395.66 181.927 395.405 181.531 395.093 181.19 394.696 180.964 394.299 180.737 393.846 180.623 393.364 180.623 392.91 180.623 392.457 180.737 392.06 180.964 391.663 181.19 391.351 181.531 391.096 181.927 390.869 182.324 390.756 182.778 390.756 183.231Z" fill="#ed7d31" fill-rule="evenodd"/>
<g opacity=".06">
<g clip-path="url(#clip_61)">
<g mask="url(#mask_62)">
<g transform="matrix(.25179083,0,0,.25210107,373.663,236.07015)">
<use xlink:href="#image_43" x="0" y="0" width="1329" height="188"/>
</g>
</g>
</g>
</g>
<path transform="matrix(1,0,0,-1,0,405.01417)" d="M381.43 158.938V158.938C381.43 159.335 381.543 159.704 381.742 160.044 381.912 160.384 382.195 160.668 382.535 160.866 382.876 161.064 383.272 161.149 383.641 161.149H696.813C697.209 161.149 697.578 161.036 697.918 160.838 698.258 160.668 698.542 160.384 698.74 160.044 698.939 159.704 699.024 159.307 699.024 158.938L699.052 133.001C699.052 132.605 698.939 132.236 698.74 131.896 698.57 131.556 698.287 131.272 697.946 131.074 697.606 130.875 697.209 130.79 696.841 130.79L383.641 130.762C383.244 130.762 382.876 130.875 382.535 131.074 382.195 131.244 381.912 131.527 381.713 131.868 381.515 132.208 381.43 132.605 381.43 132.973V158.938Z" fill="#ffffff" fill-rule="evenodd"/>
<g opacity=".08">
<g clip-path="url(#clip_63)">
<path transform="matrix(1,0,0,-1,0,405.01417)" stroke-width=".99211" stroke-linecap="butt" stroke-linejoin="round" fill="none" stroke="#000000" d="M381.43 158.938V158.938C381.43 159.335 381.543 159.704 381.742 160.044 381.912 160.384 382.195 160.668 382.535 160.866 382.876 161.064 383.272 161.149 383.641 161.149H696.813C697.209 161.149 697.578 161.036 697.918 160.838 698.258 160.668 698.542 160.384 698.74 160.044 698.939 159.704 699.024 159.307 699.024 158.938L699.052 133.001C699.052 132.605 698.939 132.236 698.74 131.896 698.57 131.556 698.287 131.272 697.946 131.074 697.606 130.875 697.209 130.79 696.841 130.79L383.641 130.762C383.244 130.762 382.876 130.875 382.535 131.074 382.195 131.244 381.912 131.527 381.713 131.868 381.515 132.208 381.43 132.605 381.43 132.973V158.938Z"/>
</g>
</g>
<use data-text="B" xlink:href="../../slide-glyphs.svg#gd0f8f5f126004f9154854cb8" transform="matrix(10.006,0,0,-10.006,401.981,261.75117)" fill="#595959"/>
<use data-text="e" xlink:href="../../slide-glyphs.svg#g5926b49a947223010d0fad04" transform="matrix(10.006,0,0,-10.006,407.99458,261.75117)" fill="#595959"/>
<use data-text="g" xlink:href="../../slide-glyphs.svg#g106603a581dc5c01eae55c6e" transform="matrix(10.006,0,0,-10.006,413.60795,261.75117)" fill="#595959"/>
<use data-text="i" xlink:href="../../slide-glyphs.svg#gb1f6c6fe8ce2078a49e81f85" transform="matrix(10.006,0,0,-10.006,419.31135,261.75117)" fill="#595959"/>
<use data-text="n" xlink:href="../../slide-glyphs.svg#gf1f83f906c51b6b853f7551b" transform="matrix(10.006,0,0,-10.006,421.72279,261.75117)" fill="#595959"/>
<use data-text=" " xlink:href="../../slide-glyphs.svg#gcf063d903e53138433505876" transform="matrix(10.006,0,0,-10.006,427.4562,261.75117)" fill="#595959"/>
<use data-text="n" xlink:href="../../slide-glyphs.svg#gf1f83f906c51b6b853f7551b" transform="matrix(10.006,0,0,-10.006,430.1178,261.75117)" fill="#595959"/>
<use data-text="a" xlink:href="../../slide-glyphs.svg#g9365cae4ddfc5d67599e694a" transform="matrix(10.006,0,0,-10.006,435.87126,261.75117)" fill="#595959"/>
<use data-text="r" xlink:href="../../slide-glyphs.svg#g7f323d6cebf5f495ee07c1bb" transform="matrix(10.006,0,0,-10.006,441.3445,261.75117)" fill="#595959"/>
<use data-text="r" xlink:href="../../slide-glyphs.svg#g7f323d6cebf5f495ee07c1bb" transform="matrix(10.006,0,0,-10.006,445.20683,261.75117)" fill="#595959"/>
<use data-text="o" xlink:href="../../slide-glyphs.svg#g614288a5193cc3d43364ae7a" transform="matrix(10.006,0,0,-10.006,448.869,261.75117)" fill="#595959"/>
<use data-text="w" xlink:href="../../slide-glyphs.svg#g6c503903256b83d52bb30ef5" transform="matrix(10.006,0,0,-10.006,454.62245,261.75117)" fill="#595959"/>
<use data-text="i" xlink:href="../../slide-glyphs.svg#gb1f6c6fe8ce2078a49e81f85" transform="matrix(10.006,0,0,-10.006,462.4271,261.75117)" fill="#595959"/>
<use data-text="n" xlink:href="../../slide-glyphs.svg#gf1f83f906c51b6b853f7551b" transform="matrix(10.006,0,0,-10.006,464.83854,261.75117)" fill="#595959"/>
<use data-text="g" xlink:href="../../slide-glyphs.svg#g106603a581dc5c01eae55c6e" transform="matrix(10.006,0,0,-10.006,470.57197,261.75117)" fill="#595959"/>
<use data-text=" " xlink:href="../../slide-glyphs.svg#gcf063d903e53138433505876" transform="matrix(10.006,0,0,-10.006,476.27537,261.75117)" fill="#595959"/>
<use data-text="d" xlink:href="../../slide-glyphs.svg#geea1ebab84d3ac61e70f83fd" transform="matrix(10.006,0,0,-10.006,478.93696,261.75117)" fill="#595959"/>
<use data-text="o" xlink:href="../../slide-glyphs.svg#g614288a5193cc3d43364ae7a" transform="matrix(10.006,0,0,-10.006,485.15068,261.75117)" fill="#595959"/>
<use data-text="w" xlink:href="../../slide-glyphs.svg#g6c503903256b83d52bb30ef5" transform="matrix(10.006,0,0,-10.006,490.9041,261.75117)" fill="#595959"/>
<use data-text="n" xlink:href="../../slide-glyphs.svg#gf1f83f906c51b6b853f7551b" transform="matrix(10.006,0,0,-10.006,498.70878,261.75117)" fill="#595959"/>
<use data-text=" " xlink:href="../../slide-glyphs.svg#gcf063d903e53138433505876" transform="matrix(10.006,0,0,-10.006,504.46223,261.75117)" fill="#595959"/>
<use data-text="m" xlink:href="../../slide-glyphs.svg#ge4ba9be391c330b7696b2512" transform="matrix(10.006,0,0,-10.006,507.1238,261.75117)" fill="#595959"/>
<use data-text="y" xlink:href="../../slide-glyphs.svg#gfecc23d90ca3b9e7a1e6b3c6" transform="matrix(10.006,0,0,-10.006,515.74899,261.75117)" fill="#595959"/>
<use data-text=" " xlink:href="../../slide-glyphs.svg#gcf063d903e53138433505876" transform="matrix(10.006,0,0,-10.006,521.3123,261.75117)" fill="#595959"/>
<use data-text="p" xlink:href="../../slide-glyphs.svg#gc75169d0247c0a2eb89781fe" transform="matrix(10.006,0,0,-10.006,523.9739,261.75117)" fill="#595959"/>
<use data-text="r" xlink:href="../../slide-glyphs.svg#g7f323d6cebf5f495ee07c1bb" transform="matrix(10.006,0,0,-10.006,530.1876,261.75117)" fill="#595959"/>
<use data-text="o" xlink:href="../../slide-glyphs.svg#g614288a5193cc3d43364ae7a" transform="matrix(10.006,0,0,-10.006,533.8498,261.75117)" fill="#595959"/>
<use data-text="j" xlink:href="../../slide-glyphs.svg#g11b343e6027f03554e94c52c" transform="matrix(10.006,0,0,-10.006,539.7733,261.75117)" fill="#595959"/>
<use data-text="e" xlink:href="../../slide-glyphs.svg#g5926b49a947223010d0fad04" transform="matrix(10.006,0,0,-10.006,542.2148,261.75117)" fill="#595959"/>
<use data-text="c" xlink:href="../../slide-glyphs.svg#g65f64662a7ec38bf1aae3aaf" transform="matrix(10.006,0,0,-10.006,547.85818,261.75117)" fill="#595959"/>
<use data-text="t" xlink:href="../../slide-glyphs.svg#g363b4641b9ba8fed40e6fabb" transform="matrix(10.006,0,0,-10.006,553.44149,261.75117)" fill="#595959"/>
<use data-text=" " xlink:href="../../slide-glyphs.svg#gcf063d903e53138433505876" transform="matrix(10.006,0,0,-10.006,557.4739,261.75117)" fill="#595959"/>
<use data-text="i" xlink:href="../../slide-glyphs.svg#gb1f6c6fe8ce2078a49e81f85" transform="matrix(10.006,0,0,-10.006,560.13546,261.75117)" fill="#595959"/>
<use data-text="d" xlink:href="../../slide-glyphs.svg#geea1ebab84d3ac61e70f83fd" transform="matrix(10.006,0,0,-10.006,562.5469,261.75117)" fill="#595959"/>
<use data-text="e" xlink:href="../../slide-glyphs.svg#g5926b49a947223010d0fad04" transform="matrix(10.006,0,0,-10.006,568.7306,261.75117)" fill="#595959"/>
<use data-text="a" xlink:href="../../slide-glyphs.svg#g9365cae4ddfc5d67599e694a" transform="matrix(10.006,0,0,-10.006,574.37399,261.75117)" fill="#595959"/>
<use data-text=" " xlink:href="../../slide-glyphs.svg#gcf063d903e53138433505876" transform="matrix(10.006,0,0,-10.006,579.8472,261.75117)" fill="#595959"/>
<use data-text="f" xlink:href="../../slide-glyphs.svg#g96b859f83443a995475de3bf" transform="matrix(10.006,0,0,-10.006,582.5288,261.75117)" fill="#595959"/>
<use data-text="o" xlink:href="../../slide-glyphs.svg#g614288a5193cc3d43364ae7a" transform="matrix(10.006,0,0,-10.006,585.8708,261.75117)" fill="#595959"/>
<use data-text="r" xlink:href="../../slide-glyphs.svg#g7f323d6cebf5f495ee07c1bb" transform="matrix(10.006,0,0,-10.006,591.7943,261.75117)" fill="#595959"/>
<use data-text=" " xlink:href="../../slide-glyphs.svg#gcf063d903e53138433505876" transform="matrix(10.006,0,0,-10.006,595.6566,261.75117)" fill="#595959"/>
<use data-text="t" xlink:href="../../slide-glyphs.svg#g363b4641b9ba8fed40e6fabb" transform="matrix(10.006,0,0,-10.006,598.3182,261.75117)" fill="#595959"/>
<use data-text="h" xlink:href="../../slide-glyphs.svg#g7539df190fcf2f2ca92973eb" transform="matrix(10.006,0,0,-10.006,602.3506,261.75117)" fill="#595959"/>
<use data-text="i" xlink:href="../../slide-glyphs.svg#gb1f6c6fe8ce2078a49e81f85" transform="matrix(10.006,0,0,-10.006,608.13406,261.75117)" fill="#595959"/>
<use data-text="s" xlink:href="../../slide-glyphs.svg#gb3e0700f6684d6750144dce7" transform="matrix(10.006,0,0,-10.006,610.51547,261.75117)" fill="#595959"/>
<use data-text=" " xlink:href="../../slide-glyphs.svg#gcf063d903e53138433505876" transform="matrix(10.006,0,0,-10.006,615.5885,261.75117)" fill="#595959"/>
<use data-text="m" xlink:href="../../slide-glyphs.svg#ge4ba9be391c330b7696b2512" transform="matrix(10.006,0,0,-10.006,618.25009,261.75117)" fill="#595959"/>
<use data-text="o" xlink:href="../../slide-glyphs.svg#g614288a5193cc3d43364ae7a" transform="matrix(10.006,0,0,-10.006,627.0153,261.75117)" fill="#595959"/>
<use data-text="d" xlink:href="../../slide-glyphs.svg#geea1ebab84d3ac61e70f83fd" transform="matrix(10.006,0,0,-10.006,632.9689,261.75117)" fill="#595959"/>
<use data-text="u" xlink:href="../../slide-glyphs.svg#g6c7397289661f74b5b7e3b4d" transform="matrix(10.006,0,0,-10.006,639.1526,261.75117)" fill="#595959"/>
<use data-text="l" xlink:href="../../slide-glyphs.svg#g90b483f50457efc46db1028c" transform="matrix(10.006,0,0,-10.006,644.906,261.75117)" fill="#595959"/>
<use data-text="e" xlink:href="../../slide-glyphs.svg#g5926b49a947223010d0fad04" transform="matrix(10.006,0,0,-10.006,647.14736,261.75117)" fill="#595959"/>
<g opacity=".24">
<g clip-path="url(#clip_64)">
<g mask="url(#mask_65)">
<g transform="matrix(.099992129,0,0,.099992129,386.986,251.46216)">
<use xlink:href="#image_48" x="0" y="0" width="127" height="127"/>
</g>
</g>
</g>
</g>
<path transform="matrix(1,0,0,-1,0,405.01417)" d="M389.225 147.175V147.175C389.225 147.883 389.424 148.592 389.764 149.244 390.132 149.868 390.643 150.378 391.294 150.746 391.918 151.086 392.627 151.285 393.335 151.285 394.044 151.285 394.753 151.086 395.405 150.746 396.028 150.378 396.539 149.868 396.907 149.244 397.247 148.592 397.446 147.883 397.446 147.175 397.446 146.466 397.247 145.757 396.907 145.134 396.539 144.482 396.028 143.971 395.405 143.603 394.753 143.263 394.044 143.064 393.335 143.064 392.627 143.064 391.918 143.263 391.294 143.603 390.643 143.971 390.132 144.482 389.764 145.134 389.424 145.757 389.225 146.466 389.225 147.175Z" fill="#ffffff" fill-rule="evenodd"/>
<path transform="matrix(1,0,0,-1,0,405.01417)" d="M390.756 147.175V147.175C390.756 147.628 390.869 148.082 391.096 148.479 391.351 148.875 391.663 149.216 392.06 149.442 392.457 149.669 392.91 149.811 393.364 149.811 393.846 149.811 394.299 149.669 394.696 149.442 395.093 149.216 395.405 148.875 395.66 148.479 395.887 148.082 396 147.628 396 147.175 396 146.721 395.887 146.268 395.66 145.871 395.405 145.474 395.093 145.134 394.696 144.907 394.299 144.68 393.846 144.567 393.364 144.567 392.91 144.567 392.457 144.68 392.06 144.907 391.663 145.134 391.351 145.474 391.096 145.871 390.869 146.268 390.756 146.721 390.756 147.175Z" fill="#ed7d31" fill-rule="evenodd"/>
<use data-text="B" xlink:href="../../slide-glyphs.svg#g971afeb2daf15417bd6588f2" transform="matrix(25.002,0,0,-25.002,155.849,92.466159)" fill="#595959"/>
<use data-text="y" xlink:href="../../slide-glyphs.svg#g355d756a0a40018e2048a050" transform="matrix(25.002,0,0,-25.002,172.30031,92.466159)" fill="#595959"/>
<use data-text=" " xlink:href="../../slide-glyphs.svg#gcf063d903e53138433505876" transform="matrix(25.002,0,0,-25.002,188.05158,92.466159)" fill="#595959"/>
<use data-text="t" xlink:href="../../slide-glyphs.svg#gf1c2ae3e105e985848ae4c08" transform="matrix(25.002,0,0,-25.002,193.352,92.466159)" fill="#595959"/>
<use data-text="h" xlink:href="../../slide-glyphs.svg#gf4cc69dc70c245b58f09a694" transform="matrix(25.002,0,0,-25.002,203.47782,92.466159)" fill="#595959"/>
<use data-text="e" xlink:href="../../slide-glyphs.svg#g7904a22cb9f26766a131de71" transform="matrix(25.002,0,0,-25.002,220.32917,92.466159)" fill="#595959"/>
<use data-text=" " xlink:href="../../slide-glyphs.svg#gcf063d903e53138433505876" transform="matrix(25.002,0,0,-25.002,235.70539,92.466159)" fill="#595959"/>
<use data-text="e" xlink:href="../../slide-glyphs.svg#g7904a22cb9f26766a131de71" transform="matrix(25.002,0,0,-25.002,241.00582,92.466159)" fill="#595959"/>
<use data-text="n" xlink:href="../../slide-glyphs.svg#g1fe7535e10f309dadab9703c" transform="matrix(25.002,0,0,-25.002,256.38206,92.466159)" fill="#595959"/>
<use data-text="d" xlink:href="../../slide-glyphs.svg#g23f8bac688508a557b99ff65" transform="matrix(25.002,0,0,-25.002,273.2334,92.466159)" fill="#595959"/>
<use data-text=" " xlink:href="../../slide-glyphs.svg#gcf063d903e53138433505876" transform="matrix(25.002,0,0,-25.002,290.18476,92.466159)" fill="#595959"/>
<use data-text="o" xlink:href="../../slide-glyphs.svg#gf0012022ca61f3dcef9f6fba" transform="matrix(25.002,0,0,-25.002,295.46018,92.466159)" fill="#595959"/>
<use data-text="f" xlink:href="../../slide-glyphs.svg#g6bf0d7db4d2bb16cebbfadc6" transform="matrix(25.002,0,0,-25.002,311.36146,92.466159)" fill="#595959"/>
<use data-text=" " xlink:href="../../slide-glyphs.svg#gcf063d903e53138433505876" transform="matrix(25.002,0,0,-25.002,320.3372,92.466159)" fill="#595959"/>
<use data-text="t" xlink:href="../../slide-glyphs.svg#gf1c2ae3e105e985848ae4c08" transform="matrix(25.002,0,0,-25.002,325.6376,92.466159)" fill="#595959"/>
<use data-text="h" xlink:href="../../slide-glyphs.svg#gf4cc69dc70c245b58f09a694" transform="matrix(25.002,0,0,-25.002,335.78843,92.466159)" fill="#595959"/>
<use data-text="i" xlink:href="../../slide-glyphs.svg#g361fa2e5d5cb423388d13334" transform="matrix(25.002,0,0,-25.002,352.58976,92.466159)" fill="#595959"/>
<use data-text="s" xlink:href="../../slide-glyphs.svg#ge01381158566bf6a10cb546b" transform="matrix(25.002,0,0,-25.002,359.96534,92.466159)" fill="#595959"/>
<use data-text=" " xlink:href="../../slide-glyphs.svg#gcf063d903e53138433505876" transform="matrix(25.002,0,0,-25.002,373.89146,92.466159)" fill="#595959"/>
<use data-text="s" xlink:href="../../slide-glyphs.svg#ge01381158566bf6a10cb546b" transform="matrix(25.002,0,0,-25.002,379.19187,92.466159)" fill="#595959"/>
<use data-text="e" xlink:href="../../slide-glyphs.svg#g7904a22cb9f26766a131de71" transform="matrix(25.002,0,0,-25.002,393.11799,92.466159)" fill="#595959"/>
<use data-text="s" xlink:href="../../slide-glyphs.svg#ge01381158566bf6a10cb546b" transform="matrix(25.002,0,0,-25.002,408.49424,92.466159)" fill="#595959"/>
<use data-text="s" xlink:href="../../slide-glyphs.svg#ge01381158566bf6a10cb546b" transform="matrix(25.002,0,0,-25.002,422.44535,92.466159)" fill="#595959"/>
<use data-text="i" xlink:href="../../slide-glyphs.svg#g361fa2e5d5cb423388d13334" transform="matrix(25.002,0,0,-25.002,436.37147,92.466159)" fill="#595959"/>
<use data-text="o" xlink:href="../../slide-glyphs.svg#gf0012022ca61f3dcef9f6fba" transform="matrix(25.002,0,0,-25.002,443.74705,92.466159)" fill="#595959"/>
<use data-text="n" xlink:href="../../slide-glyphs.svg#g1fe7535e10f309dadab9703c" transform="matrix(25.002,0,0,-25.002,459.64833,92.466159)" fill="#595959"/>
<use data-text="," xlink:href="../../slide-glyphs.svg#g180dcd7cbf9434c269c99153" transform="matrix(25.002,0,0,-25.002,476.44966,92.466159)" fill="#595959"/>
<use data-text=" " xlink:href="../../slide-glyphs.svg#gcf063d903e53138433505876" transform="matrix(25.002,0,0,-25.002,483.6252,92.466159)" fill="#595959"/>
<use data-text="I" xlink:href="../../slide-glyphs.svg#g65276716038a81061ceca20b" transform="matrix(25.002,0,0,-25.002,488.92564,92.466159)" fill="#595959"/>
<use data-text=" " xlink:href="../../slide-glyphs.svg#gcf063d903e53138433505876" transform="matrix(25.002,0,0,-25.002,496.2762,92.466159)" fill="#595959"/>
<use data-text="w" xlink:href="../../slide-glyphs.svg#g686fcb9ec837c7c45145b3c3" transform="matrix(25.002,0,0,-25.002,501.57664,92.466159)" fill="#595959"/>
<use data-text="i" xlink:href="../../slide-glyphs.svg#g361fa2e5d5cb423388d13334" transform="matrix(25.002,0,0,-25.002,523.20339,92.466159)" fill="#595959"/>
<use data-text="l" xlink:href="../../slide-glyphs.svg#g433c1758f1490a8d4e2dd4c5" transform="matrix(25.002,0,0,-25.002,530.55398,92.466159)" fill="#595959"/>
<use data-text="l" xlink:href="../../slide-glyphs.svg#g433c1758f1490a8d4e2dd4c5" transform="matrix(25.002,0,0,-25.002,537.92959,92.466159)" fill="#595959"/>
<use data-text="&#x2026;" xlink:href="../../slide-glyphs.svg#g7873e17070e106eb9105858d" transform="matrix(25.002,0,0,-25.002,545.3052,92.466159)" fill="#595959"/>
<path transform="matrix(1,0,0,-1,0,405.01417)" d="M293.329 298.205V298.205C293.329 299.338 293.613 300.444 294.18 301.408 294.746 302.371 295.569 303.194 296.532 303.76 297.496 304.327 298.602 304.611 299.735 304.611H420.208C421.342 304.611 422.447 304.327 423.411 303.76 424.375 303.194 425.197 302.371 425.764 301.408 426.331 300.444 426.614 299.338 426.614 298.205L426.643 293.187C426.643 292.053 426.359 290.948 425.792 289.984 425.225 289.02 424.403 288.198 423.439 287.631 422.476 287.064 421.37 286.781 420.236 286.781L299.735 286.753C298.602 286.753 297.496 287.036 296.532 287.603 295.569 288.17 294.746 288.992 294.18 289.956 293.613 290.92 293.329 292.025 293.329 293.159V298.205Z" fill="#d0e0e3" fill-rule="evenodd"/>
<g mask="url(#mask_67)">
<g transform="matrix(.23780556,0,0,.23780556,298.063,105.05216)">
<image id="image_69" width="36" height="36" xlink:href="../../slide-images/9f9dfbe1ac1de661d8608b797eb19f7729f4161e4c68460a4199bb721d8460eb.webp"/>
</g>
</g>
<use data-text="R" xlink:href="../../slide-glyphs.svg#gb9920cd142b568a1e0656057" transform="matrix(8.901,0,0,-8.901,311.159,112.73416)" fill="#44546a"/>
<use data-text="e" xlink:href="../../slide-glyphs.svg#g1a4ffdb63d36783b3691d45f" transform="matrix(8.901,0,0,-8.901,316.17915,112.73416)" fill="#44546a"/>
<use data-text="a" xlink:href="../../slide-glyphs.svg#gc3baa7bcc15ddd309f38b85d" transform="matrix(8.901,0,0,-8.901,321.2171,112.73416)" fill="#44546a"/>
<use data-text="d" xlink:href="../../slide-glyphs.svg#g0b7570e55935504d77fa55b8" transform="matrix(8.901,0,0,-8.901,326.09486,112.73416)" fill="#44546a"/>
<use data-text=" " xlink:href="../../slide-glyphs.svg#gcf063d903e53138433505876" transform="matrix(8.901,0,0,-8.901,331.62239,112.73416)" fill="#44546a"/>
<use data-text="a" xlink:href="../../slide-glyphs.svg#gc3baa7bcc15ddd309f38b85d" transform="matrix(8.901,0,0,-8.901,334.00785,112.73416)" fill="#44546a"/>
<use data-text="l" xlink:href="../../slide-glyphs.svg#g90b483f50457efc46db1028c" transform="matrix(8.901,0,0,-8.901,338.9123,112.73416)" fill="#44546a"/>
<use data-text="o" xlink:href="../../slide-glyphs.svg#gf36d3b880697c319a8526c67" transform="matrix(8.901,0,0,-8.901,340.92393,112.73416)" fill="#44546a"/>
<use data-text="u" xlink:href="../../slide-glyphs.svg#gb8a03b442f3d70cc9dbaebc3" transform="matrix(8.901,0,0,-8.901,346.2289,112.73416)" fill="#44546a"/>
<use data-text="d" xlink:href="../../slide-glyphs.svg#g0b7570e55935504d77fa55b8" transform="matrix(8.901,0,0,-8.901,351.32917,112.73416)" fill="#44546a"/>
<use data-text=" " xlink:href="../../slide-glyphs.svg#gcf063d903e53138433505876" transform="matrix(8.901,0,0,-8.901,356.8567,112.73416)" fill="#44546a"/>
<use data-text="w" xlink:href="../../slide-glyphs.svg#gb713e4215ae5adca1c8e8d63" transform="matrix(8.901,0,0,-8.901,359.24217,112.73416)" fill="#44546a"/>
<use data-text="i" xlink:href="../../slide-glyphs.svg#gdf51d9b50dacedb54242ba57" transform="matrix(8.901,0,0,-8.901,366.24723,112.73416)" fill="#44546a"/>
<use data-text="t" xlink:href="../../slide-glyphs.svg#g6ca18554b6abf1c05fc58564" transform="matrix(8.901,0,0,-8.901,368.39237,112.73416)" fill="#44546a"/>
<use data-text="h" xlink:href="../../slide-glyphs.svg#g170ca1ed09726214c1ff5bb4" transform="matrix(8.901,0,0,-8.901,371.98838,112.73416)" fill="#44546a"/>
<use data-text=" " xlink:href="../../slide-glyphs.svg#gcf063d903e53138433505876" transform="matrix(8.901,0,0,-8.901,377.15098,112.73416)" fill="#44546a"/>
<use data-text="a" xlink:href="../../slide-glyphs.svg#gc3baa7bcc15ddd309f38b85d" transform="matrix(8.901,0,0,-8.901,379.53645,112.73416)" fill="#44546a"/>
<use data-text=" " xlink:href="../../slide-glyphs.svg#gcf063d903e53138433505876" transform="matrix(8.901,0,0,-8.901,384.4409,112.73416)" fill="#44546a"/>
<use data-text="p" xlink:href="../../slide-glyphs.svg#g07900de701a16c36969239f4" transform="matrix(8.901,0,0,-8.901,386.82637,112.73416)" fill="#44546a"/>
<use data-text="a" xlink:href="../../slide-glyphs.svg#gc3baa7bcc15ddd309f38b85d" transform="matrix(8.901,0,0,-8.901,392.35386,112.73416)" fill="#44546a"/>
<use data-text="r" xlink:href="../../slide-glyphs.svg#gc4312100d2902ef9e7838689" transform="matrix(8.901,0,0,-8.901,397.2583,112.73416)" fill="#44546a"/>
<use data-text="t" xlink:href="../../slide-glyphs.svg#g6ca18554b6abf1c05fc58564" transform="matrix(8.901,0,0,-8.901,400.7208,112.73416)" fill="#44546a"/>
<use data-text="n" xlink:href="../../slide-glyphs.svg#gd43d70964668100fad9c45e6" transform="matrix(8.901,0,0,-8.901,404.3168,112.73416)" fill="#44546a"/>
<use data-text="e" xlink:href="../../slide-glyphs.svg#g1a4ffdb63d36783b3691d45f" transform="matrix(8.901,0,0,-8.901,409.4438,112.73416)" fill="#44546a"/>
<use data-text="r" xlink:href="../../slide-glyphs.svg#gc4312100d2902ef9e7838689" transform="matrix(8.901,0,0,-8.901,414.46397,112.73416)" fill="#44546a"/>
</g>
</g>
</svg>
