<svg xmlns="http://www.w3.org/2000/svg" xmlns:xlink="http://www.w3.org/1999/xlink" xmlns:inkscape="http://www.inkscape.org/namespaces/inkscape" version="1.1" width="100%" height="100%" viewBox="0 0 720 405.01417">
<defs>
<clipPath id="clip_1">
<path transform="matrix(1,0,0,-1,0,405.01417)" d="M0 .028H719.972V405.014H0Z" clip-rule="evenodd"/>
</clipPath>
<clipPath id="clip_2">
<path transform="matrix(1,0,0,-1,0,405.01417)" d="M2.126 8.107H720V404.277H2.126Z" clip-rule="evenodd"/>
</clipPath>
<clipPath id="clip_4">
<path transform="matrix(1,0,0,-1,0,405.01417)" d="M608.769 363.883H720V404.277H608.769Z" clip-rule="evenodd"/>
</clipPath>
<mask id="mask_5">
<g transform="matrix(.24055591,0,0,.24052239,608.769,-120.04782)">
<image id="image_6" width="1493" height="670" xlink:href="../../slide-images/5f4b04dff9992e4eaa34ee22b929af9ddfa816d05be877a5f7447f69f3b58c50.webp"/>
</g>
</mask>
<clipPath id="clip_8">
<path transform="matrix(1,0,0,-1,0,405.01417)" d="M2.126 8.107H720V404.277H2.126Z" clip-rule="evenodd"/>
</clipPath>
<clipPath id="clip_9">
<path transform="matrix(1,0,0,-1,0,405.01417)" d="M0 .028H719.972V405.014H0Z" clip-rule="evenodd"/>
</clipPath>
<mask id="mask_10">
<g transform="matrix(.084355678,0,0,.08430478,2.438,354.13319)">
<image id="image_11" width="1119" height="502" xlink:href="../../slide-images/d96b16b097210a5a22f05285aa068737b986ff759d293569d0e0c13c2714c480.webp"/>
</g>
</mask>
<clipPath id="clip_13">
<path transform="matrix(1,0,0,-1,0,405.01417)" d="M44.419 154.8H139.578V319.805H44.419Z" clip-rule="evenodd"/>
</clipPath>
<clipPath id="clip_14">
<path transform="matrix(1,0,0,-1,0,405.01417)" d="M15.279-88.923H644.74V540.766H15.279Z" clip-rule="evenodd"/>
</clipPath>
<mask id="mask_15">
<g transform="matrix(.5019402,0,0,.5021212,15.279,-135.77982)">
<image id="image_16" width="1254" height="1254" xlink:href="../../slide-images/dfebf24d7d5ef8a078288ee16cfce2e1f44e6685995bcf2ed4c24430ff4a3ec4.webp"/>
</g>
</mask>
<clipPath id="clip_18">
<path transform="matrix(1,0,0,-1,0,405.01417)" d="M0 .028H719.972V405.014H0Z" clip-rule="evenodd"/>
</clipPath>



























<clipPath id="clip_21">
<path transform="matrix(1,0,0,-1,0,405.01417)" d="M366.746 42.661H678.67V355.749H366.746Z" clip-rule="evenodd"/>
</clipPath>
<mask id="mask_22">
<g transform="matrix(.6250421,0,0,.6248663,366.746,49.23816)">
<image id="image_23" width="499" height="501" xlink:href="../../slide-images/37850f4d1e9085c05c2bed3680eaac891b04411e7fd55758dee47d0c24a113ac.webp"/>
</g>
</mask>
<clipPath id="clip_25">
<path transform="matrix(1,0,0,-1,0,405.01417)" d="M375.704 51.59H669.77V346.819H375.704Z" clip-rule="evenodd"/>
</clipPath>
<mask id="mask_26">
<g transform="matrix(.5892545,0,0,.5892216,375.704,58.167146)">
<image id="image_27" width="499" height="501" xlink:href="../../slide-images/f330b74c7b11a09931c67bbef22a5ac99f50e809ed1c96ee53c27b980858b82d.webp"/>
</g>
</mask>
<clipPath id="clip_29">
<path transform="matrix(1,0,0,-1,0,405.01417)" d="M398.466 76.223H647.008V325.815H398.466Z" clip-rule="evenodd"/>
</clipPath>
<mask id="mask_30">
<g transform="matrix(.49802206,0,0,.49812774,398.466,79.172168)">
<image id="image_31" width="499" height="501" xlink:href="../../slide-images/0c4b81d9e652842c2c9fb2a75d9aaabf6af4e26582d8b501db6d32337b9b8210.webp"/>
</g>
</mask>
<clipPath id="clip_33">
<path transform="matrix(1,0,0,-1,0,405.01417)" d="M402.973 202.535V202.535C402.973 223.645 408.506 244.384 419.017 262.665 429.527 280.947 444.644 296.129 462.848 306.684 481.052 317.239 501.702 322.795 522.723 322.795 543.743 322.795 564.393 317.239 582.598 306.684 600.802 296.129 615.919 280.947 626.429 262.665 636.939 244.384 642.472 223.645 642.472 202.535 642.472 181.425 636.939 160.687 626.429 142.406 615.919 124.124 600.802 108.942 582.598 98.387 564.393 87.832 543.743 82.276 522.723 82.276 501.702 82.276 481.052 87.832 462.848 98.387 444.644 108.942 429.527 124.124 419.017 142.406 408.506 160.687 402.973 181.425 402.973 202.535Z" clip-rule="evenodd"/>
</clipPath>
<clipPath id="clip_35">
<path transform="matrix(1,0,0,-1,0,405.01417)" d="M0 .028H719.972V405.014H0Z" clip-rule="evenodd"/>
</clipPath>











</defs>
<g>
<g clip-path="url(#clip_1)">
<path transform="matrix(1,0,0,-1,0,405.01417)" d="M0 405.014H719.972V.028H0V405.014Z" fill="#ffffff" fill-rule="evenodd"/>
<path transform="matrix(1,0,0,-1,0,405.01417)" d="M0 405.014H720V0H0V405.014Z" fill="#ffffff" fill-rule="evenodd"/>
</g>
<g clip-path="url(#clip_2)">
<g transform="matrix(.24535233,0,0,.24561271,2.126,354.38816)">
<image id="image_3" width="386" height="173" xlink:href="../../slide-images/a5dfbe3b1c77decd98f7fa6a1c02b06be3f484df9fe02fc64b38afbcd404b341.png"/>
</g>
</g>
<g clip-path="url(#clip_4)">
<g mask="url(#mask_5)">
<g transform="matrix(.24055591,0,0,.24052239,608.769,-120.04782)">
<image id="image_7" width="1493" height="670" xlink:href="../../slide-images/bde87fa0743e8526948c5ff77556360678338634ef8d9d5205f3b3b71dbc7a1b.webp"/>
</g>
</g>
</g>
<g clip-path="url(#clip_8)">
<g transform="matrix(.24535233,0,0,.24561271,2.126,354.38816)">
<use xlink:href="#image_3" x="0" y="0" width="386" height="173"/>
</g>
</g>
<g clip-path="url(#clip_9)">
<path transform="matrix(1,0,0,-1,0,405.01417)" d="M359.972 .057H-.028V405.042H719.943V.057H359.972Z" fill="#008080" fill-rule="evenodd"/>
<g mask="url(#mask_10)">
<g transform="matrix(.084355678,0,0,.08430478,2.438,354.13319)">
<image id="image_12" width="1119" height="502" xlink:href="../../slide-images/d990c35eecbb5d65152639701be8b68edef83f0aa7555a6c8c260b70077ad4d7.webp"/>
</g>
</g>
</g>
<g clip-path="url(#clip_13)">
<g opacity=".2">
<g clip-path="url(#clip_14)">
<g mask="url(#mask_15)">
<g transform="matrix(.5019402,0,0,.5021212,15.279,-135.77982)">
<image id="image_17" width="1254" height="1254" xlink:href="../../slide-images/a8189379d087e2bfc73e06e287bf75fb937c0e25667ab3d4b351735cf7bce269.webp"/>
</g>
</g>
</g>
</g>
</g>
<g clip-path="url(#clip_18)">
<use data-text="S" xlink:href="../../slide-glyphs.svg#g039f5edb7f6aa9ef181b21c2" transform="matrix(32.995,0,0,-32.995,71.773,206.41916)" fill="#ffffff"/>
<use data-text="e" xlink:href="../../slide-glyphs.svg#g7904a22cb9f26766a131de71" transform="matrix(32.995,0,0,-32.995,92.03193,206.41916)" fill="#ffffff"/>
<use data-text="e" xlink:href="../../slide-glyphs.svg#g7904a22cb9f26766a131de71" transform="matrix(32.995,0,0,-32.995,112.35685,206.41916)" fill="#ffffff"/>
<use data-text="i" xlink:href="../../slide-glyphs.svg#g361fa2e5d5cb423388d13334" transform="matrix(32.995,0,0,-32.995,132.68177,206.41916)" fill="#ffffff"/>
<use data-text="n" xlink:href="../../slide-glyphs.svg#g1fe7535e10f309dadab9703c" transform="matrix(32.995,0,0,-32.995,142.41529,206.41916)" fill="#ffffff"/>
<use data-text="g" xlink:href="../../slide-glyphs.svg#g5a08be4dfc15a195e649adbe" transform="matrix(32.995,0,0,-32.995,164.65392,206.41916)" fill="#ffffff"/>
<use data-text=" " xlink:href="../../slide-glyphs.svg#gcf063d903e53138433505876" transform="matrix(32.995,0,0,-32.995,187.05753,206.41916)" fill="#ffffff"/>
<use data-text="P" xlink:href="../../slide-glyphs.svg#g9c407d5dda95cf4e026e6787" transform="matrix(32.995,0,0,-32.995,71.773,246.01917)" fill="#ffffff"/>
<use data-text="r" xlink:href="../../slide-glyphs.svg#gc956b5707e4523252658e846" transform="matrix(32.995,0,0,-32.995,92.361888,246.01917)" fill="#ffffff"/>
<use data-text="o" xlink:href="../../slide-glyphs.svg#gf0012022ca61f3dcef9f6fba" transform="matrix(32.995,0,0,-32.995,106.48375,246.01917)" fill="#ffffff"/>
<use data-text="b" xlink:href="../../slide-glyphs.svg#g0558d91eccd328215320098d" transform="matrix(32.995,0,0,-32.995,127.501567,246.01917)" fill="#ffffff"/>
<use data-text="l" xlink:href="../../slide-glyphs.svg#g433c1758f1490a8d4e2dd4c5" transform="matrix(32.995,0,0,-32.995,149.90517,246.01917)" fill="#ffffff"/>
<use data-text="e" xlink:href="../../slide-glyphs.svg#g7904a22cb9f26766a131de71" transform="matrix(32.995,0,0,-32.995,159.63869,246.01917)" fill="#ffffff"/>
<use data-text="m" xlink:href="../../slide-glyphs.svg#g8775ff8a84e549b5c6e216c3" transform="matrix(32.995,0,0,-32.995,179.96361,246.01917)" fill="#ffffff"/>
<use data-text="s" xlink:href="../../slide-glyphs.svg#ge01381158566bf6a10cb546b" transform="matrix(32.995,0,0,-32.995,214.9053,246.01917)" fill="#ffffff"/>
<use data-text=" " xlink:href="../../slide-glyphs.svg#gcf063d903e53138433505876" transform="matrix(32.995,0,0,-32.995,233.28353,246.01917)" fill="#ffffff"/>
<use data-text="D" xlink:href="../../slide-glyphs.svg#g40c127cf72e9aaca37a3ea38" transform="matrix(32.995,0,0,-32.995,71.773,285.61918)" fill="#ffffff"/>
<use data-text="i" xlink:href="../../slide-glyphs.svg#g361fa2e5d5cb423388d13334" transform="matrix(32.995,0,0,-32.995,95.76037,285.61918)" fill="#ffffff"/>
<use data-text="f" xlink:href="../../slide-glyphs.svg#g6bf0d7db4d2bb16cebbfadc6" transform="matrix(32.995,0,0,-32.995,105.4939,285.61918)" fill="#ffffff"/>
<use data-text="f" xlink:href="../../slide-glyphs.svg#g6bf0d7db4d2bb16cebbfadc6" transform="matrix(32.995,0,0,-32.995,117.3721,285.61918)" fill="#ffffff"/>
<use data-text="e" xlink:href="../../slide-glyphs.svg#g7904a22cb9f26766a131de71" transform="matrix(32.995,0,0,-32.995,129.2503,285.61918)" fill="#ffffff"/>
<use data-text="r" xlink:href="../../slide-glyphs.svg#gc956b5707e4523252658e846" transform="matrix(32.995,0,0,-32.995,149.57523,285.61918)" fill="#ffffff"/>
<use data-text="e" xlink:href="../../slide-glyphs.svg#g7904a22cb9f26766a131de71" transform="matrix(32.995,0,0,-32.995,163.69709,285.61918)" fill="#ffffff"/>
<use data-text="n" xlink:href="../../slide-glyphs.svg#g1fe7535e10f309dadab9703c" transform="matrix(32.995,0,0,-32.995,184.022,285.61918)" fill="#ffffff"/>
<use data-text="t" xlink:href="../../slide-glyphs.svg#gf1c2ae3e105e985848ae4c08" transform="matrix(32.995,0,0,-32.995,206.26064,285.61918)" fill="#ffffff"/>
<use data-text="l" xlink:href="../../slide-glyphs.svg#g433c1758f1490a8d4e2dd4c5" transform="matrix(32.995,0,0,-32.995,219.62361,285.61918)" fill="#ffffff"/>
<use data-text="y" xlink:href="../../slide-glyphs.svg#g355d756a0a40018e2048a050" transform="matrix(32.995,0,0,-32.995,229.35713,285.61918)" fill="#ffffff"/>
<use data-text="S" xlink:href="../../slide-glyphs.svg#g039f5edb7f6aa9ef181b21c2" transform="matrix(13.011,0,0,-13.011,51.591,170.39116)" fill="#ffffff"/>
<use data-text="e" xlink:href="../../slide-glyphs.svg#g7904a22cb9f26766a131de71" transform="matrix(13.011,0,0,-13.011,59.566743,170.39116)" fill="#ffffff"/>
<use data-text="c" xlink:href="../../slide-glyphs.svg#g492d12d9c1fee562ebeef144" transform="matrix(13.011,0,0,-13.011,67.54249,170.39116)" fill="#ffffff"/>
<use data-text="t" xlink:href="../../slide-glyphs.svg#gf1c2ae3e105e985848ae4c08" transform="matrix(13.011,0,0,-13.011,75.40114,170.39116)" fill="#ffffff"/>
<use data-text="i" xlink:href="../../slide-glyphs.svg#g361fa2e5d5cb423388d13334" transform="matrix(13.011,0,0,-13.011,80.6836,170.39116)" fill="#ffffff"/>
<use data-text="o" xlink:href="../../slide-glyphs.svg#gf0012022ca61f3dcef9f6fba" transform="matrix(13.011,0,0,-13.011,84.48281,170.39116)" fill="#ffffff"/>
<use data-text="n" xlink:href="../../slide-glyphs.svg#g1fe7535e10f309dadab9703c" transform="matrix(13.011,0,0,-13.011,92.77082,170.39116)" fill="#ffffff"/>
<use data-text=" " xlink:href="../../slide-glyphs.svg#gcf063d903e53138433505876" transform="matrix(13.011,0,0,-13.011,101.51421,170.39116)" fill="#ffffff"/>
<use data-text="1" xlink:href="../../slide-glyphs.svg#gf732741455d73424f2fd7d25" transform="matrix(13.011,0,0,-13.011,104.272548,170.39116)" fill="#ffffff"/>
<use data-text=":" xlink:href="../../slide-glyphs.svg#g794b9930fc49fcdf4a9ffe70" transform="matrix(13.011,0,0,-13.011,109.15167,170.39116)" fill="#ffffff"/>
<path transform="matrix(1,0,0,-1,0,405.01417)" d="M55.928 119.48H51.732V222.491H60.123V119.48H55.928Z" fill="#ffffff" fill-rule="evenodd"/>
<g opacity=".13">
<g clip-path="url(#clip_21)">
<g mask="url(#mask_22)">
<g transform="matrix(.6250421,0,0,.6248663,366.746,49.23816)">
<image id="image_24" width="499" height="501" xlink:href="../../slide-images/ed77d1c128c0b5341279693b02abf0a827b9c596f6cf287b843c7eeff0451803.webp"/>
</g>
</g>
</g>
</g>
<path transform="matrix(1,0,0,-1,0,405.01417)" stroke-width="1.50234" stroke-linecap="butt" stroke-dasharray="6.00935,4.50701" stroke-linejoin="round" fill="none" stroke="#ffffff" d="M382.394 202.535V202.535C382.394 227.253 388.885 251.546 401.187 272.976 413.49 294.378 431.206 312.179 452.551 324.538 473.868 336.897 498.047 343.417 522.68 343.417 547.313 343.417 571.493 336.897 592.838 324.538 614.154 312.179 631.871 294.378 644.173 272.976 656.476 251.546 662.967 227.253 662.967 202.535 662.967 177.817 656.476 153.524 644.173 132.094 631.871 110.693 614.154 92.891 592.838 80.532 571.493 68.173 547.313 61.653 522.68 61.653 498.047 61.653 473.868 68.173 452.551 80.532 431.206 92.891 413.49 110.693 401.187 132.094 388.885 153.524 382.394 177.817 382.394 202.535Z"/>
<g opacity=".13">
<g clip-path="url(#clip_25)">
<g mask="url(#mask_26)">
<g transform="matrix(.5892545,0,0,.5892216,375.704,58.167146)">
<image id="image_28" width="499" height="501" xlink:href="../../slide-images/ed77d1c128c0b5341279693b02abf0a827b9c596f6cf287b843c7eeff0451803.webp"/>
</g>
</g>
</g>
</g>
<path transform="matrix(1,0,0,-1,0,405.01417)" d="M390.614 202.535V202.535C390.614 225.836 396.709 248.712 408.302 268.866 419.896 289.049 436.592 305.801 456.661 317.423 476.759 329.074 499.521 335.225 522.737 335.225 545.924 335.225 568.687 329.074 588.784 317.423 608.854 305.801 625.55 289.049 637.143 268.866 648.737 248.712 654.831 225.836 654.831 202.535 654.831 179.234 648.737 156.359 637.143 136.205 625.55 116.022 608.854 99.269 588.784 87.647 568.687 75.997 545.924 69.845 522.737 69.845 499.521 69.845 476.759 75.997 456.661 87.647 436.592 99.269 419.896 116.022 408.302 136.205 396.709 156.359 390.614 179.234 390.614 202.535Z" fill="#ffffff" fill-rule="evenodd"/>
<g opacity=".5">
<g clip-path="url(#clip_29)">
<g mask="url(#mask_30)">
<g transform="matrix(.49802206,0,0,.49812774,398.466,79.172168)">
<image id="image_32" width="499" height="501" xlink:href="../../slide-images/ed77d1c128c0b5341279693b02abf0a827b9c596f6cf287b843c7eeff0451803.webp"/>
</g>
</g>
</g>
</g>
</g>
<g clip-path="url(#clip_33)">
<g transform="matrix(.21419588,0,0,.21434134,402.973,82.20517)">
<image id="image_34" width="1118" height="1122" xlink:href="../../slide-images/a7e4e493bfce827f9cc8d1e5e885d70c985ce448bc45ce85784472ea3ebb062d.webp"/>
</g>
</g>
<g clip-path="url(#clip_35)">
<use data-text="S" xlink:href="../../slide-glyphs.svg#g792c0e10b639c80a715bada9" transform="matrix(7.994,0,0,-7.994,664.356,393.39216)" fill="#ffffff"/>
<use data-text="e" xlink:href="../../slide-glyphs.svg#gc6a71adbd58bdf50665a5d53" transform="matrix(7.994,0,0,-7.994,669.0485,393.39216)" fill="#ffffff"/>
<use data-text="c" xlink:href="../../slide-glyphs.svg#g4b938784b9423a370018e1da" transform="matrix(7.994,0,0,-7.994,674.0288,393.39216)" fill="#ffffff"/>
<use data-text="t" xlink:href="../../slide-glyphs.svg#g9b19800f0ae4535cc1e3259c" transform="matrix(7.994,0,0,-7.994,678.88919,393.39216)" fill="#ffffff"/>
<use data-text="i" xlink:href="../../slide-glyphs.svg#g8e0e59eaf01fdce6856fdd7b" transform="matrix(7.994,0,0,-7.994,681.79898,393.39216)" fill="#ffffff"/>
<use data-text="o" xlink:href="../../slide-glyphs.svg#gfa7b9d27c237c2bd4dd63759" transform="matrix(7.994,0,0,-7.994,683.7735,393.39216)" fill="#ffffff"/>
<use data-text="n" xlink:href="../../slide-glyphs.svg#g93ac8661b83ea790de63e786" transform="matrix(7.994,0,0,-7.994,688.92166,393.39216)" fill="#ffffff"/>
<use data-text=" " xlink:href="../../slide-glyphs.svg#gcf063d903e53138433505876" transform="matrix(7.994,0,0,-7.994,694.0378,393.39216)" fill="#ffffff"/>
<use data-text="1" xlink:href="../../slide-glyphs.svg#g46bbb18a30cfe3905368e7ce" transform="matrix(7.994,0,0,-7.994,696.1802,393.39216)" fill="#ffffff"/>
<use data-text="/" xlink:href="../../slide-glyphs.svg#ga16bc241da6b1212d05f4b49" transform="matrix(7.994,0,0,-7.994,698.7463,393.39216)" fill="#ffffff"/>
<use data-text="4" xlink:href="../../slide-glyphs.svg#g2b92bb29ab3471923ab04838" transform="matrix(7.994,0,0,-7.994,702.5594,393.39216)" fill="#ffffff"/>
</g>
</g>
</svg>
