<svg xmlns="http://www.w3.org/2000/svg" xmlns:xlink="http://www.w3.org/1999/xlink" xmlns:inkscape="http://www.inkscape.org/namespaces/inkscape" version="1.1" width="100%" height="100%" viewBox="0 0 720 405.01417">
<defs>
<clipPath id="clip_1">
<path transform="matrix(1,0,0,-1,0,405.01417)" d="M0 .028H719.972V405.014H0Z" clip-rule="evenodd"/>
</clipPath>
<clipPath id="clip_2">
<path transform="matrix(1,0,0,-1,0,405.01417)" d="M2.126 8.107H720V404.277H2.126Z" clip-rule="evenodd"/>
</clipPath>
<clipPath id="clip_4">
<path transform="matrix(1,0,0,-1,0,405.01417)" d="M608.769 363.883H720V404.277H608.769Z" clip-rule="evenodd"/>
</clipPath>
<mask id="mask_5">
<g transform="matrix(.24055591,0,0,.24052239,608.769,-120.04782)">
<image id="image_6" width="1493" height="670" xlink:href="../../slide-images/5f4b04dff9992e4eaa34ee22b929af9ddfa816d05be877a5f7447f69f3b58c50.webp"/>
</g>
</mask>
<clipPath id="clip_8">
<path transform="matrix(1,0,0,-1,0,405.01417)" d="M2.126 8.107H720V404.277H2.126Z" clip-rule="evenodd"/>
</clipPath>
<clipPath id="clip_9">
<path transform="matrix(1,0,0,-1,0,405.01417)" d="M0 .028H719.972V405.014H0Z" clip-rule="evenodd"/>
</clipPath>
<clipPath id="clip_10">
<path transform="matrix(1,0,0,-1,0,405.01417)" d="M0-75.005H720V405.015H0Z" clip-rule="evenodd"/>
</clipPath>


























<clipPath id="clip_14">
<path transform="matrix(1,0,0,-1,0,405.01417)" d="M80.702 141.704H228.444V289.447H80.702Z" clip-rule="evenodd"/>
</clipPath>
<mask id="mask_15">
<g transform="matrix(.295426,0,0,.295426,80.702,115.54115)">
<image id="image_16" width="500" height="500" xlink:href="../../slide-images/aeac84a78a6cbbfb58bab20302192808a5a50bb28c5a6af6a45891d4e04c0bad.webp"/>
</g>
</mask>
<clipPath id="clip_18">
<path transform="matrix(1,0,0,-1,0,405.01417)" d="M87.392 148.45H221.726V282.785H87.392Z" clip-rule="evenodd"/>
</clipPath>
<mask id="mask_19">
<g transform="matrix(.26861204,0,0,.26861204,87.392,122.20114)">
<image id="image_20" width="500" height="500" xlink:href="../../slide-images/4cbf8518e3ef649b2aec6e753a999fd8787570d6d1135ba8f56b58e0873e869b.webp"/>
</g>
</mask>
<clipPath id="clip_22">
<path transform="matrix(1,0,0,-1,0,405.01417)" d="M100.715 158.683H204.293V272.636H100.715Z" clip-rule="evenodd"/>
</clipPath>
<mask id="mask_23">
<g transform="matrix(.21595703,0,0,.21600293,100.715,83.19716)">
<image id="image_24" width="1536" height="1024" xlink:href="../../slide-images/a0e75f5e29e3260692112c2fec83bbb8c9e306beca39cae11a6f60313330f834.webp"/>
</g>
</mask>
<clipPath id="clip_26">
<path transform="matrix(1,0,0,-1,0,405.01417)" d="M0 .028H719.972V405.014H0Z" clip-rule="evenodd"/>
</clipPath>















<clipPath id="clip_28">
<path transform="matrix(1,0,0,-1,0,405.01417)" d="M277.965 141.704H425.707V289.447H277.965Z" clip-rule="evenodd"/>
</clipPath>
<mask id="mask_29">
<g transform="matrix(.295426,0,0,.295426,277.965,115.54115)">
<use xlink:href="#image_16" x="0" y="0" width="500" height="500"/>
</g>
</mask>
<clipPath id="clip_30">
<path transform="matrix(1,0,0,-1,0,405.01417)" d="M284.627 148.45H418.961V282.785H284.627Z" clip-rule="evenodd"/>
</clipPath>
<mask id="mask_31">
<g transform="matrix(.26861204,0,0,.26861204,284.627,122.20114)">
<use xlink:href="#image_20" x="0" y="0" width="500" height="500"/>
</g>
</mask>
<clipPath id="clip_32">
<path transform="matrix(1,0,0,-1,0,405.01417)" d="M292.762 166.309H409.408V280.26203H292.762Z" clip-rule="evenodd"/>
</clipPath>
<mask id="mask_33">
<g transform="matrix(.21595703,0,0,.21600293,180.142,75.57216)">
<use xlink:href="#image_24" x="0" y="0" width="1536" height="1024"/>
</g>
</mask>
<clipPath id="clip_34">
<path transform="matrix(1,0,0,-1,0,405.01417)" d="M0 .028H719.972V405.014H0Z" clip-rule="evenodd"/>
</clipPath>






<clipPath id="clip_35">
<path transform="matrix(1,0,0,-1,0,405.01417)" d="M475.2 141.704H622.942V289.447H475.2Z" clip-rule="evenodd"/>
</clipPath>
<mask id="mask_36">
<g transform="matrix(.295426,0,0,.295426,475.2,115.54115)">
<use xlink:href="#image_16" x="0" y="0" width="500" height="500"/>
</g>
</mask>
<clipPath id="clip_37">
<path transform="matrix(1,0,0,-1,0,405.01417)" d="M481.89 148.45H616.224V282.785H481.89Z" clip-rule="evenodd"/>
</clipPath>
<mask id="mask_38">
<g transform="matrix(.26861204,0,0,.26861204,481.89,122.20114)">
<use xlink:href="#image_20" x="0" y="0" width="500" height="500"/>
</g>
</mask>
<clipPath id="clip_39">
<path transform="matrix(1,0,0,-1,0,405.01417)" d="M504.85 164.693H612.59506V278.646H504.85Z" clip-rule="evenodd"/>
</clipPath>
<mask id="mask_40">
<g transform="matrix(.21599415,0,0,.21600293,276.123,77.188159)">
<use xlink:href="#image_24" x="0" y="0" width="1536" height="1024"/>
</g>
</mask>
<clipPath id="clip_41">
<path transform="matrix(1,0,0,-1,0,405.01417)" d="M0 .028H719.972V405.014H0Z" clip-rule="evenodd"/>
</clipPath>







</defs>
<g>
<g clip-path="url(#clip_1)">
<path transform="matrix(1,0,0,-1,0,405.01417)" d="M0 405.014H719.972V.028H0V405.014Z" fill="#ffffff" fill-rule="evenodd"/>
<path transform="matrix(1,0,0,-1,0,405.01417)" d="M0 405.014H720V0H0V405.014Z" fill="#ffffff" fill-rule="evenodd"/>
</g>
<g clip-path="url(#clip_2)">
<g transform="matrix(.24535233,0,0,.24561271,2.126,354.38816)">
<image id="image_3" width="386" height="173" xlink:href="../../slide-images/a5dfbe3b1c77decd98f7fa6a1c02b06be3f484df9fe02fc64b38afbcd404b341.png"/>
</g>
</g>
<g clip-path="url(#clip_4)">
<g mask="url(#mask_5)">
<g transform="matrix(.24055591,0,0,.24052239,608.769,-120.04782)">
<image id="image_7" width="1493" height="670" xlink:href="../../slide-images/bde87fa0743e8526948c5ff77556360678338634ef8d9d5205f3b3b71dbc7a1b.webp"/>
</g>
</g>
</g>
<g clip-path="url(#clip_8)">
<g transform="matrix(.24535233,0,0,.24561271,2.126,354.38816)">
<use xlink:href="#image_3" x="0" y="0" width="386" height="173"/>
</g>
</g>
<g clip-path="url(#clip_9)">
<g opacity=".2">
<g clip-path="url(#clip_10)">
<g transform="matrix(.46873177,0,0,.4687412,0,-.028839112)">
<image id="image_11" width="1536" height="1024" xlink:href="../../slide-images/0c250102d28dd705e5bd7c2d844fda1340ad719e76e2d976adcf88feea04e301.webp"/>
</g>
</g>
</g>
<use data-text="U" xlink:href="../../slide-glyphs.svg#geba3cc6606f254814d57e97e" transform="matrix(32.995,0,0,-32.995,201.43,45.723176)" fill="#434343"/>
<use data-text="s" xlink:href="../../slide-glyphs.svg#ge01381158566bf6a10cb546b" transform="matrix(32.995,0,0,-32.995,224.65848,45.723176)" fill="#434343"/>
<use data-text="e" xlink:href="../../slide-glyphs.svg#g7904a22cb9f26766a131de71" transform="matrix(32.995,0,0,-32.995,243.06969,45.723176)" fill="#434343"/>
<use data-text=" " xlink:href="../../slide-glyphs.svg#gcf063d903e53138433505876" transform="matrix(32.995,0,0,-32.995,263.3946,45.723176)" fill="#434343"/>
<use data-text="A" xlink:href="../../slide-glyphs.svg#gc62b7d444f70574efb6c49f4" transform="matrix(32.995,0,0,-32.995,270.38954,45.723176)" fill="#434343"/>
<use data-text="I" xlink:href="../../slide-glyphs.svg#g65276716038a81061ceca20b" transform="matrix(32.995,0,0,-32.995,294.70686,45.723176)" fill="#434343"/>
<use data-text=" " xlink:href="../../slide-glyphs.svg#gcf063d903e53138433505876" transform="matrix(32.995,0,0,-32.995,304.44038,45.723176)" fill="#434343"/>
<use data-text="R" xlink:href="../../slide-glyphs.svg#g013dd24e0f08626777127c13" transform="matrix(32.995,0,0,-32.995,311.471,45.723176)" fill="#257e6f"/>
<use data-text="e" xlink:href="../../slide-glyphs.svg#g7904a22cb9f26766a131de71" transform="matrix(32.995,0,0,-32.995,332.98374,45.723176)" fill="#257e6f"/>
<use data-text="s" xlink:href="../../slide-glyphs.svg#ge01381158566bf6a10cb546b" transform="matrix(32.995,0,0,-32.995,353.30867,45.723176)" fill="#257e6f"/>
<use data-text="p" xlink:href="../../slide-glyphs.svg#g1fab4a1e4c016453f2a140cf" transform="matrix(32.995,0,0,-32.995,371.6869,45.723176)" fill="#257e6f"/>
<use data-text="o" xlink:href="../../slide-glyphs.svg#gf0012022ca61f3dcef9f6fba" transform="matrix(32.995,0,0,-32.995,394.09049,45.723176)" fill="#257e6f"/>
<use data-text="n" xlink:href="../../slide-glyphs.svg#g1fe7535e10f309dadab9703c" transform="matrix(32.995,0,0,-32.995,415.1083,45.723176)" fill="#257e6f"/>
<use data-text="s" xlink:href="../../slide-glyphs.svg#ge01381158566bf6a10cb546b" transform="matrix(32.995,0,0,-32.995,437.34693,45.723176)" fill="#257e6f"/>
<use data-text="i" xlink:href="../../slide-glyphs.svg#g361fa2e5d5cb423388d13334" transform="matrix(32.995,0,0,-32.995,455.75816,45.723176)" fill="#257e6f"/>
<use data-text="b" xlink:href="../../slide-glyphs.svg#g0558d91eccd328215320098d" transform="matrix(32.995,0,0,-32.995,465.49168,45.723176)" fill="#257e6f"/>
<use data-text="l" xlink:href="../../slide-glyphs.svg#g433c1758f1490a8d4e2dd4c5" transform="matrix(32.995,0,0,-32.995,487.89527,45.723176)" fill="#257e6f"/>
<use data-text="y" xlink:href="../../slide-glyphs.svg#g355d756a0a40018e2048a050" transform="matrix(32.995,0,0,-32.995,497.62879,45.723176)" fill="#257e6f"/>
<use data-text="W" xlink:href="../../slide-glyphs.svg#gdea91a32f6e3b518dbf949af" transform="matrix(13.011,0,0,-13.011,312.917,73.134159)" fill="#434343"/>
<use data-text="h" xlink:href="../../slide-glyphs.svg#gc6975359facac4d79995056b" transform="matrix(13.011,0,0,-13.011,325.5767,73.134159)" fill="#434343"/>
<use data-text="e" xlink:href="../../slide-glyphs.svg#gc6a71adbd58bdf50665a5d53" transform="matrix(13.011,0,0,-13.011,333.8647,73.134159)" fill="#434343"/>
<use data-text="n" xlink:href="../../slide-glyphs.svg#g93ac8661b83ea790de63e786" transform="matrix(13.011,0,0,-13.011,341.91853,73.134159)" fill="#434343"/>
<use data-text=" " xlink:href="../../slide-glyphs.svg#gcf063d903e53138433505876" transform="matrix(13.011,0,0,-13.011,350.2065,73.134159)" fill="#434343"/>
<use data-text="u" xlink:href="../../slide-glyphs.svg#gade1b039987601e7ac87faa1" transform="matrix(13.011,0,0,-13.011,353.66746,73.134159)" fill="#434343"/>
<use data-text="s" xlink:href="../../slide-glyphs.svg#gd9347de58aa9ec8974b45d00" transform="matrix(13.011,0,0,-13.011,361.98149,73.134159)" fill="#434343"/>
<use data-text="i" xlink:href="../../slide-glyphs.svg#g8e0e59eaf01fdce6856fdd7b" transform="matrix(13.011,0,0,-13.011,368.76023,73.134159)" fill="#434343"/>
<use data-text="n" xlink:href="../../slide-glyphs.svg#g93ac8661b83ea790de63e786" transform="matrix(13.011,0,0,-13.011,371.9349,73.134159)" fill="#434343"/>
<use data-text="g" xlink:href="../../slide-glyphs.svg#g6696d950cec4358be3feaf10" transform="matrix(13.011,0,0,-13.011,380.24894,73.134159)" fill="#434343"/>
<use data-text=" " xlink:href="../../slide-glyphs.svg#gcf063d903e53138433505876" transform="matrix(13.011,0,0,-13.011,389.01835,73.134159)" fill="#434343"/>
<use data-text="A" xlink:href="../../slide-glyphs.svg#g9a4840dab41fea03696d23b7" transform="matrix(13.011,0,0,-13.011,392.47929,73.134159)" fill="#434343"/>
<use data-text="I" xlink:href="../../slide-glyphs.svg#g9f70215344a79c4a84bec64e" transform="matrix(13.011,0,0,-13.011,401.22267,73.134159)" fill="#434343"/>
<use data-text=":" xlink:href="../../slide-glyphs.svg#g707d32241048a46ca91a34b6" transform="matrix(13.011,0,0,-13.011,404.42338,73.134159)" fill="#434343"/>
<g opacity=".19">
<g clip-path="url(#clip_14)">
<g mask="url(#mask_15)">
<g transform="matrix(.295426,0,0,.295426,80.702,115.54115)">
<image id="image_17" width="500" height="500" xlink:href="../../slide-images/c4b7452c7c06ae497bf7e1e1158f940d717f24788baca49c023d8e68def99cbf.webp"/>
</g>
</g>
</g>
</g>
<path transform="matrix(1,0,0,-1,0,405.01417)" d="M84.954 217.02V217.02C84.954 229.238 88.157 241.228 94.28 251.83 100.375 262.403 109.162 271.19 119.764 277.313 130.337 283.408 142.328 286.611 154.573 286.611 166.791 286.611 178.781 283.408 189.354 277.313 199.956 271.19 208.743 262.403 214.838 251.83 220.961 241.228 224.164 229.238 224.164 217.02 224.164 204.803 220.961 192.812 214.838 182.211 208.743 171.638 199.956 162.85 189.354 156.727 178.781 150.633 166.791 147.401 154.573 147.401 142.328 147.401 130.337 150.633 119.764 156.727 109.162 162.85 100.375 171.638 94.28 182.211 88.157 192.812 84.954 204.803 84.954 217.02Z" fill="#c58541" fill-rule="evenodd"/>
<g opacity=".19">
<g clip-path="url(#clip_18)">
<g mask="url(#mask_19)">
<g transform="matrix(.26861204,0,0,.26861204,87.392,122.20114)">
<image id="image_21" width="500" height="500" xlink:href="../../slide-images/c4b7452c7c06ae497bf7e1e1158f940d717f24788baca49c023d8e68def99cbf.webp"/>
</g>
</g>
</g>
</g>
<path transform="matrix(1,0,0,-1,0,405.01417)" d="M91.644 217.049V217.049C91.644 228.104 94.564 238.932 100.063 248.485 105.591 258.066 113.528 266.003 123.08 271.531 132.661 277.03 143.49 279.949 154.545 279.949 165.6 279.949 176.428 277.03 185.981 271.531 195.562 266.003 203.499 258.066 209.027 248.513 214.526 238.932 217.446 228.104 217.446 217.049 217.446 205.994 214.526 195.165 209.027 185.584 203.499 176.031 195.562 168.094 186.009 162.567 176.428 157.068 165.6 154.148 154.545 154.148 143.49 154.148 132.661 157.068 123.109 162.567 113.528 168.094 105.591 176.031 100.063 185.584 94.564 195.165 91.644 205.994 91.644 217.049Z" fill="#ffffff" fill-rule="evenodd"/>
<path transform="matrix(1,0,0,-1,0,405.01417)" stroke-width=".737" stroke-linecap="butt" stroke-dasharray="2.94798,2.21099" stroke-linejoin="round" fill="none" stroke="#dea461" d="M96.18 217.049V217.049C96.18 227.282 98.872 237.345 104.003 246.217 109.106 255.09 116.476 262.46 125.348 267.562 134.22 272.693 144.283 275.386 154.517 275.386 164.75 275.386 174.813 272.693 183.685 267.562 192.557 262.46 199.928 255.09 205.03 246.217 210.161 237.345 212.854 227.282 212.854 217.049 212.854 206.816 210.161 196.753 205.03 187.88 199.928 179.008 192.557 171.638 183.685 166.535 174.813 161.405 164.75 158.712 154.517 158.712 144.283 158.712 134.22 161.405 125.348 166.535 116.476 171.638 109.106 179.008 104.003 187.88 98.872 196.753 96.18 206.816 96.18 217.049Z"/>
</g>
<g clip-path="url(#clip_22)">
<g mask="url(#mask_23)">
<g transform="matrix(.21595703,0,0,.21600293,100.715,83.19716)">
<image id="image_25" width="1536" height="1024" xlink:href="../../slide-images/8e9a97056a728c05473611f7de103998a93c4c516768bfc3849f7e8370290e79.webp"/>
</g>
</g>
</g>
<g clip-path="url(#clip_26)">
<use data-text="d" xlink:href="../../slide-glyphs.svg#g23f8bac688508a557b99ff65" transform="matrix(13.011,0,0,-13.011,90.68,294.06617)" fill="#c58541"/>
<use data-text="o" xlink:href="../../slide-glyphs.svg#gf0012022ca61f3dcef9f6fba" transform="matrix(13.011,0,0,-13.011,99.47543,294.06617)" fill="#c58541"/>
<use data-text="n" xlink:href="../../slide-glyphs.svg#g1fe7535e10f309dadab9703c" transform="matrix(13.011,0,0,-13.011,107.73742,294.06617)" fill="#c58541"/>
<use data-text="&#x2019;" xlink:href="../../slide-glyphs.svg#gb5e8c550dfd90a543a568cf1" transform="matrix(13.011,0,0,-13.011,116.48081,294.06617)" fill="#c58541"/>
<use data-text="t" xlink:href="../../slide-glyphs.svg#gf1c2ae3e105e985848ae4c08" transform="matrix(13.011,0,0,-13.011,120.56627,294.06617)" fill="#c58541"/>
<use data-text=" " xlink:href="../../slide-glyphs.svg#gcf063d903e53138433505876" transform="matrix(13.011,0,0,-13.011,125.84873,294.06617)" fill="#c58541"/>
<use data-text="c" xlink:href="../../slide-glyphs.svg#g492d12d9c1fee562ebeef144" transform="matrix(13.011,0,0,-13.011,128.56804,294.06617)" fill="#c58541"/>
<use data-text="o" xlink:href="../../slide-glyphs.svg#gf0012022ca61f3dcef9f6fba" transform="matrix(13.011,0,0,-13.011,136.42668,294.06617)" fill="#c58541"/>
<use data-text="p" xlink:href="../../slide-glyphs.svg#g1fab4a1e4c016453f2a140cf" transform="matrix(13.011,0,0,-13.011,144.68868,294.06617)" fill="#c58541"/>
<use data-text="y" xlink:href="../../slide-glyphs.svg#g355d756a0a40018e2048a050" transform="matrix(13.011,0,0,-13.011,153.51013,294.06617)" fill="#c58541"/>
<use data-text=" " xlink:href="../../slide-glyphs.svg#gcf063d903e53138433505876" transform="matrix(13.011,0,0,-13.011,161.70706,294.06617)" fill="#c58541"/>
<use data-text="a" xlink:href="../../slide-glyphs.svg#g5e754424ed3390eb8229e33f" transform="matrix(13.011,0,0,-13.011,164.381,294.06617)" fill="#555555"/>
<use data-text="n" xlink:href="../../slide-glyphs.svg#g93ac8661b83ea790de63e786" transform="matrix(13.011,0,0,-13.011,173.15042,294.06617)" fill="#555555"/>
<use data-text="s" xlink:href="../../slide-glyphs.svg#gd9347de58aa9ec8974b45d00" transform="matrix(13.011,0,0,-13.011,181.43843,294.06617)" fill="#555555"/>
<use data-text="w" xlink:href="../../slide-glyphs.svg#g1cbf4f9b3221c5b5fd47ec65" transform="matrix(13.011,0,0,-13.011,188.21717,294.06617)" fill="#555555"/>
<use data-text="e" xlink:href="../../slide-glyphs.svg#gc6a71adbd58bdf50665a5d53" transform="matrix(13.011,0,0,-13.011,198.86017,294.06617)" fill="#555555"/>
<use data-text="r" xlink:href="../../slide-glyphs.svg#g883ab16e553a277842b99550" transform="matrix(13.011,0,0,-13.011,206.88796,294.06617)" fill="#555555"/>
<use data-text="s" xlink:href="../../slide-glyphs.svg#gd9347de58aa9ec8974b45d00" transform="matrix(13.011,0,0,-13.011,211.74106,294.06617)" fill="#555555"/>
<use data-text=" " xlink:href="../../slide-glyphs.svg#gcf063d903e53138433505876" transform="matrix(13.011,0,0,-13.011,218.49378,294.06617)" fill="#555555"/>
<use data-text="w" xlink:href="../../slide-glyphs.svg#g1cbf4f9b3221c5b5fd47ec65" transform="matrix(13.011,0,0,-13.011,80.901,312.00917)" fill="#555555"/>
<use data-text="i" xlink:href="../../slide-glyphs.svg#g8e0e59eaf01fdce6856fdd7b" transform="matrix(13.011,0,0,-13.011,91.517978,312.00917)" fill="#555555"/>
<use data-text="t" xlink:href="../../slide-glyphs.svg#g9b19800f0ae4535cc1e3259c" transform="matrix(13.011,0,0,-13.011,94.71868,312.00917)" fill="#555555"/>
<use data-text="h" xlink:href="../../slide-glyphs.svg#gc6975359facac4d79995056b" transform="matrix(13.011,0,0,-13.011,99.428668,312.00917)" fill="#555555"/>
<use data-text="o" xlink:href="../../slide-glyphs.svg#gfa7b9d27c237c2bd4dd63759" transform="matrix(13.011,0,0,-13.011,107.7427,312.00917)" fill="#555555"/>
<use data-text="u" xlink:href="../../slide-glyphs.svg#gade1b039987601e7ac87faa1" transform="matrix(13.011,0,0,-13.011,116.05673,312.00917)" fill="#555555"/>
<use data-text="t" xlink:href="../../slide-glyphs.svg#g9b19800f0ae4535cc1e3259c" transform="matrix(13.011,0,0,-13.011,124.34474,312.00917)" fill="#555555"/>
<use data-text=" " xlink:href="../../slide-glyphs.svg#gcf063d903e53138433505876" transform="matrix(13.011,0,0,-13.011,129.08075,312.00917)" fill="#555555"/>
<use data-text="u" xlink:href="../../slide-glyphs.svg#gade1b039987601e7ac87faa1" transform="matrix(13.011,0,0,-13.011,132.54167,312.00917)" fill="#555555"/>
<use data-text="n" xlink:href="../../slide-glyphs.svg#g93ac8661b83ea790de63e786" transform="matrix(13.011,0,0,-13.011,140.82968,312.00917)" fill="#555555"/>
<use data-text="d" xlink:href="../../slide-glyphs.svg#gd9856f3cbe7d188435070e63" transform="matrix(13.011,0,0,-13.011,149.1437,312.00917)" fill="#555555"/>
<use data-text="e" xlink:href="../../slide-glyphs.svg#gc6a71adbd58bdf50665a5d53" transform="matrix(13.011,0,0,-13.011,157.91313,312.00917)" fill="#555555"/>
<use data-text="r" xlink:href="../../slide-glyphs.svg#g883ab16e553a277842b99550" transform="matrix(13.011,0,0,-13.011,165.94092,312.00917)" fill="#555555"/>
<use data-text="s" xlink:href="../../slide-glyphs.svg#gd9347de58aa9ec8974b45d00" transform="matrix(13.011,0,0,-13.011,170.79402,312.00917)" fill="#555555"/>
<use data-text="t" xlink:href="../../slide-glyphs.svg#g9b19800f0ae4535cc1e3259c" transform="matrix(13.011,0,0,-13.011,177.57276,312.00917)" fill="#555555"/>
<use data-text="a" xlink:href="../../slide-glyphs.svg#g5e754424ed3390eb8229e33f" transform="matrix(13.011,0,0,-13.011,182.28275,312.00917)" fill="#555555"/>
<use data-text="n" xlink:href="../../slide-glyphs.svg#g93ac8661b83ea790de63e786" transform="matrix(13.011,0,0,-13.011,191.05217,312.00917)" fill="#555555"/>
<use data-text="d" xlink:href="../../slide-glyphs.svg#gd9856f3cbe7d188435070e63" transform="matrix(13.011,0,0,-13.011,199.3662,312.00917)" fill="#555555"/>
<use data-text="i" xlink:href="../../slide-glyphs.svg#g8e0e59eaf01fdce6856fdd7b" transform="matrix(13.011,0,0,-13.011,208.13562,312.00917)" fill="#555555"/>
<use data-text="n" xlink:href="../../slide-glyphs.svg#g93ac8661b83ea790de63e786" transform="matrix(13.011,0,0,-13.011,211.3103,312.00917)" fill="#555555"/>
<use data-text="g" xlink:href="../../slide-glyphs.svg#g6696d950cec4358be3feaf10" transform="matrix(13.011,0,0,-13.011,219.62433,312.00917)" fill="#555555"/>
<g opacity=".19">
<g clip-path="url(#clip_28)">
<g mask="url(#mask_29)">
<g transform="matrix(.295426,0,0,.295426,277.965,115.54115)">
<use xlink:href="#image_17" x="0" y="0" width="500" height="500"/>
</g>
</g>
</g>
</g>
<path transform="matrix(1,0,0,-1,0,405.01417)" d="M282.217 217.02V217.02C282.217 229.238 285.42 241.228 291.543 251.83 297.638 262.403 306.425 271.19 317.027 277.313 327.6 283.408 339.591 286.611 351.836 286.611 364.054 286.611 376.044 283.408 386.617 277.313 397.219 271.19 406.006 262.403 412.101 251.83 418.224 241.228 421.427 229.238 421.427 217.02 421.427 204.803 418.224 192.812 412.101 182.211 406.006 171.638 397.219 162.85 386.617 156.727 376.044 150.633 364.054 147.401 351.836 147.401 339.591 147.401 327.6 150.633 317.027 156.727 306.425 162.85 297.638 171.638 291.543 182.211 285.42 192.812 282.217 204.803 282.217 217.02Z" fill="#c58541" fill-rule="evenodd"/>
<g opacity=".19">
<g clip-path="url(#clip_30)">
<g mask="url(#mask_31)">
<g transform="matrix(.26861204,0,0,.26861204,284.627,122.20114)">
<use xlink:href="#image_21" x="0" y="0" width="500" height="500"/>
</g>
</g>
</g>
</g>
<path transform="matrix(1,0,0,-1,0,405.01417)" d="M288.879 217.049V217.049C288.879 228.104 291.798 238.932 297.298 248.485 302.825 258.066 310.762 266.003 320.343 271.531 329.896 277.03 340.724 279.949 351.78 279.949 362.835 279.949 373.663 277.03 383.216 271.531 392.797 266.003 400.734 258.066 406.261 248.513 411.761 238.932 414.68 228.104 414.68 217.049 414.68 205.994 411.761 195.165 406.261 185.584 400.734 176.031 392.797 168.094 383.244 162.567 373.663 157.068 362.835 154.148 351.78 154.148 340.724 154.148 329.896 157.068 320.343 162.567 310.762 168.094 302.825 176.031 297.298 185.584 291.798 195.165 288.879 205.994 288.879 217.049Z" fill="#ffffff" fill-rule="evenodd"/>
<path transform="matrix(1,0,0,-1,0,405.01417)" stroke-width=".737" stroke-linecap="butt" stroke-dasharray="2.94798,2.21099" stroke-linejoin="round" fill="none" stroke="#dea461" d="M293.443 217.049V217.049C293.443 227.282 296.135 237.345 301.266 246.217 306.369 255.09 313.739 262.46 322.611 267.562 331.483 272.693 341.546 275.386 351.78 275.386 362.013 275.386 372.076 272.693 380.948 267.562 389.82 262.46 397.191 255.09 402.293 246.217 407.424 237.345 410.117 227.282 410.117 217.049 410.117 206.816 407.424 196.753 402.293 187.88 397.191 179.008 389.82 171.638 380.948 166.535 372.076 161.405 362.013 158.712 351.78 158.712 341.546 158.712 331.483 161.405 322.611 166.535 313.739 171.638 306.369 179.008 301.266 187.88 296.135 196.753 293.443 206.816 293.443 217.049Z"/>
</g>
<g clip-path="url(#clip_32)">
<g mask="url(#mask_33)">
<g transform="matrix(.21595703,0,0,.21600293,180.142,75.57216)">
<use xlink:href="#image_25" x="0" y="0" width="1536" height="1024"/>
</g>
</g>
</g>
<g clip-path="url(#clip_34)">
<use data-text="d" xlink:href="../../slide-glyphs.svg#g23f8bac688508a557b99ff65" transform="matrix(13.011,0,0,-13.011,292.337,296.78718)" fill="#c58541"/>
<use data-text="o" xlink:href="../../slide-glyphs.svg#gf0012022ca61f3dcef9f6fba" transform="matrix(13.011,0,0,-13.011,301.13246,296.78718)" fill="#c58541"/>
<use data-text="n" xlink:href="../../slide-glyphs.svg#g1fe7535e10f309dadab9703c" transform="matrix(13.011,0,0,-13.011,309.3944,296.78718)" fill="#c58541"/>
<use data-text="&#x2019;" xlink:href="../../slide-glyphs.svg#gb5e8c550dfd90a543a568cf1" transform="matrix(13.011,0,0,-13.011,318.1378,296.78718)" fill="#c58541"/>
<use data-text="t" xlink:href="../../slide-glyphs.svg#gf1c2ae3e105e985848ae4c08" transform="matrix(13.011,0,0,-13.011,322.22325,296.78718)" fill="#c58541"/>
<use data-text=" " xlink:href="../../slide-glyphs.svg#gcf063d903e53138433505876" transform="matrix(13.011,0,0,-13.011,327.5057,296.78718)" fill="#c58541"/>
<use data-text="r" xlink:href="../../slide-glyphs.svg#gc956b5707e4523252658e846" transform="matrix(13.011,0,0,-13.011,330.225,296.78718)" fill="#c58541"/>
<use data-text="e" xlink:href="../../slide-glyphs.svg#g7904a22cb9f26766a131de71" transform="matrix(13.011,0,0,-13.011,335.7807,296.78718)" fill="#c58541"/>
<use data-text="l" xlink:href="../../slide-glyphs.svg#g433c1758f1490a8d4e2dd4c5" transform="matrix(13.011,0,0,-13.011,343.78248,296.78718)" fill="#c58541"/>
<use data-text="y" xlink:href="../../slide-glyphs.svg#g355d756a0a40018e2048a050" transform="matrix(13.011,0,0,-13.011,347.60774,296.78718)" fill="#c58541"/>
<use data-text=" " xlink:href="../../slide-glyphs.svg#gcf063d903e53138433505876" transform="matrix(13.011,0,0,-13.011,355.80467,296.78718)" fill="#c58541"/>
<use data-text="o" xlink:href="../../slide-glyphs.svg#gfa7b9d27c237c2bd4dd63759" transform="matrix(13.011,0,0,-13.011,358.498,296.78718)" fill="#434343"/>
<use data-text="n" xlink:href="../../slide-glyphs.svg#g93ac8661b83ea790de63e786" transform="matrix(13.011,0,0,-13.011,366.78599,296.78718)" fill="#434343"/>
<use data-text=" " xlink:href="../../slide-glyphs.svg#gcf063d903e53138433505876" transform="matrix(13.011,0,0,-13.011,375.1,296.78718)" fill="#434343"/>
<use data-text="A" xlink:href="../../slide-glyphs.svg#g9a4840dab41fea03696d23b7" transform="matrix(13.011,0,0,-13.011,378.56095,296.78718)" fill="#434343"/>
<use data-text="I" xlink:href="../../slide-glyphs.svg#g9f70215344a79c4a84bec64e" transform="matrix(13.011,0,0,-13.011,387.30433,296.78718)" fill="#434343"/>
<use data-text=" " xlink:href="../../slide-glyphs.svg#gcf063d903e53138433505876" transform="matrix(13.011,0,0,-13.011,390.479,296.78718)" fill="#434343"/>
<use data-text="f" xlink:href="../../slide-glyphs.svg#g1e38420ceaf505fe5cb6461f" transform="matrix(13.011,0,0,-13.011,393.93995,296.78718)" fill="#434343"/>
<use data-text="o" xlink:href="../../slide-glyphs.svg#gfa7b9d27c237c2bd4dd63759" transform="matrix(13.011,0,0,-13.011,398.22056,296.78718)" fill="#434343"/>
<use data-text="r" xlink:href="../../slide-glyphs.svg#g883ab16e553a277842b99550" transform="matrix(13.011,0,0,-13.011,406.53459,296.78718)" fill="#434343"/>
<use data-text=" " xlink:href="../../slide-glyphs.svg#gcf063d903e53138433505876" transform="matrix(13.011,0,0,-13.011,411.36164,296.78718)" fill="#434343"/>
<use data-text="e" xlink:href="../../slide-glyphs.svg#gc6a71adbd58bdf50665a5d53" transform="matrix(13.011,0,0,-13.011,317.452,314.73118)" fill="#434343"/>
<use data-text="v" xlink:href="../../slide-glyphs.svg#gb3a049d8fba366fe7038c9d2" transform="matrix(13.011,0,0,-13.011,325.4798,314.73118)" fill="#434343"/>
<use data-text="e" xlink:href="../../slide-glyphs.svg#gc6a71adbd58bdf50665a5d53" transform="matrix(13.011,0,0,-13.011,332.73994,314.73118)" fill="#434343"/>
<use data-text="r" xlink:href="../../slide-glyphs.svg#g883ab16e553a277842b99550" transform="matrix(13.011,0,0,-13.011,340.79377,314.73118)" fill="#434343"/>
<use data-text="y" xlink:href="../../slide-glyphs.svg#g66c0ccef391f82855d3393ee" transform="matrix(13.011,0,0,-13.011,345.62083,314.73118)" fill="#434343"/>
<use data-text="t" xlink:href="../../slide-glyphs.svg#g9b19800f0ae4535cc1e3259c" transform="matrix(13.011,0,0,-13.011,352.946,314.73118)" fill="#434343"/>
<use data-text="h" xlink:href="../../slide-glyphs.svg#gc6975359facac4d79995056b" transform="matrix(13.011,0,0,-13.011,357.65599,314.73118)" fill="#434343"/>
<use data-text="i" xlink:href="../../slide-glyphs.svg#g8e0e59eaf01fdce6856fdd7b" transform="matrix(13.011,0,0,-13.011,365.97,314.73118)" fill="#434343"/>
<use data-text="n" xlink:href="../../slide-glyphs.svg#g93ac8661b83ea790de63e786" transform="matrix(13.011,0,0,-13.011,369.14469,314.73118)" fill="#434343"/>
<use data-text="g" xlink:href="../../slide-glyphs.svg#g6696d950cec4358be3feaf10" transform="matrix(13.011,0,0,-13.011,377.4587,314.73118)" fill="#434343"/>
<g opacity=".19">
<g clip-path="url(#clip_35)">
<g mask="url(#mask_36)">
<g transform="matrix(.295426,0,0,.295426,475.2,115.54115)">
<use xlink:href="#image_17" x="0" y="0" width="500" height="500"/>
</g>
</g>
</g>
</g>
<path transform="matrix(1,0,0,-1,0,405.01417)" d="M479.452 217.02V217.02C479.452 229.238 482.655 241.228 488.778 251.83 494.872 262.403 503.66 271.19 514.261 277.313 524.835 283.408 536.825 286.611 549.071 286.611 561.288 286.611 573.279 283.408 583.852 277.313 594.454 271.19 603.241 262.403 609.335 251.83 615.458 241.228 618.661 229.238 618.661 217.02 618.661 204.803 615.458 192.812 609.335 182.211 603.241 171.638 594.454 162.85 583.852 156.727 573.279 150.633 561.288 147.401 549.071 147.401 536.825 147.401 524.835 150.633 514.261 156.727 503.66 162.85 494.872 171.638 488.778 182.211 482.655 192.812 479.452 204.803 479.452 217.02Z" fill="#c58541" fill-rule="evenodd"/>
<g opacity=".19">
<g clip-path="url(#clip_37)">
<g mask="url(#mask_38)">
<g transform="matrix(.26861204,0,0,.26861204,481.89,122.20114)">
<use xlink:href="#image_21" x="0" y="0" width="500" height="500"/>
</g>
</g>
</g>
</g>
<path transform="matrix(1,0,0,-1,0,405.01417)" d="M486.142 217.049V217.049C486.142 228.104 489.061 238.932 494.561 248.485 500.088 258.066 508.025 266.003 517.606 271.531 527.159 277.03 537.987 279.949 549.043 279.949 560.098 279.949 570.926 277.03 580.507 271.531 590.06 266.003 597.997 258.066 603.524 248.513 609.024 238.932 611.943 228.104 611.943 217.049 611.943 205.994 609.024 195.165 603.524 185.584 597.997 176.031 590.06 168.094 580.507 162.567 570.926 157.068 560.098 154.148 549.043 154.148 537.987 154.148 527.159 157.068 517.606 162.567 508.025 168.094 500.088 176.031 494.561 185.584 489.061 195.165 486.142 205.994 486.142 217.049Z" fill="#ffffff" fill-rule="evenodd"/>
<path transform="matrix(1,0,0,-1,0,405.01417)" stroke-width=".737" stroke-linecap="butt" stroke-dasharray="2.94798,2.21099" stroke-linejoin="round" fill="none" stroke="#dea461" d="M490.706 217.049V217.049C490.706 227.282 493.398 237.345 498.529 246.217 503.631 255.09 511.002 262.46 519.874 267.562 528.746 272.693 538.809 275.386 549.043 275.386 559.276 275.386 569.339 272.693 578.211 267.562 587.083 262.46 594.454 255.09 599.556 246.217 604.687 237.345 607.38 227.282 607.38 217.049 607.38 206.816 604.687 196.753 599.556 187.88 594.454 179.008 587.083 171.638 578.211 166.535 569.339 161.405 559.276 158.712 549.043 158.712 538.809 158.712 528.746 161.405 519.874 166.535 511.002 171.638 503.631 179.008 498.529 187.88 493.398 196.753 490.706 206.816 490.706 217.049Z"/>
</g>
<g clip-path="url(#clip_39)">
<g mask="url(#mask_40)">
<g transform="matrix(.21599415,0,0,.21600293,276.123,77.188159)">
<use xlink:href="#image_25" x="0" y="0" width="1536" height="1024"/>
</g>
</g>
</g>
<g clip-path="url(#clip_41)">
<use data-text="a" xlink:href="../../slide-glyphs.svg#g1f8595787daa354f34958516" transform="matrix(13.011,0,0,-13.011,486.142,294.06617)" fill="#c58541"/>
<use data-text="l" xlink:href="../../slide-glyphs.svg#g433c1758f1490a8d4e2dd4c5" transform="matrix(13.011,0,0,-13.011,494.93745,294.06617)" fill="#c58541"/>
<use data-text="w" xlink:href="../../slide-glyphs.svg#g686fcb9ec837c7c45145b3c3" transform="matrix(13.011,0,0,-13.011,498.7627,294.06617)" fill="#c58541"/>
<use data-text="a" xlink:href="../../slide-glyphs.svg#g1f8595787daa354f34958516" transform="matrix(13.011,0,0,-13.011,509.99119,294.06617)" fill="#c58541"/>
<use data-text="y" xlink:href="../../slide-glyphs.svg#g355d756a0a40018e2048a050" transform="matrix(13.011,0,0,-13.011,518.78659,294.06617)" fill="#c58541"/>
<use data-text="s" xlink:href="../../slide-glyphs.svg#ge01381158566bf6a10cb546b" transform="matrix(13.011,0,0,-13.011,526.9835,294.06617)" fill="#c58541"/>
<use data-text=" " xlink:href="../../slide-glyphs.svg#gcf063d903e53138433505876" transform="matrix(13.011,0,0,-13.011,534.21768,294.06617)" fill="#c58541"/>
<use data-text="c" xlink:href="../../slide-glyphs.svg#g492d12d9c1fee562ebeef144" transform="matrix(13.011,0,0,-13.011,536.976,294.06617)" fill="#c58541"/>
<use data-text="h" xlink:href="../../slide-glyphs.svg#gf4cc69dc70c245b58f09a694" transform="matrix(13.011,0,0,-13.011,544.83468,294.06617)" fill="#c58541"/>
<use data-text="e" xlink:href="../../slide-glyphs.svg#g7904a22cb9f26766a131de71" transform="matrix(13.011,0,0,-13.011,553.57809,294.06617)" fill="#c58541"/>
<use data-text="c" xlink:href="../../slide-glyphs.svg#g492d12d9c1fee562ebeef144" transform="matrix(13.011,0,0,-13.011,561.57986,294.06617)" fill="#c58541"/>
<use data-text="k" xlink:href="../../slide-glyphs.svg#g244830644bed25f459e7c601" transform="matrix(13.011,0,0,-13.011,569.4124,294.06617)" fill="#c58541"/>
<use data-text=" " xlink:href="../../slide-glyphs.svg#gcf063d903e53138433505876" transform="matrix(13.011,0,0,-13.011,577.4402,294.06617)" fill="#c58541"/>
<use data-text="i" xlink:href="../../slide-glyphs.svg#g8e0e59eaf01fdce6856fdd7b" transform="matrix(13.011,0,0,-13.011,580.11,294.06617)" fill="#434343"/>
<use data-text="f" xlink:href="../../slide-glyphs.svg#g1e38420ceaf505fe5cb6461f" transform="matrix(13.011,0,0,-13.011,583.28469,294.06617)" fill="#434343"/>
<use data-text=" " xlink:href="../../slide-glyphs.svg#gcf063d903e53138433505876" transform="matrix(13.011,0,0,-13.011,587.5393,294.06617)" fill="#434343"/>
<use data-text="t" xlink:href="../../slide-glyphs.svg#g9b19800f0ae4535cc1e3259c" transform="matrix(13.011,0,0,-13.011,591.00027,294.06617)" fill="#434343"/>
<use data-text="h" xlink:href="../../slide-glyphs.svg#gc6975359facac4d79995056b" transform="matrix(13.011,0,0,-13.011,595.73629,294.06617)" fill="#434343"/>
<use data-text="e" xlink:href="../../slide-glyphs.svg#gc6a71adbd58bdf50665a5d53" transform="matrix(13.011,0,0,-13.011,604.02426,294.06617)" fill="#434343"/>
<use data-text=" " xlink:href="../../slide-glyphs.svg#gcf063d903e53138433505876" transform="matrix(13.011,0,0,-13.011,612.07809,294.06617)" fill="#434343"/>
<use data-text="a" xlink:href="../../slide-glyphs.svg#g5e754424ed3390eb8229e33f" transform="matrix(13.011,0,0,-13.011,481.238,312.00917)" fill="#434343"/>
<use data-text="n" xlink:href="../../slide-glyphs.svg#g93ac8661b83ea790de63e786" transform="matrix(13.011,0,0,-13.011,490.00743,312.00917)" fill="#434343"/>
<use data-text="s" xlink:href="../../slide-glyphs.svg#gd9347de58aa9ec8974b45d00" transform="matrix(13.011,0,0,-13.011,498.2954,312.00917)" fill="#434343"/>
<use data-text="w" xlink:href="../../slide-glyphs.svg#g1cbf4f9b3221c5b5fd47ec65" transform="matrix(13.011,0,0,-13.011,505.07417,312.00917)" fill="#434343"/>
<use data-text="e" xlink:href="../../slide-glyphs.svg#gc6a71adbd58bdf50665a5d53" transform="matrix(13.011,0,0,-13.011,515.71719,312.00917)" fill="#434343"/>
<use data-text="r" xlink:href="../../slide-glyphs.svg#g883ab16e553a277842b99550" transform="matrix(13.011,0,0,-13.011,523.74496,312.00917)" fill="#434343"/>
<use data-text=" " xlink:href="../../slide-glyphs.svg#gcf063d903e53138433505876" transform="matrix(13.011,0,0,-13.011,528.598,312.00917)" fill="#434343"/>
<use data-text="m" xlink:href="../../slide-glyphs.svg#g1e86662feb6287ca4dc71062" transform="matrix(13.011,0,0,-13.011,532.05899,312.00917)" fill="#434343"/>
<use data-text="a" xlink:href="../../slide-glyphs.svg#g5e754424ed3390eb8229e33f" transform="matrix(13.011,0,0,-13.011,545.4212,312.00917)" fill="#434343"/>
<use data-text="k" xlink:href="../../slide-glyphs.svg#g7a965e1a3757b7549ceebdd3" transform="matrix(13.011,0,0,-13.011,554.1906,312.00917)" fill="#434343"/>
<use data-text="e" xlink:href="../../slide-glyphs.svg#gc6a71adbd58bdf50665a5d53" transform="matrix(13.011,0,0,-13.011,560.85226,312.00917)" fill="#434343"/>
<use data-text="s" xlink:href="../../slide-glyphs.svg#gd9347de58aa9ec8974b45d00" transform="matrix(13.011,0,0,-13.011,568.90609,312.00917)" fill="#434343"/>
<use data-text=" " xlink:href="../../slide-glyphs.svg#gcf063d903e53138433505876" transform="matrix(13.011,0,0,-13.011,575.65878,312.00917)" fill="#434343"/>
<use data-text="s" xlink:href="../../slide-glyphs.svg#gd9347de58aa9ec8974b45d00" transform="matrix(13.011,0,0,-13.011,579.1197,312.00917)" fill="#434343"/>
<use data-text="e" xlink:href="../../slide-glyphs.svg#gc6a71adbd58bdf50665a5d53" transform="matrix(13.011,0,0,-13.011,585.89846,312.00917)" fill="#434343"/>
<use data-text="n" xlink:href="../../slide-glyphs.svg#g93ac8661b83ea790de63e786" transform="matrix(13.011,0,0,-13.011,593.9523,312.00917)" fill="#434343"/>
<use data-text="s" xlink:href="../../slide-glyphs.svg#gd9347de58aa9ec8974b45d00" transform="matrix(13.011,0,0,-13.011,602.24026,312.00917)" fill="#434343"/>
<use data-text="e" xlink:href="../../slide-glyphs.svg#gc6a71adbd58bdf50665a5d53" transform="matrix(13.011,0,0,-13.011,609.019,312.00917)" fill="#434343"/>
</g>
</g>
</svg>
