<svg xmlns="http://www.w3.org/2000/svg" xmlns:xlink="http://www.w3.org/1999/xlink" xmlns:inkscape="http://www.inkscape.org/namespaces/inkscape" version="1.1" width="100%" height="100%" viewBox="0 0 720 405.01417">
<defs>
<clipPath id="clip_1">
<path transform="matrix(1,0,0,-1,0,405.01417)" d="M0 .028H719.972V405.014H0Z" clip-rule="evenodd"/>
</clipPath>
<clipPath id="clip_2">
<path transform="matrix(1,0,0,-1,0,405.01417)" d="M2.126 8.107H720V404.277H2.126Z" clip-rule="evenodd"/>
</clipPath>
<clipPath id="clip_4">
<path transform="matrix(1,0,0,-1,0,405.01417)" d="M608.769 363.883H720V404.277H608.769Z" clip-rule="evenodd"/>
</clipPath>
<mask id="mask_5">
<g transform="matrix(.24055591,0,0,.24052239,608.769,-120.04782)">
<image id="image_6" width="1493" height="670" xlink:href="../../slide-images/5f4b04dff9992e4eaa34ee22b929af9ddfa816d05be877a5f7447f69f3b58c50.webp"/>
</g>
</mask>
<clipPath id="clip_8">
<path transform="matrix(1,0,0,-1,0,405.01417)" d="M2.126 8.107H720V404.277H2.126Z" clip-rule="evenodd"/>
</clipPath>
<clipPath id="clip_9">
<path transform="matrix(1,0,0,-1,0,405.01417)" d="M0 .028H719.972V405.014H0Z" clip-rule="evenodd"/>
</clipPath>































<clipPath id="clip_12">
<path transform="matrix(1,0,0,-1,0,405.01417)" d="M200.239 173.253H357.448V319.21H200.239Z" clip-rule="evenodd"/>
</clipPath>
<mask id="mask_13">
<g transform="matrix(.30285359,0,0,.30275519,200.239,85.77617)">
<image id="image_14" width="519" height="482" xlink:href="../../slide-images/35c2711a480f2a1d507d2af362314cfb0b3561621823886da3162a86d1d8a54e.webp"/>
</g>
</mask>



























<clipPath id="clip_18">
<path transform="matrix(1,0,0,-1,0,405.01417)" d="M236.041 239.443H321.647V310.479H236.041Z" clip-rule="evenodd"/>
</clipPath>
<mask id="mask_19">
<g transform="matrix(.16051889,0,0,.16052832,206.504,88.69617)">
<image id="image_20" width="1536" height="1024" xlink:href="../../slide-images/73c26c7308735ca7269aad791ed58d37cf589d7cb2bc8adadeb5904838e0785d.webp"/>
</g>
</mask>
<clipPath id="clip_22">
<path transform="matrix(1,0,0,-1,0,405.01417)" d="M0 .028H719.972V405.014H0Z" clip-rule="evenodd"/>
</clipPath>
<clipPath id="clip_23">
<path transform="matrix(1,0,0,-1,0,405.01417)" d="M361.077 173.253H518.286V319.21H361.077Z" clip-rule="evenodd"/>
</clipPath>
<mask id="mask_24">
<g transform="matrix(.30285359,0,0,.30275519,361.077,85.77617)">
<use xlink:href="#image_14" x="0" y="0" width="519" height="482"/>
</g>
</mask>







<clipPath id="clip_25">
<path transform="matrix(1,0,0,-1,0,405.01417)" d="M396.879 239.443H482.485V310.479H396.879Z" clip-rule="evenodd"/>
</clipPath>
<mask id="mask_26">
<g transform="matrix(.16050066,0,0,.16052832,271.587,88.69617)">
<use xlink:href="#image_20" x="0" y="0" width="1536" height="1024"/>
</g>
</mask>
<clipPath id="clip_27">
<path transform="matrix(1,0,0,-1,0,405.01417)" d="M0 .028H719.972V405.014H0Z" clip-rule="evenodd"/>
</clipPath>
<clipPath id="clip_28">
<path transform="matrix(1,0,0,-1,0,405.01417)" d="M200.239 25.994H357.448V171.951H200.239Z" clip-rule="evenodd"/>
</clipPath>
<mask id="mask_29">
<g transform="matrix(.30285359,0,0,.30275519,200.239,233.03618)">
<use xlink:href="#image_14" x="0" y="0" width="519" height="482"/>
</g>
</mask>






<clipPath id="clip_30">
<path transform="matrix(1,0,0,-1,0,405.01417)" d="M236.041 90.283H321.647V161.319H236.041Z" clip-rule="evenodd"/>
</clipPath>
<mask id="mask_31">
<g transform="matrix(.16050066,0,0,.16052832,209.509,161.17815)">
<use xlink:href="#image_20" x="0" y="0" width="1536" height="1024"/>
</g>
</mask>
<clipPath id="clip_32">
<path transform="matrix(1,0,0,-1,0,405.01417)" d="M0 .028H719.972V405.014H0Z" clip-rule="evenodd"/>
</clipPath>
<clipPath id="clip_33">
<path transform="matrix(1,0,0,-1,0,405.01417)" d="M361.077 25.994H518.286V171.951H361.077Z" clip-rule="evenodd"/>
</clipPath>
<mask id="mask_34">
<g transform="matrix(.30285359,0,0,.30275519,361.077,233.03618)">
<use xlink:href="#image_14" x="0" y="0" width="519" height="482"/>
</g>
</mask>







<clipPath id="clip_35">
<path transform="matrix(1,0,0,-1,0,405.01417)" d="M396.879 90.283H482.485V161.319H396.879Z" clip-rule="evenodd"/>
</clipPath>
<mask id="mask_36">
<g transform="matrix(.16050066,0,0,.16052832,265.181,161.17815)">
<use xlink:href="#image_20" x="0" y="0" width="1536" height="1024"/>
</g>
</mask>
</defs>
<g>
<g clip-path="url(#clip_1)">
<path transform="matrix(1,0,0,-1,0,405.01417)" d="M0 405.014H719.972V.028H0V405.014Z" fill="#ffffff" fill-rule="evenodd"/>
<path transform="matrix(1,0,0,-1,0,405.01417)" d="M0 405.014H720V0H0V405.014Z" fill="#ffffff" fill-rule="evenodd"/>
</g>
<g clip-path="url(#clip_2)">
<g transform="matrix(.24535233,0,0,.24561271,2.126,354.38816)">
<image id="image_3" width="386" height="173" xlink:href="../../slide-images/a5dfbe3b1c77decd98f7fa6a1c02b06be3f484df9fe02fc64b38afbcd404b341.png"/>
</g>
</g>
<g clip-path="url(#clip_4)">
<g mask="url(#mask_5)">
<g transform="matrix(.24055591,0,0,.24052239,608.769,-120.04782)">
<image id="image_7" width="1493" height="670" xlink:href="../../slide-images/bde87fa0743e8526948c5ff77556360678338634ef8d9d5205f3b3b71dbc7a1b.webp"/>
</g>
</g>
</g>
<g clip-path="url(#clip_8)">
<g transform="matrix(.24535233,0,0,.24561271,2.126,354.38816)">
<use xlink:href="#image_3" x="0" y="0" width="386" height="173"/>
</g>
</g>
<g clip-path="url(#clip_9)">
<path transform="matrix(1,0,0,-1,0,405.01417)" d="M360.539 147.6H.539V199.389H720.51V147.6H360.539Z" fill="#e7e6e6" fill-rule="evenodd"/>
<path transform="matrix(1,0,0,-1,0,405.01417)" d="M360.539 75.486H168.576V271.559H552.501V75.486H360.539Z" fill="#e7e6e6" fill-rule="evenodd"/>
<path transform="matrix(1,0,0,-1,0,405.01417)" d="M359.972 90.964H183.515V256.082H536.4V90.964H359.972Z" fill="#ffffff" fill-rule="evenodd"/>
<use data-text="W" xlink:href="../../slide-glyphs.svg#gef8efccbb4ae146afcc7242d" transform="matrix(28.998,0,0,-28.998,159.052,48.699159)" fill="#434343"/>
<use data-text="h" xlink:href="../../slide-glyphs.svg#gf4cc69dc70c245b58f09a694" transform="matrix(28.998,0,0,-28.998,189.55789,48.699159)" fill="#434343"/>
<use data-text="a" xlink:href="../../slide-glyphs.svg#g1f8595787daa354f34958516" transform="matrix(28.998,0,0,-28.998,209.10254,48.699159)" fill="#434343"/>
<use data-text="t" xlink:href="../../slide-glyphs.svg#gf1c2ae3e105e985848ae4c08" transform="matrix(28.998,0,0,-28.998,228.79218,48.699159)" fill="#434343"/>
<use data-text=" " xlink:href="../../slide-glyphs.svg#gcf063d903e53138433505876" transform="matrix(28.998,0,0,-28.998,240.56537,48.699159)" fill="#434343"/>
<use data-text="Y" xlink:href="../../slide-glyphs.svg#g227cbb477d923c2bc76927aa" transform="matrix(28.998,0,0,-28.998,246.71295,48.699159)" fill="#434343"/>
<use data-text="o" xlink:href="../../slide-glyphs.svg#gf0012022ca61f3dcef9f6fba" transform="matrix(28.998,0,0,-28.998,266.1706,48.699159)" fill="#434343"/>
<use data-text="u" xlink:href="../../slide-glyphs.svg#g96f8a52e5a84e4796fb6a016" transform="matrix(28.998,0,0,-28.998,284.64234,48.699159)" fill="#434343"/>
<use data-text=" " xlink:href="../../slide-glyphs.svg#gcf063d903e53138433505876" transform="matrix(28.998,0,0,-28.998,304.18699,48.699159)" fill="#434343"/>
<use data-text="H" xlink:href="../../slide-glyphs.svg#g1b110a6e72d31ce4c7db8ae3" transform="matrix(28.998,0,0,-28.998,310.33457,48.699159)" fill="#434343"/>
<use data-text="a" xlink:href="../../slide-glyphs.svg#g1f8595787daa354f34958516" transform="matrix(28.998,0,0,-28.998,331.5321,48.699159)" fill="#434343"/>
<use data-text="v" xlink:href="../../slide-glyphs.svg#ge62991170c03a47e79e66791" transform="matrix(28.998,0,0,-28.998,351.22175,48.699159)" fill="#434343"/>
<use data-text="e" xlink:href="../../slide-glyphs.svg#g7904a22cb9f26766a131de71" transform="matrix(28.998,0,0,-28.998,369.37449,48.699159)" fill="#434343"/>
<use data-text=" " xlink:href="../../slide-glyphs.svg#gcf063d903e53138433505876" transform="matrix(28.998,0,0,-28.998,387.23725,48.699159)" fill="#434343"/>
<use data-text="B" xlink:href="../../slide-glyphs.svg#g971afeb2daf15417bd6588f2" transform="matrix(28.998,0,0,-28.998,393.732,48.699159)" fill="#257e6f"/>
<use data-text="u" xlink:href="../../slide-glyphs.svg#g96f8a52e5a84e4796fb6a016" transform="matrix(28.998,0,0,-28.998,412.84169,48.699159)" fill="#257e6f"/>
<use data-text="i" xlink:href="../../slide-glyphs.svg#g361fa2e5d5cb423388d13334" transform="matrix(28.998,0,0,-28.998,432.38633,48.699159)" fill="#257e6f"/>
<use data-text="l" xlink:href="../../slide-glyphs.svg#g433c1758f1490a8d4e2dd4c5" transform="matrix(28.998,0,0,-28.998,440.94075,48.699159)" fill="#257e6f"/>
<use data-text="t" xlink:href="../../slide-glyphs.svg#gf1c2ae3e105e985848ae4c08" transform="matrix(28.998,0,0,-28.998,449.49516,48.699159)" fill="#257e6f"/>
<use data-text=" " xlink:href="../../slide-glyphs.svg#gcf063d903e53138433505876" transform="matrix(28.998,0,0,-28.998,461.26835,48.699159)" fill="#257e6f"/>
<use data-text="T" xlink:href="../../slide-glyphs.svg#g70fd98040520852e249e6a44" transform="matrix(28.998,0,0,-28.998,467.41593,48.699159)" fill="#257e6f"/>
<use data-text="o" xlink:href="../../slide-glyphs.svg#gf0012022ca61f3dcef9f6fba" transform="matrix(28.998,0,0,-28.998,484.55375,48.699159)" fill="#257e6f"/>
<use data-text="d" xlink:href="../../slide-glyphs.svg#g23f8bac688508a557b99ff65" transform="matrix(28.998,0,0,-28.998,503.02546,48.699159)" fill="#257e6f"/>
<use data-text="a" xlink:href="../../slide-glyphs.svg#g1f8595787daa354f34958516" transform="matrix(28.998,0,0,-28.998,522.7151,48.699159)" fill="#257e6f"/>
<use data-text="y" xlink:href="../../slide-glyphs.svg#g355d756a0a40018e2048a050" transform="matrix(28.998,0,0,-28.998,542.4047,48.699159)" fill="#257e6f"/>
<use data-text="W" xlink:href="../../slide-glyphs.svg#gdea91a32f6e3b518dbf949af" transform="matrix(13.011,0,0,-13.011,293.584,73.78616)" fill="#434343"/>
<use data-text="h" xlink:href="../../slide-glyphs.svg#gc6975359facac4d79995056b" transform="matrix(13.011,0,0,-13.011,306.2437,73.78616)" fill="#434343"/>
<use data-text="a" xlink:href="../../slide-glyphs.svg#g5e754424ed3390eb8229e33f" transform="matrix(13.011,0,0,-13.011,314.5317,73.78616)" fill="#434343"/>
<use data-text="t" xlink:href="../../slide-glyphs.svg#g9b19800f0ae4535cc1e3259c" transform="matrix(13.011,0,0,-13.011,323.30113,73.78616)" fill="#434343"/>
<use data-text=" " xlink:href="../../slide-glyphs.svg#gcf063d903e53138433505876" transform="matrix(13.011,0,0,-13.011,328.0371,73.78616)" fill="#434343"/>
<use data-text="Y" xlink:href="../../slide-glyphs.svg#g75c72b5d58e72be1fdc84fed" transform="matrix(13.011,0,0,-13.011,331.49806,73.78616)" fill="#434343"/>
<use data-text="o" xlink:href="../../slide-glyphs.svg#gfa7b9d27c237c2bd4dd63759" transform="matrix(13.011,0,0,-13.011,339.07044,73.78616)" fill="#434343"/>
<use data-text="u" xlink:href="../../slide-glyphs.svg#gade1b039987601e7ac87faa1" transform="matrix(13.011,0,0,-13.011,347.38447,73.78616)" fill="#434343"/>
<use data-text=" " xlink:href="../../slide-glyphs.svg#gcf063d903e53138433505876" transform="matrix(13.011,0,0,-13.011,355.67247,73.78616)" fill="#434343"/>
<use data-text="N" xlink:href="../../slide-glyphs.svg#gdc98dd458f36ec2ae8fb352a" transform="matrix(13.011,0,0,-13.011,359.1334,73.78616)" fill="#434343"/>
<use data-text="o" xlink:href="../../slide-glyphs.svg#gfa7b9d27c237c2bd4dd63759" transform="matrix(13.011,0,0,-13.011,368.26713,73.78616)" fill="#434343"/>
<use data-text="w" xlink:href="../../slide-glyphs.svg#g1cbf4f9b3221c5b5fd47ec65" transform="matrix(13.011,0,0,-13.011,376.5551,73.78616)" fill="#434343"/>
<use data-text=" " xlink:href="../../slide-glyphs.svg#gcf063d903e53138433505876" transform="matrix(13.011,0,0,-13.011,387.1981,73.78616)" fill="#434343"/>
<use data-text="H" xlink:href="../../slide-glyphs.svg#g5aa9bfc17b07956d1bed50ad" transform="matrix(13.011,0,0,-13.011,390.65904,73.78616)" fill="#434343"/>
<use data-text="a" xlink:href="../../slide-glyphs.svg#g5e754424ed3390eb8229e33f" transform="matrix(13.011,0,0,-13.011,399.64964,73.78616)" fill="#434343"/>
<use data-text="v" xlink:href="../../slide-glyphs.svg#gb3a049d8fba366fe7038c9d2" transform="matrix(13.011,0,0,-13.011,408.41905,73.78616)" fill="#434343"/>
<use data-text="e" xlink:href="../../slide-glyphs.svg#gc6a71adbd58bdf50665a5d53" transform="matrix(13.011,0,0,-13.011,415.67918,73.78616)" fill="#434343"/>
<use data-text=":" xlink:href="../../slide-glyphs.svg#g707d32241048a46ca91a34b6" transform="matrix(13.011,0,0,-13.011,423.733,73.78616)" fill="#434343"/>
<g opacity=".19">
<g clip-path="url(#clip_12)">
<g mask="url(#mask_13)">
<g transform="matrix(.30285359,0,0,.30275519,200.239,85.77617)">
<image id="image_15" width="519" height="482" xlink:href="../../slide-images/53ea774a0a2fa2f6671c394e94108c748ee1135d08341ab42ec7365a705f2157.webp"/>
</g>
</g>
</g>
</g>
<path transform="matrix(1,0,0,-1,0,405.01417)" d="M278.844 178.696H204.293V316.516H353.367V178.696H278.844Z" fill="#ffffff" fill-rule="evenodd"/>
<path transform="matrix(1,0,0,-1,0,405.01417)" d="M278.844 184.649H210.728V310.592H346.961V184.649H278.844Z" fill="#ffffff" fill-rule="evenodd"/>
<path transform="matrix(1,0,0,-1,0,405.01417)" stroke-width=".6803" stroke-linecap="butt" stroke-dasharray="2.72122,2.04091" stroke-linejoin="round" fill="none" stroke="#cccccc" d="M278.844 184.649H210.728V310.592H346.961V184.649H278.844Z"/>
<use data-text="A" xlink:href="../../slide-glyphs.svg#gc62b7d444f70574efb6c49f4" transform="matrix(9.298,0,0,-9.298,243.921,185.69817)" fill="#434343"/>
<use data-text=" " xlink:href="../../slide-glyphs.svg#gcf063d903e53138433505876" transform="matrix(9.298,0,0,-9.298,250.72714,185.69817)" fill="#434343"/>
<use data-text="r" xlink:href="../../slide-glyphs.svg#gc956b5707e4523252658e846" transform="matrix(9.298,0,0,-9.298,252.67972,185.69817)" fill="#434343"/>
<use data-text="e" xlink:href="../../slide-glyphs.svg#g7904a22cb9f26766a131de71" transform="matrix(9.298,0,0,-9.298,256.62208,185.69817)" fill="#434343"/>
<use data-text="a" xlink:href="../../slide-glyphs.svg#g1f8595787daa354f34958516" transform="matrix(9.298,0,0,-9.298,262.32176,185.69817)" fill="#434343"/>
<use data-text="l" xlink:href="../../slide-glyphs.svg#g433c1758f1490a8d4e2dd4c5" transform="matrix(9.298,0,0,-9.298,268.58863,185.69817)" fill="#434343"/>
<use data-text=" " xlink:href="../../slide-glyphs.svg#gcf063d903e53138433505876" transform="matrix(9.298,0,0,-9.298,271.33155,185.69817)" fill="#434343"/>
<use data-text="p" xlink:href="../../slide-glyphs.svg#g1fab4a1e4c016453f2a140cf" transform="matrix(9.298,0,0,-9.298,273.28416,185.69817)" fill="#434343"/>
<use data-text="r" xlink:href="../../slide-glyphs.svg#gc956b5707e4523252658e846" transform="matrix(9.298,0,0,-9.298,279.55104,185.69817)" fill="#434343"/>
<use data-text="o" xlink:href="../../slide-glyphs.svg#gf0012022ca61f3dcef9f6fba" transform="matrix(9.298,0,0,-9.298,283.52128,185.69817)" fill="#434343"/>
<use data-text="b" xlink:href="../../slide-glyphs.svg#g0558d91eccd328215320098d" transform="matrix(9.298,0,0,-9.298,289.3883,185.69817)" fill="#434343"/>
<use data-text="l" xlink:href="../../slide-glyphs.svg#g433c1758f1490a8d4e2dd4c5" transform="matrix(9.298,0,0,-9.298,295.68309,185.69817)" fill="#434343"/>
<use data-text="e" xlink:href="../../slide-glyphs.svg#g7904a22cb9f26766a131de71" transform="matrix(9.298,0,0,-9.298,298.4074,185.69817)" fill="#434343"/>
<use data-text="m" xlink:href="../../slide-glyphs.svg#g8775ff8a84e549b5c6e216c3" transform="matrix(9.298,0,0,-9.298,304.1071,185.69817)" fill="#434343"/>
<use data-text="S" xlink:href="../../slide-glyphs.svg#g792c0e10b639c80a715bada9" transform="matrix(9.298,0,0,-9.298,243.071,196.86617)" fill="#434343"/>
<use data-text="o" xlink:href="../../slide-glyphs.svg#gfa7b9d27c237c2bd4dd63759" transform="matrix(9.298,0,0,-9.298,248.48244,196.86617)" fill="#434343"/>
<use data-text="m" xlink:href="../../slide-glyphs.svg#g1e86662feb6287ca4dc71062" transform="matrix(9.298,0,0,-9.298,254.37737,196.86617)" fill="#434343"/>
<use data-text="e" xlink:href="../../slide-glyphs.svg#gc6a71adbd58bdf50665a5d53" transform="matrix(9.298,0,0,-9.298,263.89854,196.86617)" fill="#434343"/>
<use data-text="t" xlink:href="../../slide-glyphs.svg#g9b19800f0ae4535cc1e3259c" transform="matrix(9.298,0,0,-9.298,269.6261,196.86617)" fill="#434343"/>
<use data-text="h" xlink:href="../../slide-glyphs.svg#gc6975359facac4d79995056b" transform="matrix(9.298,0,0,-9.298,273.00126,196.86617)" fill="#434343"/>
<use data-text="i" xlink:href="../../slide-glyphs.svg#g8e0e59eaf01fdce6856fdd7b" transform="matrix(9.298,0,0,-9.298,278.92408,196.86617)" fill="#434343"/>
<use data-text="n" xlink:href="../../slide-glyphs.svg#g93ac8661b83ea790de63e786" transform="matrix(9.298,0,0,-9.298,281.1928,196.86617)" fill="#434343"/>
<use data-text="g" xlink:href="../../slide-glyphs.svg#g6696d950cec4358be3feaf10" transform="matrix(9.298,0,0,-9.298,287.08775,196.86617)" fill="#434343"/>
<use data-text=" " xlink:href="../../slide-glyphs.svg#gcf063d903e53138433505876" transform="matrix(9.298,0,0,-9.298,293.3546,196.86617)" fill="#434343"/>
<use data-text="t" xlink:href="../../slide-glyphs.svg#g9b19800f0ae4535cc1e3259c" transform="matrix(9.298,0,0,-9.298,295.8186,196.86617)" fill="#434343"/>
<use data-text="h" xlink:href="../../slide-glyphs.svg#gc6975359facac4d79995056b" transform="matrix(9.298,0,0,-9.298,299.16587,196.86617)" fill="#434343"/>
<use data-text="a" xlink:href="../../slide-glyphs.svg#g5e754424ed3390eb8229e33f" transform="matrix(9.298,0,0,-9.298,305.08869,196.86617)" fill="#434343"/>
<use data-text="t" xlink:href="../../slide-glyphs.svg#g9b19800f0ae4535cc1e3259c" transform="matrix(9.298,0,0,-9.298,311.32768,196.86617)" fill="#434343"/>
<use data-text=" " xlink:href="../../slide-glyphs.svg#gcf063d903e53138433505876" transform="matrix(9.298,0,0,-9.298,314.70283,196.86617)" fill="#434343"/>
<use data-text="a" xlink:href="../../slide-glyphs.svg#g5e754424ed3390eb8229e33f" transform="matrix(9.298,0,0,-9.298,238.535,208.03516)" fill="#434343"/>
<use data-text="c" xlink:href="../../slide-glyphs.svg#g4b938784b9423a370018e1da" transform="matrix(9.298,0,0,-9.298,244.77396,208.03516)" fill="#434343"/>
<use data-text="t" xlink:href="../../slide-glyphs.svg#g9b19800f0ae4535cc1e3259c" transform="matrix(9.298,0,0,-9.298,250.38996,208.03516)" fill="#434343"/>
<use data-text="u" xlink:href="../../slide-glyphs.svg#gade1b039987601e7ac87faa1" transform="matrix(9.298,0,0,-9.298,253.73725,208.03516)" fill="#434343"/>
<use data-text="a" xlink:href="../../slide-glyphs.svg#g5e754424ed3390eb8229e33f" transform="matrix(9.298,0,0,-9.298,259.66007,208.03516)" fill="#434343"/>
<use data-text="l" xlink:href="../../slide-glyphs.svg#g494fa3dd8d13521d7b366687" transform="matrix(9.298,0,0,-9.298,265.89906,208.03516)" fill="#434343"/>
<use data-text="l" xlink:href="../../slide-glyphs.svg#g494fa3dd8d13521d7b366687" transform="matrix(9.298,0,0,-9.298,268.18638,208.03516)" fill="#434343"/>
<use data-text="y" xlink:href="../../slide-glyphs.svg#g66c0ccef391f82855d3393ee" transform="matrix(9.298,0,0,-9.298,270.4551,208.03516)" fill="#434343"/>
<use data-text=" " xlink:href="../../slide-glyphs.svg#gcf063d903e53138433505876" transform="matrix(9.298,0,0,-9.298,275.6434,208.03516)" fill="#434343"/>
<use data-text="h" xlink:href="../../slide-glyphs.svg#gc6975359facac4d79995056b" transform="matrix(9.298,0,0,-9.298,278.1074,208.03516)" fill="#434343"/>
<use data-text="a" xlink:href="../../slide-glyphs.svg#g5e754424ed3390eb8229e33f" transform="matrix(9.298,0,0,-9.298,284.0302,208.03516)" fill="#434343"/>
<use data-text="p" xlink:href="../../slide-glyphs.svg#g7ba995096087d31a75c36c62" transform="matrix(9.298,0,0,-9.298,290.2692,208.03516)" fill="#434343"/>
<use data-text="p" xlink:href="../../slide-glyphs.svg#g7ba995096087d31a75c36c62" transform="matrix(9.298,0,0,-9.298,296.53608,208.03516)" fill="#434343"/>
<use data-text="e" xlink:href="../../slide-glyphs.svg#gc6a71adbd58bdf50665a5d53" transform="matrix(9.298,0,0,-9.298,302.77507,208.03516)" fill="#434343"/>
<use data-text="n" xlink:href="../../slide-glyphs.svg#g93ac8661b83ea790de63e786" transform="matrix(9.298,0,0,-9.298,308.50263,208.03516)" fill="#434343"/>
<use data-text="s" xlink:href="../../slide-glyphs.svg#gd9347de58aa9ec8974b45d00" transform="matrix(9.298,0,0,-9.298,314.42546,208.03516)" fill="#434343"/>
</g>
<g clip-path="url(#clip_18)">
<g mask="url(#mask_19)">
<g transform="matrix(.16051889,0,0,.16052832,206.504,88.69617)">
<image id="image_21" width="1536" height="1024" xlink:href="../../slide-images/893a018106f882c7aa1d4bf817033238094dcd5d583a3e235308a0b26e0d991d.webp"/>
</g>
</g>
</g>
<g clip-path="url(#clip_22)">
<g opacity=".19">
<g clip-path="url(#clip_23)">
<g mask="url(#mask_24)">
<g transform="matrix(.30285359,0,0,.30275519,361.077,85.77617)">
<use xlink:href="#image_15" x="0" y="0" width="519" height="482"/>
</g>
</g>
</g>
</g>
<path transform="matrix(1,0,0,-1,0,405.01417)" d="M439.682 178.696H365.131V316.516H514.205V178.696H439.682Z" fill="#ffffff" fill-rule="evenodd"/>
<path transform="matrix(1,0,0,-1,0,405.01417)" d="M439.682 184.649H371.565V310.592H507.798V184.649H439.682Z" fill="#ffffff" fill-rule="evenodd"/>
<path transform="matrix(1,0,0,-1,0,405.01417)" stroke-width=".6803" stroke-linecap="butt" stroke-dasharray="2.72122,2.04091" stroke-linejoin="round" fill="none" stroke="#cccccc" d="M439.682 184.649H371.565V310.592H507.798V184.649H439.682Z"/>
<use data-text="A" xlink:href="../../slide-glyphs.svg#gc62b7d444f70574efb6c49f4" transform="matrix(9.298,0,0,-9.298,375.902,185.69817)" fill="#434343"/>
<use data-text=" " xlink:href="../../slide-glyphs.svg#gcf063d903e53138433505876" transform="matrix(9.298,0,0,-9.298,382.70817,185.69817)" fill="#434343"/>
<use data-text="c" xlink:href="../../slide-glyphs.svg#g492d12d9c1fee562ebeef144" transform="matrix(9.298,0,0,-9.298,384.66075,185.69817)" fill="#434343"/>
<use data-text="l" xlink:href="../../slide-glyphs.svg#g433c1758f1490a8d4e2dd4c5" transform="matrix(9.298,0,0,-9.298,390.23957,185.69817)" fill="#434343"/>
<use data-text="e" xlink:href="../../slide-glyphs.svg#g7904a22cb9f26766a131de71" transform="matrix(9.298,0,0,-9.298,392.9639,185.69817)" fill="#434343"/>
<use data-text="a" xlink:href="../../slide-glyphs.svg#g1f8595787daa354f34958516" transform="matrix(9.298,0,0,-9.298,398.66358,185.69817)" fill="#434343"/>
<use data-text="r" xlink:href="../../slide-glyphs.svg#gc956b5707e4523252658e846" transform="matrix(9.298,0,0,-9.298,404.93046,185.69817)" fill="#434343"/>
<use data-text=" " xlink:href="../../slide-glyphs.svg#gcf063d903e53138433505876" transform="matrix(9.298,0,0,-9.298,408.9007,185.69817)" fill="#434343"/>
<use data-text="p" xlink:href="../../slide-glyphs.svg#g1fab4a1e4c016453f2a140cf" transform="matrix(9.298,0,0,-9.298,410.8533,185.69817)" fill="#434343"/>
<use data-text="r" xlink:href="../../slide-glyphs.svg#gc956b5707e4523252658e846" transform="matrix(9.298,0,0,-9.298,417.12019,185.69817)" fill="#434343"/>
<use data-text="o" xlink:href="../../slide-glyphs.svg#gf0012022ca61f3dcef9f6fba" transform="matrix(9.298,0,0,-9.298,421.09043,185.69817)" fill="#434343"/>
<use data-text="b" xlink:href="../../slide-glyphs.svg#g0558d91eccd328215320098d" transform="matrix(9.298,0,0,-9.298,426.95747,185.69817)" fill="#434343"/>
<use data-text="l" xlink:href="../../slide-glyphs.svg#g433c1758f1490a8d4e2dd4c5" transform="matrix(9.298,0,0,-9.298,433.25224,185.69817)" fill="#434343"/>
<use data-text="e" xlink:href="../../slide-glyphs.svg#g7904a22cb9f26766a131de71" transform="matrix(9.298,0,0,-9.298,435.97657,185.69817)" fill="#434343"/>
<use data-text="m" xlink:href="../../slide-glyphs.svg#g8775ff8a84e549b5c6e216c3" transform="matrix(9.298,0,0,-9.298,441.67625,185.69817)" fill="#434343"/>
<use data-text=" " xlink:href="../../slide-glyphs.svg#gcf063d903e53138433505876" transform="matrix(9.298,0,0,-9.298,451.45774,185.69817)" fill="#434343"/>
<use data-text="s" xlink:href="../../slide-glyphs.svg#ge01381158566bf6a10cb546b" transform="matrix(9.298,0,0,-9.298,453.4103,185.69817)" fill="#434343"/>
<use data-text="t" xlink:href="../../slide-glyphs.svg#gf1c2ae3e105e985848ae4c08" transform="matrix(9.298,0,0,-9.298,458.5707,185.69817)" fill="#434343"/>
<use data-text="a" xlink:href="../../slide-glyphs.svg#g1f8595787daa354f34958516" transform="matrix(9.298,0,0,-9.298,462.3085,185.69817)" fill="#434343"/>
<use data-text="t" xlink:href="../../slide-glyphs.svg#gf1c2ae3e105e985848ae4c08" transform="matrix(9.298,0,0,-9.298,468.60328,185.69817)" fill="#434343"/>
<use data-text="e" xlink:href="../../slide-glyphs.svg#g7904a22cb9f26766a131de71" transform="matrix(9.298,0,0,-9.298,472.34107,185.69817)" fill="#434343"/>
<use data-text="m" xlink:href="../../slide-glyphs.svg#g8775ff8a84e549b5c6e216c3" transform="matrix(9.298,0,0,-9.298,478.04075,185.69817)" fill="#434343"/>
<use data-text="e" xlink:href="../../slide-glyphs.svg#g7904a22cb9f26766a131de71" transform="matrix(9.298,0,0,-9.298,487.82225,185.69817)" fill="#434343"/>
<use data-text="n" xlink:href="../../slide-glyphs.svg#g1fe7535e10f309dadab9703c" transform="matrix(9.298,0,0,-9.298,493.5219,185.69817)" fill="#434343"/>
<use data-text="t" xlink:href="../../slide-glyphs.svg#gf1c2ae3e105e985848ae4c08" transform="matrix(9.298,0,0,-9.298,499.73298,185.69817)" fill="#434343"/>
<use data-text="Y" xlink:href="../../slide-glyphs.svg#g75c72b5d58e72be1fdc84fed" transform="matrix(9.298,0,0,-9.298,403.172,196.86617)" fill="#434343"/>
<use data-text="o" xlink:href="../../slide-glyphs.svg#gfa7b9d27c237c2bd4dd63759" transform="matrix(9.298,0,0,-9.298,408.55555,196.86617)" fill="#434343"/>
<use data-text="u" xlink:href="../../slide-glyphs.svg#gade1b039987601e7ac87faa1" transform="matrix(9.298,0,0,-9.298,414.45048,196.86617)" fill="#434343"/>
<use data-text=" " xlink:href="../../slide-glyphs.svg#gcf063d903e53138433505876" transform="matrix(9.298,0,0,-9.298,420.3733,196.86617)" fill="#434343"/>
<use data-text="c" xlink:href="../../slide-glyphs.svg#g4b938784b9423a370018e1da" transform="matrix(9.298,0,0,-9.298,422.83729,196.86617)" fill="#434343"/>
<use data-text="a" xlink:href="../../slide-glyphs.svg#g5e754424ed3390eb8229e33f" transform="matrix(9.298,0,0,-9.298,428.45329,196.86617)" fill="#434343"/>
<use data-text="n" xlink:href="../../slide-glyphs.svg#g93ac8661b83ea790de63e786" transform="matrix(9.298,0,0,-9.298,434.69227,196.86617)" fill="#434343"/>
<use data-text=" " xlink:href="../../slide-glyphs.svg#gcf063d903e53138433505876" transform="matrix(9.298,0,0,-9.298,440.61509,196.86617)" fill="#434343"/>
<use data-text="e" xlink:href="../../slide-glyphs.svg#gc6a71adbd58bdf50665a5d53" transform="matrix(9.298,0,0,-9.298,443.07908,196.86617)" fill="#434343"/>
<use data-text="x" xlink:href="../../slide-glyphs.svg#g21646164f8a5c9019dfd02a9" transform="matrix(9.298,0,0,-9.298,448.80665,196.86617)" fill="#434343"/>
<use data-text="p" xlink:href="../../slide-glyphs.svg#g7ba995096087d31a75c36c62" transform="matrix(9.298,0,0,-9.298,453.22319,196.86617)" fill="#434343"/>
<use data-text="l" xlink:href="../../slide-glyphs.svg#g494fa3dd8d13521d7b366687" transform="matrix(9.298,0,0,-9.298,459.49006,196.86617)" fill="#434343"/>
<use data-text="a" xlink:href="../../slide-glyphs.svg#g5e754424ed3390eb8229e33f" transform="matrix(9.298,0,0,-9.298,461.7588,196.86617)" fill="#434343"/>
<use data-text="i" xlink:href="../../slide-glyphs.svg#g8e0e59eaf01fdce6856fdd7b" transform="matrix(9.298,0,0,-9.298,467.99778,196.86617)" fill="#434343"/>
<use data-text="n" xlink:href="../../slide-glyphs.svg#g93ac8661b83ea790de63e786" transform="matrix(9.298,0,0,-9.298,470.2665,196.86617)" fill="#434343"/>
<use data-text=" " xlink:href="../../slide-glyphs.svg#gcf063d903e53138433505876" transform="matrix(9.298,0,0,-9.298,476.18934,196.86617)" fill="#434343"/>
<use data-text="i" xlink:href="../../slide-glyphs.svg#g8e0e59eaf01fdce6856fdd7b" transform="matrix(9.298,0,0,-9.298,420.236,208.03516)" fill="#434343"/>
<use data-text="t" xlink:href="../../slide-glyphs.svg#g9b19800f0ae4535cc1e3259c" transform="matrix(9.298,0,0,-9.298,422.50474,208.03516)" fill="#434343"/>
<use data-text=" " xlink:href="../../slide-glyphs.svg#gcf063d903e53138433505876" transform="matrix(9.298,0,0,-9.298,425.852,208.03516)" fill="#434343"/>
<use data-text="c" xlink:href="../../slide-glyphs.svg#g4b938784b9423a370018e1da" transform="matrix(9.298,0,0,-9.298,428.31599,208.03516)" fill="#434343"/>
<use data-text="l" xlink:href="../../slide-glyphs.svg#g494fa3dd8d13521d7b366687" transform="matrix(9.298,0,0,-9.298,433.93199,208.03516)" fill="#434343"/>
<use data-text="e" xlink:href="../../slide-glyphs.svg#gc6a71adbd58bdf50665a5d53" transform="matrix(9.298,0,0,-9.298,436.2007,208.03516)" fill="#434343"/>
<use data-text="a" xlink:href="../../slide-glyphs.svg#g5e754424ed3390eb8229e33f" transform="matrix(9.298,0,0,-9.298,441.95619,208.03516)" fill="#434343"/>
<use data-text="r" xlink:href="../../slide-glyphs.svg#g883ab16e553a277842b99550" transform="matrix(9.298,0,0,-9.298,448.19517,208.03516)" fill="#434343"/>
<use data-text="l" xlink:href="../../slide-glyphs.svg#g494fa3dd8d13521d7b366687" transform="matrix(9.298,0,0,-9.298,451.6261,208.03516)" fill="#434343"/>
<use data-text="y" xlink:href="../../slide-glyphs.svg#g66c0ccef391f82855d3393ee" transform="matrix(9.298,0,0,-9.298,453.91343,208.03516)" fill="#434343"/>
</g>
<g clip-path="url(#clip_25)">
<g mask="url(#mask_26)">
<g transform="matrix(.16050066,0,0,.16052832,271.587,88.69617)">
<use xlink:href="#image_21" x="0" y="0" width="1536" height="1024"/>
</g>
</g>
</g>
<g clip-path="url(#clip_27)">
<g opacity=".19">
<g clip-path="url(#clip_28)">
<g mask="url(#mask_29)">
<g transform="matrix(.30285359,0,0,.30275519,200.239,233.03618)">
<use xlink:href="#image_15" x="0" y="0" width="519" height="482"/>
</g>
</g>
</g>
</g>
<path transform="matrix(1,0,0,-1,0,405.01417)" d="M278.844 31.436H204.293V169.257H353.367V31.436H278.844Z" fill="#ffffff" fill-rule="evenodd"/>
<path transform="matrix(1,0,0,-1,0,405.01417)" d="M278.844 37.389H210.728V163.332H346.961V37.389H278.844Z" fill="#ffffff" fill-rule="evenodd"/>
<path transform="matrix(1,0,0,-1,0,405.01417)" stroke-width=".6803" stroke-linecap="butt" stroke-dasharray="2.72122,2.04091" stroke-linejoin="round" fill="none" stroke="#cccccc" d="M278.844 37.389H210.728V163.332H346.961V37.389H278.844Z"/>
<use data-text="A" xlink:href="../../slide-glyphs.svg#gc62b7d444f70574efb6c49f4" transform="matrix(9.298,0,0,-9.298,232.809,335.53718)" fill="#434343"/>
<use data-text=" " xlink:href="../../slide-glyphs.svg#gcf063d903e53138433505876" transform="matrix(9.298,0,0,-9.298,239.61515,335.53718)" fill="#434343"/>
<use data-text="s" xlink:href="../../slide-glyphs.svg#ge01381158566bf6a10cb546b" transform="matrix(9.298,0,0,-9.298,241.56772,335.53718)" fill="#434343"/>
<use data-text="o" xlink:href="../../slide-glyphs.svg#gf0012022ca61f3dcef9f6fba" transform="matrix(9.298,0,0,-9.298,246.7281,335.53718)" fill="#434343"/>
<use data-text="l" xlink:href="../../slide-glyphs.svg#g433c1758f1490a8d4e2dd4c5" transform="matrix(9.298,0,0,-9.298,252.59514,335.53718)" fill="#434343"/>
<use data-text="u" xlink:href="../../slide-glyphs.svg#g96f8a52e5a84e4796fb6a016" transform="matrix(9.298,0,0,-9.298,255.33805,335.53718)" fill="#434343"/>
<use data-text="t" xlink:href="../../slide-glyphs.svg#gf1c2ae3e105e985848ae4c08" transform="matrix(9.298,0,0,-9.298,261.5491,335.53718)" fill="#434343"/>
<use data-text="i" xlink:href="../../slide-glyphs.svg#g361fa2e5d5cb423388d13334" transform="matrix(9.298,0,0,-9.298,265.3148,335.53718)" fill="#434343"/>
<use data-text="o" xlink:href="../../slide-glyphs.svg#gf0012022ca61f3dcef9f6fba" transform="matrix(9.298,0,0,-9.298,268.03913,335.53718)" fill="#434343"/>
<use data-text="n" xlink:href="../../slide-glyphs.svg#g1fe7535e10f309dadab9703c" transform="matrix(9.298,0,0,-9.298,273.90617,335.53718)" fill="#434343"/>
<use data-text=" " xlink:href="../../slide-glyphs.svg#gcf063d903e53138433505876" transform="matrix(9.298,0,0,-9.298,280.1451,335.53718)" fill="#434343"/>
<use data-text="d" xlink:href="../../slide-glyphs.svg#g23f8bac688508a557b99ff65" transform="matrix(9.298,0,0,-9.298,282.0977,335.53718)" fill="#434343"/>
<use data-text="i" xlink:href="../../slide-glyphs.svg#g361fa2e5d5cb423388d13334" transform="matrix(9.298,0,0,-9.298,288.39247,335.53718)" fill="#434343"/>
<use data-text="r" xlink:href="../../slide-glyphs.svg#gc956b5707e4523252658e846" transform="matrix(9.298,0,0,-9.298,291.1168,335.53718)" fill="#434343"/>
<use data-text="e" xlink:href="../../slide-glyphs.svg#g7904a22cb9f26766a131de71" transform="matrix(9.298,0,0,-9.298,295.05915,335.53718)" fill="#434343"/>
<use data-text="c" xlink:href="../../slide-glyphs.svg#g492d12d9c1fee562ebeef144" transform="matrix(9.298,0,0,-9.298,300.75883,335.53718)" fill="#434343"/>
<use data-text="t" xlink:href="../../slide-glyphs.svg#gf1c2ae3e105e985848ae4c08" transform="matrix(9.298,0,0,-9.298,306.33766,335.53718)" fill="#434343"/>
<use data-text="i" xlink:href="../../slide-glyphs.svg#g361fa2e5d5cb423388d13334" transform="matrix(9.298,0,0,-9.298,310.10334,335.53718)" fill="#434343"/>
<use data-text="o" xlink:href="../../slide-glyphs.svg#gf0012022ca61f3dcef9f6fba" transform="matrix(9.298,0,0,-9.298,312.82768,335.53718)" fill="#434343"/>
<use data-text="n" xlink:href="../../slide-glyphs.svg#g1fe7535e10f309dadab9703c" transform="matrix(9.298,0,0,-9.298,318.6947,335.53718)" fill="#434343"/>
<use data-text="Y" xlink:href="../../slide-glyphs.svg#g75c72b5d58e72be1fdc84fed" transform="matrix(9.298,0,0,-9.298,244.205,346.70619)" fill="#434343"/>
<use data-text="o" xlink:href="../../slide-glyphs.svg#gfa7b9d27c237c2bd4dd63759" transform="matrix(9.298,0,0,-9.298,249.58855,346.70619)" fill="#434343"/>
<use data-text="u" xlink:href="../../slide-glyphs.svg#gade1b039987601e7ac87faa1" transform="matrix(9.298,0,0,-9.298,255.48348,346.70619)" fill="#434343"/>
<use data-text=" " xlink:href="../../slide-glyphs.svg#gcf063d903e53138433505876" transform="matrix(9.298,0,0,-9.298,261.4063,346.70619)" fill="#434343"/>
<use data-text="k" xlink:href="../../slide-glyphs.svg#g7a965e1a3757b7549ceebdd3" transform="matrix(9.298,0,0,-9.298,263.8703,346.70619)" fill="#434343"/>
<use data-text="n" xlink:href="../../slide-glyphs.svg#g93ac8661b83ea790de63e786" transform="matrix(9.298,0,0,-9.298,268.6309,346.70619)" fill="#434343"/>
<use data-text="o" xlink:href="../../slide-glyphs.svg#gfa7b9d27c237c2bd4dd63759" transform="matrix(9.298,0,0,-9.298,274.5537,346.70619)" fill="#434343"/>
<use data-text="w" xlink:href="../../slide-glyphs.svg#g1cbf4f9b3221c5b5fd47ec65" transform="matrix(9.298,0,0,-9.298,280.44865,346.70619)" fill="#434343"/>
<use data-text=" " xlink:href="../../slide-glyphs.svg#gcf063d903e53138433505876" transform="matrix(9.298,0,0,-9.298,288.0451,346.70619)" fill="#434343"/>
<use data-text="w" xlink:href="../../slide-glyphs.svg#g1cbf4f9b3221c5b5fd47ec65" transform="matrix(9.298,0,0,-9.298,290.5091,346.70619)" fill="#434343"/>
<use data-text="h" xlink:href="../../slide-glyphs.svg#gc6975359facac4d79995056b" transform="matrix(9.298,0,0,-9.298,298.07768,346.70619)" fill="#434343"/>
<use data-text="a" xlink:href="../../slide-glyphs.svg#g5e754424ed3390eb8229e33f" transform="matrix(9.298,0,0,-9.298,303.9726,346.70619)" fill="#434343"/>
<use data-text="t" xlink:href="../../slide-glyphs.svg#g9b19800f0ae4535cc1e3259c" transform="matrix(9.298,0,0,-9.298,310.23948,346.70619)" fill="#434343"/>
<use data-text=" " xlink:href="../../slide-glyphs.svg#gcf063d903e53138433505876" transform="matrix(9.298,0,0,-9.298,313.58674,346.70619)" fill="#434343"/>
<use data-text="c" xlink:href="../../slide-glyphs.svg#g4b938784b9423a370018e1da" transform="matrix(9.298,0,0,-9.298,254.608,357.87416)" fill="#434343"/>
<use data-text="o" xlink:href="../../slide-glyphs.svg#gfa7b9d27c237c2bd4dd63759" transform="matrix(9.298,0,0,-9.298,260.1868,357.87416)" fill="#434343"/>
<use data-text="u" xlink:href="../../slide-glyphs.svg#gade1b039987601e7ac87faa1" transform="matrix(9.298,0,0,-9.298,266.10963,357.87416)" fill="#434343"/>
<use data-text="l" xlink:href="../../slide-glyphs.svg#g494fa3dd8d13521d7b366687" transform="matrix(9.298,0,0,-9.298,272.03245,357.87416)" fill="#434343"/>
<use data-text="d" xlink:href="../../slide-glyphs.svg#gd9856f3cbe7d188435070e63" transform="matrix(9.298,0,0,-9.298,274.30119,357.87416)" fill="#434343"/>
<use data-text=" " xlink:href="../../slide-glyphs.svg#gcf063d903e53138433505876" transform="matrix(9.298,0,0,-9.298,280.54017,357.87416)" fill="#434343"/>
<use data-text="h" xlink:href="../../slide-glyphs.svg#gc6975359facac4d79995056b" transform="matrix(9.298,0,0,-9.298,283.00416,357.87416)" fill="#434343"/>
<use data-text="e" xlink:href="../../slide-glyphs.svg#gc6a71adbd58bdf50665a5d53" transform="matrix(9.298,0,0,-9.298,288.92698,357.87416)" fill="#434343"/>
<use data-text="l" xlink:href="../../slide-glyphs.svg#g494fa3dd8d13521d7b366687" transform="matrix(9.298,0,0,-9.298,294.65455,357.87416)" fill="#434343"/>
<use data-text="p" xlink:href="../../slide-glyphs.svg#g7ba995096087d31a75c36c62" transform="matrix(9.298,0,0,-9.298,296.92329,357.87416)" fill="#434343"/>
</g>
<g clip-path="url(#clip_30)">
<g mask="url(#mask_31)">
<g transform="matrix(.16050066,0,0,.16052832,209.509,161.17815)">
<use xlink:href="#image_21" x="0" y="0" width="1536" height="1024"/>
</g>
</g>
</g>
<g clip-path="url(#clip_32)">
<g opacity=".19">
<g clip-path="url(#clip_33)">
<g mask="url(#mask_34)">
<g transform="matrix(.30285359,0,0,.30275519,361.077,233.03618)">
<use xlink:href="#image_15" x="0" y="0" width="519" height="482"/>
</g>
</g>
</g>
</g>
<path transform="matrix(1,0,0,-1,0,405.01417)" d="M439.682 31.436H365.131V169.257H514.205V31.436H439.682Z" fill="#ffffff" fill-rule="evenodd"/>
<path transform="matrix(1,0,0,-1,0,405.01417)" d="M439.682 37.389H371.565V163.332H507.798V37.389H439.682Z" fill="#ffffff" fill-rule="evenodd"/>
<path transform="matrix(1,0,0,-1,0,405.01417)" stroke-width=".6803" stroke-linecap="butt" stroke-dasharray="2.72122,2.04091" stroke-linejoin="round" fill="none" stroke="#cccccc" d="M439.682 37.389H371.565V163.332H507.798V37.389H439.682Z"/>
<use data-text="A" xlink:href="../../slide-glyphs.svg#gc62b7d444f70574efb6c49f4" transform="matrix(9.298,0,0,-9.298,384.123,335.53718)" fill="#434343"/>
<use data-text="I" xlink:href="../../slide-glyphs.svg#g65276716038a81061ceca20b" transform="matrix(9.298,0,0,-9.298,390.92915,335.53718)" fill="#434343"/>
<use data-text=" " xlink:href="../../slide-glyphs.svg#gcf063d903e53138433505876" transform="matrix(9.298,0,0,-9.298,393.65348,335.53718)" fill="#434343"/>
<use data-text="a" xlink:href="../../slide-glyphs.svg#g1f8595787daa354f34958516" transform="matrix(9.298,0,0,-9.298,395.60606,335.53718)" fill="#434343"/>
<use data-text="s" xlink:href="../../slide-glyphs.svg#ge01381158566bf6a10cb546b" transform="matrix(9.298,0,0,-9.298,401.87294,335.53718)" fill="#434343"/>
<use data-text=" " xlink:href="../../slide-glyphs.svg#gcf063d903e53138433505876" transform="matrix(9.298,0,0,-9.298,407.03334,335.53718)" fill="#434343"/>
<use data-text="a" xlink:href="../../slide-glyphs.svg#g1f8595787daa354f34958516" transform="matrix(9.298,0,0,-9.298,408.98594,335.53718)" fill="#434343"/>
<use data-text=" " xlink:href="../../slide-glyphs.svg#gcf063d903e53138433505876" transform="matrix(9.298,0,0,-9.298,415.2807,335.53718)" fill="#434343"/>
<use data-text="t" xlink:href="../../slide-glyphs.svg#gf1c2ae3e105e985848ae4c08" transform="matrix(9.298,0,0,-9.298,417.2333,335.53718)" fill="#434343"/>
<use data-text="h" xlink:href="../../slide-glyphs.svg#gf4cc69dc70c245b58f09a694" transform="matrix(9.298,0,0,-9.298,420.9711,335.53718)" fill="#434343"/>
<use data-text="i" xlink:href="../../slide-glyphs.svg#g361fa2e5d5cb423388d13334" transform="matrix(9.298,0,0,-9.298,427.21006,335.53718)" fill="#434343"/>
<use data-text="n" xlink:href="../../slide-glyphs.svg#g1fe7535e10f309dadab9703c" transform="matrix(9.298,0,0,-9.298,429.9344,335.53718)" fill="#434343"/>
<use data-text="k" xlink:href="../../slide-glyphs.svg#g244830644bed25f459e7c601" transform="matrix(9.298,0,0,-9.298,436.17335,335.53718)" fill="#434343"/>
<use data-text="i" xlink:href="../../slide-glyphs.svg#g361fa2e5d5cb423388d13334" transform="matrix(9.298,0,0,-9.298,441.87303,335.53718)" fill="#434343"/>
<use data-text="n" xlink:href="../../slide-glyphs.svg#g1fe7535e10f309dadab9703c" transform="matrix(9.298,0,0,-9.298,444.59736,335.53718)" fill="#434343"/>
<use data-text="g" xlink:href="../../slide-glyphs.svg#g5a08be4dfc15a195e649adbe" transform="matrix(9.298,0,0,-9.298,450.8363,335.53718)" fill="#434343"/>
<use data-text=" " xlink:href="../../slide-glyphs.svg#gcf063d903e53138433505876" transform="matrix(9.298,0,0,-9.298,457.10319,335.53718)" fill="#434343"/>
<use data-text="p" xlink:href="../../slide-glyphs.svg#g1fab4a1e4c016453f2a140cf" transform="matrix(9.298,0,0,-9.298,459.05577,335.53718)" fill="#434343"/>
<use data-text="a" xlink:href="../../slide-glyphs.svg#g1f8595787daa354f34958516" transform="matrix(9.298,0,0,-9.298,465.35054,335.53718)" fill="#434343"/>
<use data-text="r" xlink:href="../../slide-glyphs.svg#gc956b5707e4523252658e846" transform="matrix(9.298,0,0,-9.298,471.6174,335.53718)" fill="#434343"/>
<use data-text="t" xlink:href="../../slide-glyphs.svg#gf1c2ae3e105e985848ae4c08" transform="matrix(9.298,0,0,-9.298,475.58766,335.53718)" fill="#434343"/>
<use data-text="n" xlink:href="../../slide-glyphs.svg#g1fe7535e10f309dadab9703c" transform="matrix(9.298,0,0,-9.298,479.32545,335.53718)" fill="#434343"/>
<use data-text="e" xlink:href="../../slide-glyphs.svg#g7904a22cb9f26766a131de71" transform="matrix(9.298,0,0,-9.298,485.5644,335.53718)" fill="#434343"/>
<use data-text="r" xlink:href="../../slide-glyphs.svg#gc956b5707e4523252658e846" transform="matrix(9.298,0,0,-9.298,491.23619,335.53718)" fill="#434343"/>
<use data-text="Y" xlink:href="../../slide-glyphs.svg#g75c72b5d58e72be1fdc84fed" transform="matrix(9.298,0,0,-9.298,388.998,346.70619)" fill="#434343"/>
<use data-text="o" xlink:href="../../slide-glyphs.svg#gfa7b9d27c237c2bd4dd63759" transform="matrix(9.298,0,0,-9.298,394.38154,346.70619)" fill="#434343"/>
<use data-text="u" xlink:href="../../slide-glyphs.svg#gade1b039987601e7ac87faa1" transform="matrix(9.298,0,0,-9.298,400.27647,346.70619)" fill="#434343"/>
<use data-text=" " xlink:href="../../slide-glyphs.svg#gcf063d903e53138433505876" transform="matrix(9.298,0,0,-9.298,406.19929,346.70619)" fill="#434343"/>
<use data-text="u" xlink:href="../../slide-glyphs.svg#gade1b039987601e7ac87faa1" transform="matrix(9.298,0,0,-9.298,408.66328,346.70619)" fill="#434343"/>
<use data-text="s" xlink:href="../../slide-glyphs.svg#gd9347de58aa9ec8974b45d00" transform="matrix(9.298,0,0,-9.298,414.5861,346.70619)" fill="#434343"/>
<use data-text="e" xlink:href="../../slide-glyphs.svg#gc6a71adbd58bdf50665a5d53" transform="matrix(9.298,0,0,-9.298,419.40245,346.70619)" fill="#434343"/>
<use data-text="d" xlink:href="../../slide-glyphs.svg#gd9856f3cbe7d188435070e63" transform="matrix(9.298,0,0,-9.298,425.13,346.70619)" fill="#434343"/>
<use data-text=" " xlink:href="../../slide-glyphs.svg#gcf063d903e53138433505876" transform="matrix(9.298,0,0,-9.298,431.369,346.70619)" fill="#434343"/>
<use data-text="A" xlink:href="../../slide-glyphs.svg#g9a4840dab41fea03696d23b7" transform="matrix(9.298,0,0,-9.298,433.83299,346.70619)" fill="#434343"/>
<use data-text="I" xlink:href="../../slide-glyphs.svg#g9f70215344a79c4a84bec64e" transform="matrix(9.298,0,0,-9.298,440.07194,346.70619)" fill="#434343"/>
<use data-text=" " xlink:href="../../slide-glyphs.svg#gcf063d903e53138433505876" transform="matrix(9.298,0,0,-9.298,442.34068,346.70619)" fill="#434343"/>
<use data-text="t" xlink:href="../../slide-glyphs.svg#g9b19800f0ae4535cc1e3259c" transform="matrix(9.298,0,0,-9.298,444.80467,346.70619)" fill="#434343"/>
<use data-text="o" xlink:href="../../slide-glyphs.svg#gfa7b9d27c237c2bd4dd63759" transform="matrix(9.298,0,0,-9.298,448.1798,346.70619)" fill="#434343"/>
<use data-text=" " xlink:href="../../slide-glyphs.svg#gcf063d903e53138433505876" transform="matrix(9.298,0,0,-9.298,454.10264,346.70619)" fill="#434343"/>
<use data-text="e" xlink:href="../../slide-glyphs.svg#gc6a71adbd58bdf50665a5d53" transform="matrix(9.298,0,0,-9.298,456.56663,346.70619)" fill="#434343"/>
<use data-text="x" xlink:href="../../slide-glyphs.svg#g21646164f8a5c9019dfd02a9" transform="matrix(9.298,0,0,-9.298,462.2942,346.70619)" fill="#434343"/>
<use data-text="p" xlink:href="../../slide-glyphs.svg#g7ba995096087d31a75c36c62" transform="matrix(9.298,0,0,-9.298,466.71073,346.70619)" fill="#434343"/>
<use data-text="l" xlink:href="../../slide-glyphs.svg#g494fa3dd8d13521d7b366687" transform="matrix(9.298,0,0,-9.298,472.9497,346.70619)" fill="#434343"/>
<use data-text="o" xlink:href="../../slide-glyphs.svg#gfa7b9d27c237c2bd4dd63759" transform="matrix(9.298,0,0,-9.298,475.21846,346.70619)" fill="#434343"/>
<use data-text="r" xlink:href="../../slide-glyphs.svg#g883ab16e553a277842b99550" transform="matrix(9.298,0,0,-9.298,481.14128,346.70619)" fill="#434343"/>
<use data-text="e" xlink:href="../../slide-glyphs.svg#gc6a71adbd58bdf50665a5d53" transform="matrix(9.298,0,0,-9.298,484.6001,346.70619)" fill="#434343"/>
<use data-text=" " xlink:href="../../slide-glyphs.svg#gcf063d903e53138433505876" transform="matrix(9.298,0,0,-9.298,490.32768,346.70619)" fill="#434343"/>
<use data-text="a" xlink:href="../../slide-glyphs.svg#g5e754424ed3390eb8229e33f" transform="matrix(9.298,0,0,-9.298,416.154,357.87416)" fill="#434343"/>
<use data-text="n" xlink:href="../../slide-glyphs.svg#g93ac8661b83ea790de63e786" transform="matrix(9.298,0,0,-9.298,422.39299,357.87416)" fill="#434343"/>
<use data-text="d" xlink:href="../../slide-glyphs.svg#gd9856f3cbe7d188435070e63" transform="matrix(9.298,0,0,-9.298,428.2879,357.87416)" fill="#434343"/>
<use data-text=" " xlink:href="../../slide-glyphs.svg#gcf063d903e53138433505876" transform="matrix(9.298,0,0,-9.298,434.55479,357.87416)" fill="#434343"/>
<use data-text="r" xlink:href="../../slide-glyphs.svg#g883ab16e553a277842b99550" transform="matrix(9.298,0,0,-9.298,437.01878,357.87416)" fill="#434343"/>
<use data-text="e" xlink:href="../../slide-glyphs.svg#gc6a71adbd58bdf50665a5d53" transform="matrix(9.298,0,0,-9.298,440.4497,357.87416)" fill="#434343"/>
<use data-text="f" xlink:href="../../slide-glyphs.svg#g1e38420ceaf505fe5cb6461f" transform="matrix(9.298,0,0,-9.298,446.20518,357.87416)" fill="#434343"/>
<use data-text="i" xlink:href="../../slide-glyphs.svg#g8e0e59eaf01fdce6856fdd7b" transform="matrix(9.298,0,0,-9.298,449.23634,357.87416)" fill="#434343"/>
<use data-text="n" xlink:href="../../slide-glyphs.svg#g93ac8661b83ea790de63e786" transform="matrix(9.298,0,0,-9.298,451.50508,357.87416)" fill="#434343"/>
<use data-text="e" xlink:href="../../slide-glyphs.svg#gc6a71adbd58bdf50665a5d53" transform="matrix(9.298,0,0,-9.298,457.4279,357.87416)" fill="#434343"/>
</g>
<g clip-path="url(#clip_35)">
<g mask="url(#mask_36)">
<g transform="matrix(.16050066,0,0,.16052832,265.181,161.17815)">
<use xlink:href="#image_21" x="0" y="0" width="1536" height="1024"/>
</g>
</g>
</g>
</g>
</svg>
